<?xml version="1.0" encoding="UTF-8" standalone="no"?>
<svg
   version="1.1"
   viewBox="0 0 512 511.99999"
   x="0px"
   y="0px"
   id="svg2"
   sodipodi:docname="d100.svg"
   width="512"
   height="512"
   inkscape:version="1.4 (86a8ad7, 2024-10-11)"
   xmlns:inkscape="http://www.inkscape.org/namespaces/inkscape"
   xmlns:sodipodi="http://sodipodi.sourceforge.net/DTD/sodipodi-0.dtd"
   xmlns="http://www.w3.org/2000/svg"
   xmlns:svg="http://www.w3.org/2000/svg">
  <defs
     id="defs2" />
  <sodipodi:namedview
     id="namedview2"
     pagecolor="#505050"
     bordercolor="#ffffff"
     borderopacity="1"
     inkscape:showpageshadow="0"
     inkscape:pageopacity="0"
     inkscape:pagecheckerboard="1"
     inkscape:deskcolor="#505050"
     inkscape:zoom="1.5761719"
     inkscape:cx="255.36555"
     inkscape:cy="256"
     inkscape:window-width="1920"
     inkscape:window-height="1009"
     inkscape:window-x="-8"
     inkscape:window-y="-8"
     inkscape:window-maximized="1"
     inkscape:current-layer="svg2" />
  <g
     id="g18"
     inkscape:label="g1"
     transform="translate(-4.6551879,68.000031)"
     style="display:inline">
    <g
       transform="matrix(1.2333423,0,0,1.2333423,-489.25896,-439.15258)"
       id="g1"
       inkscape:label="back die">
      <path
         style="display:inline;fill:#2b2b45;stroke-width:1.06707;stroke-linecap:round;stroke-linejoin:round;stroke-miterlimit:5"
         d="M 657.72277,359.39942 523.00534,510.05526 656.9638,638.32144 790.92227,511.19372 Z"
         id="path1"
         inkscape:label="background" />
      <g
         id="g9217"
         inkscape:label="shading">
        <path
           id="path9221"
           style="opacity:0.5;fill:#000000;fill-opacity:1;stroke-width:5.00001"
           d="m 657.83174,360.85215 v 2.99116 h -2.9911 v 2.98995 h -2.98996 v 2.99111 h -2.99115 v 2.99 2.99111 h -2.98996 v 2.99115 h -2.99115 v 2.98996 h -2.99116 v 2.99115 h -2.98995 v 2.98996 h -2.99116 v 2.99115 h -2.98995 v 2.99111 h -2.99111 v 2.99 h -2.99115 v 2.99111 h -2.98996 v 2.99115 2.98996 h -2.99115 v 2.99115 h -2.99116 v 2.98996 h -2.98995 v 2.99115 h -2.99116 v 2.99111 h -2.98995 v 2.98995 h -2.99111 v 2.99116 h -2.99115 v 2.98995 h -2.98996 v 2.99116 h -2.99115 v 2.99115 2.98996 h -2.98996 v 2.99115 h -2.99115 v 2.98996 h -2.99116 v 2.9911 h -2.98995 v 2.99116 h -2.99111 v 2.98995 h -2.98995 v 2.99116 h -2.99116 v 2.98995 h -2.99115 v 2.99116 h -2.98996 v 2.99115 2.98996 h -2.99115 v 2.9911 h -2.98996 v 2.99116 h -2.99115 v 2.98995 h -2.99111 v 2.99116 h -2.98995 v 2.98995 h -2.99116 v 2.99116 h -2.99115 v 2.99115 h -2.98996 v 2.98996 h -2.99115 v 2.9911 2.98996 h -2.98996 v 2.99115 h -2.99115 v 2.99116 h -2.99111 v 2.98995 h -2.98995 v 2.99116 h -2.99116 v 2.98995 h -2.98995 v 2.99116 h -2.99115 v 2.9911 h 2.99115 v 2.98996 h 2.98995 v 2.99115 h 2.99116 v 2.98996 h 2.98995 v 2.99115 h 2.99111 v 2.99116 h 2.99115 v 2.98995 h 2.98996 v 2.99116 h 2.99115 v 2.98995 h 2.98996 v 2.99111 h 2.99115 v 2.99115 h 2.99116 v 2.98996 h 2.98995 v 2.99115 h 2.99111 v 2.99116 h 2.99115 v 2.98995 h 2.98996 v 2.99116 h 2.99115 v 2.98995 h 2.98996 2.99115 v 2.99111 h 2.99116 v 2.99115 h 2.98995 v 2.98996 h 2.99111 v 2.99115 h 2.98995 v 2.98996 h 2.99116 v 2.99115 h 2.99115 v 2.99111 h 2.98996 v 2.99 h 2.99115 v 2.99111 h 2.98996 v 2.98995 h 2.99115 v 2.99116 h 2.99111 v 2.99115 h 2.98995 v 2.98996 h 2.99116 v 2.99115 h 2.98995 v 2.98996 h 2.99116 v 2.99115 h 2.99115 v 2.99111 h 2.98996 v 2.98995 h 2.99115 v 2.99116 h 2.99111 2.98995 v 2.99115 h 2.99116 v 2.98996 h 2.98995 v 2.99115 h 2.99116 v 2.98996 h 2.99115 v 2.9911 h 2.98996 v 2.99116 h 2.99115 v 2.98995 h 2.98996 v 2.99115 h 2.9911 v 2.98996 h 2.99116 2.98995 2.99116 v -2.98996 h 2.98995 v -2.99115 h 2.99116 v -2.98995 h 2.9911 v -2.99116 h 2.99001 v -2.9911 h 2.9911 v -2.98996 h 2.98996 v -2.99115 h 2.99115 v -2.98996 h 2.99116 v -2.99115 h 2.98995 2.99116 v -2.99116 h 2.98995 v -2.98995 h 2.99116 v -2.99111 h 2.9911 v -2.99115 h 2.98996 v -2.98996 h 2.99115 v -2.99115 h 2.99116 v -2.98996 h 2.98995 v -2.99115 h 2.99116 v -2.99116 h 2.98995 v -2.98995 h 2.99116 v -2.99111 h 2.9911 v -2.99 h 2.98996 v -2.99111 h 2.99115 v -2.99115 h 2.98996 v -2.98996 h 2.99115 v -2.99115 h 2.99116 v -2.98996 h 2.98995 V 567.209 h 2.99111 v -2.99111 h 2.99 2.99111 v -2.98995 h 2.99115 v -2.99116 h 2.98996 v -2.98995 h 2.99115 v -2.99116 h 2.98996 v -2.99115 h 2.99115 v -2.98996 h 2.99111 v -2.99115 h 2.99 v -2.99111 h 2.99111 v -2.98995 h 2.99115 v -2.99116 h 2.98996 v -2.98995 h 2.99115 v -2.99116 h 2.98996 v -2.99115 h 2.99115 v -2.98996 h 2.99111 v -2.99115 h 2.98995 v -2.98996 h 2.99116 v -2.9911 h -2.99116 v -2.99116 h -2.98995 v -2.98995 h -2.99111 v -2.99116 h -2.99115 v -2.98995 h -2.98996 v -2.99116 h -2.99115 v -2.99115 h -2.98996 v -2.98996 -2.9911 h -2.99115 v -2.98996 h -2.99111 v -2.99115 h -2.99 v -2.99116 h -2.99111 v -2.98995 h -2.99115 v -2.99116 h -2.98996 v -2.98995 h -2.99115 v -2.99116 h -2.98996 v -2.9911 h -2.99115 v -2.98996 -2.99115 h -2.99111 v -2.99116 h -2.99 v -2.98995 h -2.99111 v -2.99116 h -2.98995 v -2.98995 h -2.99116 v -2.99116 h -2.99115 v -2.9911 h -2.98996 v -2.98996 h -2.99115 v -2.99115 h -2.98996 v -2.98996 -2.99115 h -2.9911 v -2.99116 h -2.99116 v -2.98995 h -2.98995 v -2.99116 h -2.99116 v -2.98995 h -2.98995 v -2.99111 h -2.99116 v -2.99115 h -2.99115 v -2.98996 h -2.98996 v -2.99115 h -2.9911 v -2.98996 -2.99115 h -2.99116 v -2.99111 h -2.98995 v -2.99 h -2.99116 v -2.99111 h -2.98995 v -2.99115 h -2.99116 v -2.98996 h -2.99115 v -2.99115 h -2.98996 v -2.98996 h -2.9911 v -2.99115 h -2.99001 v -2.99111 -2.99 h -2.9911 v -2.99111 h -2.99116 v -2.98995 h -2.98995 v -2.99116 h -2.99116 -2.98995 z m 2.99116,20.93444 h 2.98995 v 2.99115 h 2.99116 v 2.98996 2.99115 h 2.98995 v 2.99111 2.99 h 2.99116 v 2.99111 2.99115 h 2.9911 v 2.98996 2.99115 h 2.99001 v 2.98996 2.99115 h 2.9911 v 2.99111 2.98995 h 2.98996 v 2.99116 2.98995 h 2.99115 v 2.99116 2.99115 h 2.99116 v 2.98996 2.99115 h 2.98995 v 2.98996 h 2.99116 v 2.9911 2.99116 h 2.98995 v 2.98995 2.99116 h 2.99116 v 2.98995 2.99116 h 2.9911 v 2.99115 2.98996 h 2.98996 v 2.9911 2.99116 h 2.99115 v 2.98995 2.99116 h 2.99116 v 2.98995 2.99116 h 2.98995 v 2.99115 2.98996 h 2.99116 v 2.9911 h -2.99116 v 2.98996 h -2.98995 -2.99116 v 2.99115 h -2.99115 -2.98996 v 2.99116 h -2.9911 -2.99116 -2.98995 v 2.98995 h -2.99116 -2.98995 v 2.99116 h -2.99116 -2.99115 -2.98996 v 2.98995 h -2.9911 -2.99001 v 2.99116 h -2.9911 -2.99116 v 2.9911 h -2.98995 -2.99116 -2.98995 -2.99116 -2.9911 v -2.9911 h -2.98996 -2.99115 v -2.99116 h -2.98996 -2.99115 -2.99116 v -2.98995 h -2.98995 -2.99116 v -2.99116 h -2.98995 -2.99111 v -2.98995 h -2.99115 -2.98996 -2.99115 v -2.99116 h -2.99116 -2.98995 v -2.99115 h -2.99116 -2.98995 v -2.98996 h -2.99111 v -2.9911 h 2.99111 v -2.98996 -2.99115 h 2.98995 v -2.99116 -2.98995 h 2.99116 v -2.99116 -2.98995 h 2.98995 v -2.99116 -2.9911 h 2.99116 v -2.98996 -2.99115 h 2.99115 v -2.99116 -2.98995 h 2.98996 v -2.99116 h 2.99115 v -2.98995 -2.99116 h 2.99111 v -2.9911 -2.98996 h 2.98995 v -2.99115 -2.98996 h 2.99116 v -2.99115 -2.99116 h 2.98995 v -2.98995 -2.99116 h 2.99116 v -2.98995 -2.99111 h 2.99115 v -2.99115 -2.98996 h 2.98996 v -2.99115 -2.98996 h 2.99115 v -2.99115 -2.99111 h 2.98996 v -2.99 -2.99111 h 2.9911 v -2.99115 -2.98996 h 2.99116 z m -29.9067,26.91674 h 2.98995 v 2.98996 h -2.98995 v 2.99115 2.99111 h -2.99111 v 2.98995 2.99116 h -2.99115 v 2.98995 2.99116 h -2.98996 v 2.99115 2.98996 h -2.99115 v 2.99115 2.98996 h -2.99116 v 2.9911 2.99116 h -2.98995 v 2.98995 2.99116 h -2.99116 v 2.98995 2.99116 h -2.98995 v 2.99115 h -2.99111 v 2.98996 2.9911 h -2.99115 v 2.99116 2.98995 h -2.98996 v 2.99116 2.98995 h -2.99115 v 2.99116 2.99115 h -2.98996 v 2.98996 h -2.99115 v 2.9911 h -2.99116 -2.98995 v 2.98996 h -2.99111 -2.98995 -2.99116 v 2.99115 h -2.99115 -2.98996 -2.99115 -2.98996 v 2.99116 h -2.99115 -2.99111 -2.98995 -2.99116 v -2.99116 h 2.99116 v -2.99115 h 2.98995 v -2.98996 h 2.99111 v -2.9911 h 2.99115 v -2.98996 h 2.98996 v -2.99115 h 2.99115 v -2.99116 -2.98995 h 2.98996 v -2.99116 h 2.99115 v -2.98995 h 2.99116 v -2.99116 h 2.98995 v -2.9911 h 2.99111 v -2.98996 h 2.98995 v -2.99115 h 2.99116 v -2.99116 h 2.99115 v -2.98995 h 2.98996 v -2.99116 -2.98995 h 2.99115 v -2.99116 h 2.98996 v -2.9911 h 2.99115 v -2.98996 h 2.99111 v -2.99115 h 2.98995 v -2.98996 h 2.99116 v -2.99115 h 2.98995 v -2.99116 h 2.99116 v -2.98995 h 2.99115 v -2.99116 -2.98995 h 2.98996 v -2.99111 h 2.99115 v -2.99115 h 2.99111 z m 59.8134,0 h 2.98995 v 2.98996 h 2.99116 v 2.99115 h 2.98995 v 2.99111 h 2.99116 v 2.98995 h 2.9911 v 2.99116 2.98995 h 2.98996 v 2.99116 h 2.99115 v 2.99115 h 2.99116 v 2.98996 h 2.98995 v 2.99115 h 2.99116 v 2.98996 h 2.98995 v 2.9911 h 2.99116 v 2.99116 h 2.9911 v 2.98995 h 2.98996 v 2.99116 2.98995 h 2.99115 v 2.99116 h 2.98996 v 2.99115 h 2.99115 v 2.98996 h 2.99116 v 2.9911 h 2.98995 v 2.99116 h 2.99111 v 2.98995 h 2.99 v 2.99116 h 2.99111 v 2.98995 h 2.99115 v 2.99116 2.99115 h 2.98996 v 2.98996 h 2.99115 v 2.9911 h 2.98996 v 2.98996 h 2.99115 v 2.99115 h 2.99111 v 2.99116 2.98995 h -2.99111 v -2.98995 h -2.99115 -2.98996 -2.99115 v -2.99116 h -2.98996 -2.99115 -2.99111 v -2.99115 h -2.99 -2.99111 -2.98995 -2.99116 v -2.98996 h -2.99115 -2.98996 v -2.9911 h -2.99115 v -2.98996 h -2.98996 v -2.99115 -2.99116 h -2.9911 v -2.98995 -2.99116 h -2.99116 v -2.98995 -2.99116 h -2.98995 v -2.9911 -2.98996 h -2.99116 v -2.99115 h -2.98995 v -2.99116 -2.98995 h -2.99116 v -2.99116 -2.98995 h -2.99115 v -2.99116 -2.9911 h -2.98996 v -2.98996 -2.99115 h -2.9911 v -2.98996 -2.99115 h -2.99116 v -2.99116 -2.98995 h -2.98995 v -2.99116 -2.98995 h -2.99116 v -2.99111 -2.99115 h -2.98995 z m 38.87891,92.71121 h 2.98996 v 2.98995 h 2.99115 2.98996 2.99115 v 2.99116 h 2.99116 2.98995 2.99111 2.99 v 2.98995 h 2.99111 2.99115 2.98996 v 2.99116 h 2.99115 2.98996 2.99115 2.99111 v 2.9911 h 2.99 2.99111 2.99115 v 2.98996 2.99115 h -2.99115 v 2.98996 h -2.99111 -2.99 v 2.99115 h -2.99111 v 2.99116 h -2.99115 v 2.98995 h -2.98996 v 2.99116 h -2.99115 v 2.98995 h -2.98996 v 2.99111 h -2.99115 v 2.99115 h -2.99111 v 2.98996 h -2.99 v 2.99115 h -2.99111 v 2.99116 h -2.98995 v 2.98995 h -2.99116 v 2.99116 h -2.99115 v 2.98995 h -2.98996 v 2.99111 h -2.99115 v 2.99115 h -2.98996 v 2.98996 h -2.9911 v 2.99115 h -2.99116 v 2.98996 h -2.98995 -2.99116 v 2.99115 h -2.98995 v 2.99111 h -2.99116 v 2.99 h -2.99115 v 2.99111 h -2.98996 v 2.98995 h -2.9911 v 2.99116 h -2.99116 v 2.99115 h -2.98995 v 2.98996 h -2.99116 v 2.99115 h -2.98995 v 2.98996 h -2.99116 v 2.99115 h -2.99115 v 2.99111 h -2.98996 v 2.98995 h -2.9911 v 2.99116 h -2.99001 v 2.99115 h -2.9911 -2.99116 v 2.98996 h -2.98995 v -2.98996 -2.99115 -2.99116 -2.98995 -2.99111 -2.99115 -2.98996 -2.99115 -2.98996 -2.99115 -2.99116 -2.98995 -2.99111 -2.99 -2.99111 -2.99115 -2.98996 -2.99115 -2.98996 -2.99115 -2.99111 -2.98995 -2.99116 -2.98995 -2.99116 -2.99115 -2.98996 -2.99115 -2.99111 -2.98995 -2.99116 -2.98995 -2.99116 h 2.98995 v -2.99115 h 2.99116 2.9911 v -2.98996 h 2.99001 2.9911 2.98996 v -2.99115 h 2.99115 2.99116 v -2.98996 h 2.98995 2.99116 2.98995 v -2.9911 h 2.99116 2.9911 v -2.99116 h 2.98996 2.99115 2.99116 v -2.98995 h 2.98995 2.99116 v -2.99116 h 2.98995 2.99116 2.9911 z m -146.54349,2.98995 h 2.98995 2.99116 2.99115 2.98996 2.99115 2.98996 2.99115 v 2.99116 h 2.99111 2.98995 v 2.98995 h 2.99116 2.98995 2.99116 v 2.99116 h 2.99115 2.98996 v 2.9911 h 2.99115 2.99111 2.98995 v 2.98996 h 2.99116 2.98995 v 2.99115 h 2.99116 2.99115 v 2.98996 h 2.98996 2.99115 2.98996 v 2.99115 h 2.9911 v 2.99116 2.98995 2.99116 2.98995 2.99111 2.99115 2.98996 2.99115 2.99116 2.98995 2.99116 2.98995 2.99111 2.99115 2.98996 2.99115 2.98996 2.99115 2.99111 2.99 2.99111 2.98995 2.99116 2.99115 2.98996 2.99115 2.98996 2.99115 2.99111 2.98995 2.99116 2.99115 2.98996 h -2.9911 -2.98996 v -2.98996 h -2.99115 v -2.99115 h -2.98996 v -2.99116 h -2.99115 v -2.98995 h -2.99116 v -2.99111 h -2.98995 v -2.99115 h -2.99116 v -2.98996 h -2.98995 v -2.99115 h -2.99111 v -2.98996 h -2.99115 v -2.99115 h -2.98996 v -2.99116 h -2.99115 v -2.98995 h -2.99116 v -2.99111 h -2.98995 v -2.99 h -2.99116 v -2.99111 h -2.98995 v -2.99115 h -2.99111 v -2.98996 h -2.99115 -2.98996 v -2.99115 h -2.99115 v -2.98996 h -2.98996 V 567.209 h -2.99115 v -2.99111 h -2.99116 v -2.98995 h -2.98995 v -2.99116 h -2.99111 v -2.98995 h -2.98995 v -2.99116 h -2.99116 v -2.99115 h -2.99115 v -2.98996 h -2.98996 v -2.99115 h -2.99115 v -2.99111 h -2.98996 v -2.98995 h -2.99115 v -2.99116 h -2.99111 v -2.98995 h -2.98995 v -2.99116 h -2.99116 v -2.99115 h -2.99115 v -2.98996 h -2.98996 v -2.99115 h -2.99115 v -2.98996 h 2.99115 2.98996 2.99115 2.99116 v -2.9911 h 2.98995 2.99111 2.99115 v -2.99116 h 2.98996 2.99115 2.98996 2.99115 v -2.98995 h 2.99116 2.98995 2.99111 z"
           inkscape:label="dropshadow" />
        <path
           style="display:inline;opacity:0.2;fill:#000000;fill-opacity:1;stroke-width:1.06707;stroke-linecap:round;stroke-linejoin:round;stroke-miterlimit:5"
           d="M 657.72277,359.39942 523.00534,510.05526 656.9638,638.32144 790.92227,511.19372 Z"
           id="path18"
           inkscape:label="shade10"
           transform="translate(-1.7026903e-6)" />
        <path
           style="display:inline;opacity:0.25;fill:#000000;fill-opacity:1;stroke-width:1.06707;stroke-linecap:round;stroke-linejoin:round;stroke-miterlimit:5"
           d="M 527.55917,505.12194 649.37409,368.88657 592.45123,490.70149 Z"
           id="path9222"
           inkscape:label="shade25" />
        <path
           style="opacity:0.33;fill:#000000;stroke-width:1.06707;stroke-linecap:round;stroke-linejoin:round;stroke-miterlimit:5"
           d="m 524.90277,511.95269 66.41,-20.11275 64.51258,25.80504 0.75897,119.538 z"
           id="path9219"
           inkscape:label="shade33" />
        <path
           style="opacity:0.5;fill:#000000;stroke-width:1.784;stroke-linecap:round;stroke-linejoin:round;stroke-miterlimit:5"
           d="M 148.46097,242.35936 254.41388,29.819083 365.44238,238.55266 255.68278,288.03965 Z"
           id="path9217"
           inkscape:label="shade50"
           transform="matrix(0.59813474,0,0,0.59813474,504.41054,346.49691)" />
        <path
           style="opacity:0.66;fill:#000000;stroke-width:1.06707;stroke-linecap:round;stroke-linejoin:round;stroke-miterlimit:5"
           d="m 656.58432,518.78343 65.27154,-26.94349 64.89207,17.07686 -126.36876,126.74824 z"
           id="path9220"
           inkscape:label="shade66" />
        <path
           style="opacity:0.75;fill:#000000;stroke-width:1.06707;stroke-linecap:round;stroke-linejoin:round;stroke-miterlimit:5"
           d="m 663.79455,369.26605 58.4408,118.77904 62.99464,20.87171 -68.30744,-83.48686 z"
           id="path9218"
           inkscape:label="shade75" />
      </g>
      <path
         id="path2"
         style="fill:#000000;fill-opacity:1;stroke-width:5.00001"
         d="m 653.0469,356.06707 v 2.99116 h -2.9911 v 2.98995 h -2.98996 v 2.99111 h -2.99115 v 2.99 2.99111 h -2.98996 v 2.99115 h -2.99115 v 2.98996 h -2.99116 v 2.99115 h -2.98995 v 2.98996 h -2.99116 v 2.99115 h -2.98995 v 2.99111 h -2.99111 v 2.99 h -2.99115 v 2.99111 h -2.98996 v 2.99115 2.98996 h -2.99115 v 2.99115 h -2.99116 v 2.98996 h -2.98995 v 2.99115 h -2.99116 v 2.99111 h -2.98995 v 2.98995 h -2.99111 v 2.99116 h -2.99115 v 2.98995 h -2.98996 v 2.99116 h -2.99115 v 2.99115 2.98996 h -2.98996 v 2.99115 h -2.99115 v 2.98996 h -2.99116 v 2.9911 h -2.98995 v 2.99116 h -2.99111 v 2.98995 h -2.98995 v 2.99116 h -2.99116 v 2.98995 h -2.99115 v 2.99116 h -2.98996 v 2.99115 2.98996 h -2.99115 v 2.9911 h -2.98996 v 2.99116 h -2.99115 v 2.98995 h -2.99111 v 2.99116 h -2.98995 v 2.98995 h -2.99116 v 2.99116 h -2.99115 v 2.99115 h -2.98996 v 2.98996 h -2.99115 v 2.9911 2.98996 h -2.98996 v 2.99115 H 530.429 v 2.99116 h -2.99111 v 2.98995 h -2.98995 v 2.99116 h -2.99116 v 2.98995 h -2.98995 v 2.99116 h -2.99115 v 2.9911 h 2.99115 v 2.98996 h 2.98995 v 2.99115 h 2.99116 v 2.98996 h 2.98995 v 2.99115 h 2.99111 v 2.99116 h 2.99115 v 2.98995 h 2.98996 v 2.99116 h 2.99115 v 2.98995 h 2.98996 v 2.99111 h 2.99115 v 2.99115 h 2.99116 v 2.98996 h 2.98995 v 2.99115 h 2.99111 v 2.99116 h 2.99115 v 2.98995 h 2.98996 v 2.99116 h 2.99115 v 2.98995 h 2.98996 2.99115 v 2.99111 h 2.99116 v 2.99115 h 2.98995 v 2.98996 h 2.99111 v 2.99115 h 2.98995 v 2.98996 h 2.99116 v 2.99115 h 2.99115 v 2.99111 h 2.98996 v 2.99 h 2.99115 v 2.99111 h 2.98996 v 2.98995 h 2.99115 v 2.99116 h 2.99111 v 2.99115 h 2.98995 v 2.98996 h 2.99116 v 2.99115 h 2.98995 v 2.98996 h 2.99116 v 2.99115 h 2.99115 v 2.99111 h 2.98996 v 2.98995 h 2.99115 v 2.99116 h 2.99111 2.98995 v 2.99115 h 2.99116 v 2.98996 h 2.98995 v 2.99115 h 2.99116 v 2.98996 h 2.99115 v 2.9911 h 2.98996 v 2.99116 h 2.99115 v 2.98995 h 2.98996 v 2.99115 h 2.9911 v 2.98996 h 2.99116 2.98995 2.99116 v -2.98996 h 2.98995 v -2.99115 h 2.99116 v -2.98995 h 2.9911 v -2.99116 h 2.99001 v -2.9911 h 2.9911 v -2.98996 h 2.98996 v -2.99115 h 2.99115 v -2.98996 h 2.99116 v -2.99115 h 2.98995 2.99116 v -2.99116 h 2.98995 v -2.98995 h 2.99116 v -2.99111 h 2.9911 v -2.99115 h 2.98996 v -2.98996 h 2.99115 v -2.99115 h 2.99116 v -2.98996 h 2.98995 v -2.99115 h 2.99116 v -2.99116 h 2.98995 v -2.98995 h 2.99116 v -2.99111 h 2.9911 v -2.99 h 2.98996 v -2.99111 h 2.99115 v -2.99115 h 2.98996 v -2.98996 h 2.99115 v -2.99115 h 2.99116 v -2.98996 h 2.98995 v -2.99115 h 2.99111 v -2.99111 h 2.99 2.99111 v -2.98995 h 2.99115 v -2.99116 h 2.98996 v -2.98995 h 2.99115 v -2.99116 h 2.98996 v -2.99115 h 2.99115 v -2.98996 h 2.99111 v -2.99115 h 2.99 v -2.99111 h 2.99111 v -2.98995 h 2.99115 v -2.99116 h 2.98996 v -2.98995 h 2.99115 V 523.545 h 2.98996 v -2.99115 h 2.99115 v -2.98996 h 2.99111 v -2.99115 h 2.98995 v -2.98996 h 2.99116 v -2.9911 h -2.99116 v -2.99116 h -2.98995 v -2.98995 h -2.99111 v -2.99116 h -2.99115 v -2.98995 h -2.98996 v -2.99116 h -2.99115 v -2.99115 h -2.98996 v -2.98996 -2.9911 h -2.99115 v -2.98996 h -2.99111 v -2.99115 h -2.99 v -2.99116 h -2.99111 v -2.98995 h -2.99115 v -2.99116 h -2.98996 v -2.98995 h -2.99115 v -2.99116 h -2.98996 v -2.9911 h -2.99115 v -2.98996 -2.99115 h -2.99111 v -2.99116 h -2.99 v -2.98995 H 742.767 v -2.99116 h -2.98995 v -2.98995 h -2.99116 v -2.99116 h -2.99115 v -2.9911 h -2.98996 v -2.98996 h -2.99115 v -2.99115 h -2.98996 v -2.98996 -2.99115 h -2.9911 v -2.99116 h -2.99116 v -2.98995 h -2.98995 v -2.99116 h -2.99116 v -2.98995 h -2.98995 v -2.99111 h -2.99116 v -2.99115 h -2.99115 v -2.98996 h -2.98996 v -2.99115 h -2.9911 v -2.98996 -2.99115 h -2.99116 v -2.99111 h -2.98995 v -2.99 h -2.99116 v -2.99111 h -2.98995 v -2.99115 h -2.99116 v -2.98996 h -2.99115 v -2.99115 h -2.98996 v -2.98996 h -2.9911 v -2.99115 h -2.99001 v -2.99111 -2.99 h -2.9911 v -2.99111 h -2.99116 v -2.98995 h -2.98995 v -2.99116 h -2.99116 -2.98995 z m 2.99116,20.93444 h 2.98995 v 2.99115 h 2.99116 v 2.98996 2.99115 h 2.98995 v 2.99111 2.99 h 2.99116 v 2.99111 2.99115 h 2.9911 v 2.98996 2.99115 h 2.99001 v 2.98996 2.99115 h 2.9911 v 2.99111 2.98995 h 2.98996 v 2.99116 2.98995 h 2.99115 v 2.99116 2.99115 h 2.99116 v 2.98996 2.99115 h 2.98995 v 2.98996 h 2.99116 v 2.9911 2.99116 h 2.98995 v 2.98995 2.99116 h 2.99116 v 2.98995 2.99116 h 2.9911 v 2.99115 2.98996 h 2.98996 v 2.9911 2.99116 h 2.99115 v 2.98995 2.99116 h 2.99116 v 2.98995 2.99116 h 2.98995 v 2.99115 2.98996 h 2.99116 v 2.9911 h -2.99116 v 2.98996 h -2.98995 -2.99116 v 2.99115 h -2.99115 -2.98996 v 2.99116 h -2.9911 -2.99116 -2.98995 v 2.98995 h -2.99116 -2.98995 v 2.99116 h -2.99116 -2.99115 -2.98996 v 2.98995 h -2.9911 -2.99001 v 2.99116 h -2.9911 -2.99116 v 2.9911 h -2.98995 -2.99116 -2.98995 -2.99116 -2.9911 v -2.9911 h -2.98996 -2.99115 v -2.99116 h -2.98996 -2.99115 -2.99116 v -2.98995 h -2.98995 -2.99116 v -2.99116 h -2.98995 -2.99111 v -2.98995 h -2.99115 -2.98996 -2.99115 v -2.99116 h -2.99116 -2.98995 v -2.99115 h -2.99116 -2.98995 v -2.98996 h -2.99111 v -2.9911 h 2.99111 v -2.98996 -2.99115 h 2.98995 v -2.99116 -2.98995 h 2.99116 v -2.99116 -2.98995 h 2.98995 v -2.99116 -2.9911 h 2.99116 v -2.98996 -2.99115 h 2.99115 v -2.99116 -2.98995 h 2.98996 v -2.99116 h 2.99115 v -2.98995 -2.99116 h 2.99111 v -2.9911 -2.98996 h 2.98995 v -2.99115 -2.98996 h 2.99116 v -2.99115 -2.99116 h 2.98995 v -2.98995 -2.99116 h 2.99116 v -2.98995 -2.99111 h 2.99115 v -2.99115 -2.98996 h 2.98996 v -2.99115 -2.98996 h 2.99115 v -2.99115 -2.99111 h 2.98996 v -2.99 -2.99111 h 2.9911 v -2.99115 -2.98996 h 2.99116 z m -29.9067,26.91674 h 2.98995 v 2.98996 h -2.98995 v 2.99115 2.99111 h -2.99111 v 2.98995 2.99116 h -2.99115 v 2.98995 2.99116 h -2.98996 v 2.99115 2.98996 h -2.99115 v 2.99115 2.98996 h -2.99116 v 2.9911 2.99116 h -2.98995 v 2.98995 2.99116 h -2.99116 v 2.98995 2.99116 h -2.98995 v 2.99115 h -2.99111 v 2.98996 2.9911 h -2.99115 v 2.99116 2.98995 h -2.98996 v 2.99116 2.98995 h -2.99115 v 2.99116 2.99115 h -2.98996 v 2.98996 h -2.99115 v 2.9911 h -2.99116 -2.98995 v 2.98996 h -2.99111 -2.98995 -2.99116 v 2.99115 h -2.99115 -2.98996 -2.99115 -2.98996 v 2.99116 h -2.99115 -2.99111 -2.98995 -2.99116 v -2.99116 h 2.99116 v -2.99115 h 2.98995 v -2.98996 h 2.99111 v -2.9911 h 2.99115 v -2.98996 h 2.98996 v -2.99115 h 2.99115 v -2.99116 -2.98995 h 2.98996 v -2.99116 h 2.99115 v -2.98995 h 2.99116 v -2.99116 h 2.98995 v -2.9911 h 2.99111 v -2.98996 h 2.98995 v -2.99115 h 2.99116 v -2.99116 h 2.99115 v -2.98995 h 2.98996 v -2.99116 -2.98995 h 2.99115 v -2.99116 h 2.98996 v -2.9911 h 2.99115 v -2.98996 h 2.99111 v -2.99115 h 2.98995 v -2.98996 h 2.99116 v -2.99115 h 2.98995 v -2.99116 h 2.99116 v -2.98995 h 2.99115 v -2.99116 -2.98995 h 2.98996 v -2.99111 h 2.99115 v -2.99115 h 2.99111 z m 59.8134,0 h 2.98995 v 2.98996 h 2.99116 v 2.99115 h 2.98995 v 2.99111 h 2.99116 v 2.98995 h 2.9911 v 2.99116 2.98995 h 2.98996 v 2.99116 h 2.99115 v 2.99115 h 2.99116 v 2.98996 h 2.98995 v 2.99115 h 2.99116 v 2.98996 h 2.98995 v 2.9911 h 2.99116 v 2.99116 h 2.9911 v 2.98995 h 2.98996 v 2.99116 2.98995 h 2.99115 v 2.99116 h 2.98996 v 2.99115 h 2.99115 v 2.98996 h 2.99116 v 2.9911 h 2.98995 v 2.99116 h 2.99111 v 2.98995 h 2.99 v 2.99116 h 2.99111 v 2.98995 h 2.99115 v 2.99116 2.99115 h 2.98996 v 2.98996 h 2.99115 v 2.9911 h 2.98996 v 2.98996 h 2.99115 v 2.99115 h 2.99111 v 2.99116 2.98995 h -2.99111 v -2.98995 h -2.99115 -2.98996 -2.99115 v -2.99116 h -2.98996 -2.99115 -2.99111 v -2.99115 h -2.99 -2.99111 -2.98995 -2.99116 v -2.98996 h -2.99115 -2.98996 v -2.9911 h -2.99115 v -2.98996 h -2.98996 v -2.99115 -2.99116 h -2.9911 v -2.98995 -2.99116 h -2.99116 v -2.98995 -2.99116 h -2.98995 v -2.9911 -2.98996 h -2.99116 v -2.99115 h -2.98995 v -2.99116 -2.98995 h -2.99116 v -2.99116 -2.98995 h -2.99115 v -2.99116 -2.9911 h -2.98996 v -2.98996 -2.99115 h -2.9911 v -2.98996 -2.99115 h -2.99116 v -2.99116 -2.98995 h -2.98995 v -2.99116 -2.98995 h -2.99116 v -2.99111 -2.99115 h -2.98995 z m 38.87891,92.71121 h 2.98996 v 2.98995 h 2.99115 2.98996 2.99115 v 2.99116 h 2.99116 2.98995 2.99111 2.99 v 2.98995 h 2.99111 2.99115 2.98996 v 2.99116 h 2.99115 2.98996 2.99115 2.99111 v 2.9911 h 2.99 2.99111 2.99115 v 2.98996 2.99115 h -2.99115 v 2.98996 h -2.99111 -2.99 v 2.99115 h -2.99111 v 2.99116 h -2.99115 v 2.98995 h -2.98996 v 2.99116 h -2.99115 v 2.98995 h -2.98996 v 2.99111 h -2.99115 v 2.99115 h -2.99111 v 2.98996 h -2.99 v 2.99115 H 742.767 v 2.99116 h -2.98995 v 2.98995 h -2.99116 v 2.99116 h -2.99115 v 2.98995 h -2.98996 v 2.99111 h -2.99115 v 2.99115 h -2.98996 v 2.98996 h -2.9911 v 2.99115 h -2.99116 v 2.98996 h -2.98995 -2.99116 v 2.99115 h -2.98995 v 2.99111 h -2.99116 v 2.99 h -2.99115 v 2.99111 h -2.98996 v 2.98995 h -2.9911 v 2.99116 h -2.99116 v 2.99115 h -2.98995 v 2.98996 h -2.99116 v 2.99115 h -2.98995 v 2.98996 h -2.99116 v 2.99115 h -2.99115 v 2.99111 h -2.98996 v 2.98995 h -2.9911 v 2.99116 h -2.99001 v 2.99115 h -2.9911 -2.99116 v 2.98996 h -2.98995 v -2.98996 -2.99115 -2.99116 -2.98995 -2.99111 -2.99115 -2.98996 -2.99115 -2.98996 -2.99115 -2.99116 -2.98995 -2.99111 -2.99 -2.99111 -2.99115 -2.98996 -2.99115 -2.98996 -2.99115 -2.99111 -2.98995 -2.99116 -2.98995 -2.99116 -2.99115 -2.98996 -2.99115 -2.99111 -2.98995 -2.99116 -2.98995 -2.99116 h 2.98995 v -2.99115 h 2.99116 2.9911 v -2.98996 h 2.99001 2.9911 2.98996 v -2.99115 h 2.99115 2.99116 v -2.98996 h 2.98995 2.99116 2.98995 v -2.9911 h 2.99116 2.9911 v -2.99116 h 2.98996 2.99115 2.99116 v -2.98995 h 2.98995 2.99116 v -2.99116 h 2.98995 2.99116 2.9911 z m -146.54349,2.98995 h 2.98995 2.99116 2.99115 2.98996 2.99115 2.98996 2.99115 v 2.99116 h 2.99111 2.98995 v 2.98995 h 2.99116 2.98995 2.99116 v 2.99116 h 2.99115 2.98996 v 2.9911 h 2.99115 2.99111 2.98995 v 2.98996 h 2.99116 2.98995 v 2.99115 h 2.99116 2.99115 v 2.98996 h 2.98996 2.99115 2.98996 v 2.99115 h 2.9911 v 2.99116 2.98995 2.99116 2.98995 2.99111 2.99115 2.98996 2.99115 2.99116 2.98995 2.99116 2.98995 2.99111 2.99115 2.98996 2.99115 2.98996 2.99115 2.99111 2.99 2.99111 2.98995 2.99116 2.99115 2.98996 2.99115 2.98996 2.99115 2.99111 2.98995 2.99116 2.99115 2.98996 h -2.9911 -2.98996 v -2.98996 h -2.99115 v -2.99115 h -2.98996 v -2.99116 h -2.99115 v -2.98995 h -2.99116 v -2.99111 h -2.98995 v -2.99115 h -2.99116 v -2.98996 h -2.98995 v -2.99115 h -2.99111 v -2.98996 h -2.99115 v -2.99115 h -2.98996 v -2.99116 h -2.99115 v -2.98995 h -2.99116 v -2.99111 h -2.98995 v -2.99 h -2.99116 v -2.99111 h -2.98995 v -2.99115 h -2.99111 v -2.98996 h -2.99115 -2.98996 v -2.99115 h -2.99115 v -2.98996 h -2.98996 v -2.99115 h -2.99115 v -2.99111 h -2.99116 v -2.98995 h -2.98995 v -2.99116 h -2.99111 v -2.98995 h -2.98995 v -2.99116 h -2.99116 v -2.99115 h -2.99115 v -2.98996 h -2.98996 v -2.99115 h -2.99115 v -2.99111 h -2.98996 v -2.98995 h -2.99115 v -2.99116 h -2.99111 v -2.98995 h -2.98995 V 523.545 h -2.99116 v -2.99115 h -2.99115 v -2.98996 h -2.98996 v -2.99115 h -2.99115 v -2.98996 h 2.99115 2.98996 2.99115 2.99116 v -2.9911 h 2.98995 2.99111 2.99115 v -2.99116 h 2.98996 2.99115 2.98996 2.99115 v -2.98995 h 2.99116 2.98995 2.99111 z"
         inkscape:label="edges" />
    </g>
    <g
       transform="matrix(1.2333423,0,0,1.2333423,-617.25859,-423.1526)"
       id="g17"
       inkscape:label="front die"
       style="display:inline">
      <path
         style="display:inline;fill:#2b2b45;stroke-width:1.06707;stroke-linecap:round;stroke-linejoin:round;stroke-miterlimit:5"
         d="M 657.72277,359.39942 523.00534,510.05526 656.9638,638.32144 790.92227,511.19372 Z"
         id="path10"
         inkscape:label="background" />
      <g
         id="g16"
         inkscape:label="shading">
        <path
           id="path11"
           style="opacity:0.5;fill:#000000;fill-opacity:1;stroke-width:5.00001"
           d="m 657.83174,360.85215 v 2.99116 h -2.9911 v 2.98995 h -2.98996 v 2.99111 h -2.99115 v 2.99 2.99111 h -2.98996 v 2.99115 h -2.99115 v 2.98996 h -2.99116 v 2.99115 h -2.98995 v 2.98996 h -2.99116 v 2.99115 h -2.98995 v 2.99111 h -2.99111 v 2.99 h -2.99115 v 2.99111 h -2.98996 v 2.99115 2.98996 h -2.99115 v 2.99115 h -2.99116 v 2.98996 h -2.98995 v 2.99115 h -2.99116 v 2.99111 h -2.98995 v 2.98995 h -2.99111 v 2.99116 h -2.99115 v 2.98995 h -2.98996 v 2.99116 h -2.99115 v 2.99115 2.98996 h -2.98996 v 2.99115 h -2.99115 v 2.98996 h -2.99116 v 2.9911 h -2.98995 v 2.99116 h -2.99111 v 2.98995 h -2.98995 v 2.99116 h -2.99116 v 2.98995 h -2.99115 v 2.99116 h -2.98996 v 2.99115 2.98996 h -2.99115 v 2.9911 h -2.98996 v 2.99116 h -2.99115 v 2.98995 h -2.99111 v 2.99116 h -2.98995 v 2.98995 h -2.99116 v 2.99116 h -2.99115 v 2.99115 h -2.98996 v 2.98996 h -2.99115 v 2.9911 2.98996 h -2.98996 v 2.99115 h -2.99115 v 2.99116 h -2.99111 v 2.98995 h -2.98995 v 2.99116 h -2.99116 v 2.98995 h -2.98995 v 2.99116 h -2.99115 v 2.9911 h 2.99115 v 2.98996 h 2.98995 v 2.99115 h 2.99116 v 2.98996 h 2.98995 v 2.99115 h 2.99111 v 2.99116 h 2.99115 v 2.98995 h 2.98996 v 2.99116 h 2.99115 v 2.98995 h 2.98996 v 2.99111 h 2.99115 v 2.99115 h 2.99116 v 2.98996 h 2.98995 v 2.99115 h 2.99111 v 2.99116 h 2.99115 v 2.98995 h 2.98996 v 2.99116 h 2.99115 v 2.98995 h 2.98996 2.99115 v 2.99111 h 2.99116 v 2.99115 h 2.98995 v 2.98996 h 2.99111 v 2.99115 h 2.98995 v 2.98996 h 2.99116 v 2.99115 h 2.99115 v 2.99111 h 2.98996 v 2.99 h 2.99115 v 2.99111 h 2.98996 v 2.98995 h 2.99115 v 2.99116 h 2.99111 v 2.99115 h 2.98995 v 2.98996 h 2.99116 v 2.99115 h 2.98995 v 2.98996 h 2.99116 v 2.99115 h 2.99115 v 2.99111 h 2.98996 v 2.98995 h 2.99115 v 2.99116 h 2.99111 2.98995 v 2.99115 h 2.99116 v 2.98996 h 2.98995 v 2.99115 h 2.99116 v 2.98996 h 2.99115 v 2.9911 h 2.98996 v 2.99116 h 2.99115 v 2.98995 h 2.98996 v 2.99115 h 2.9911 v 2.98996 h 2.99116 2.98995 2.99116 v -2.98996 h 2.98995 v -2.99115 h 2.99116 v -2.98995 h 2.9911 v -2.99116 h 2.99001 v -2.9911 h 2.9911 v -2.98996 h 2.98996 v -2.99115 h 2.99115 v -2.98996 h 2.99116 v -2.99115 h 2.98995 2.99116 v -2.99116 h 2.98995 v -2.98995 h 2.99116 v -2.99111 h 2.9911 v -2.99115 h 2.98996 v -2.98996 h 2.99115 v -2.99115 h 2.99116 v -2.98996 h 2.98995 v -2.99115 h 2.99116 v -2.99116 h 2.98995 v -2.98995 h 2.99116 v -2.99111 h 2.9911 v -2.99 h 2.98996 v -2.99111 h 2.99115 v -2.99115 h 2.98996 v -2.98996 h 2.99115 v -2.99115 h 2.99116 v -2.98996 h 2.98995 V 567.209 h 2.99111 v -2.99111 h 2.99 2.99111 v -2.98995 h 2.99115 v -2.99116 h 2.98996 v -2.98995 h 2.99115 v -2.99116 h 2.98996 v -2.99115 h 2.99115 v -2.98996 h 2.99111 v -2.99115 h 2.99 v -2.99111 h 2.99111 v -2.98995 h 2.99115 v -2.99116 h 2.98996 v -2.98995 h 2.99115 v -2.99116 h 2.98996 v -2.99115 h 2.99115 v -2.98996 h 2.99111 v -2.99115 h 2.98995 v -2.98996 h 2.99116 v -2.9911 h -2.99116 v -2.99116 h -2.98995 v -2.98995 h -2.99111 v -2.99116 h -2.99115 v -2.98995 h -2.98996 v -2.99116 h -2.99115 v -2.99115 h -2.98996 v -2.98996 -2.9911 h -2.99115 v -2.98996 h -2.99111 v -2.99115 h -2.99 v -2.99116 h -2.99111 v -2.98995 h -2.99115 v -2.99116 h -2.98996 v -2.98995 h -2.99115 v -2.99116 h -2.98996 v -2.9911 h -2.99115 v -2.98996 -2.99115 h -2.99111 v -2.99116 h -2.99 v -2.98995 h -2.99111 v -2.99116 h -2.98995 v -2.98995 h -2.99116 v -2.99116 h -2.99115 v -2.9911 h -2.98996 v -2.98996 h -2.99115 v -2.99115 h -2.98996 v -2.98996 -2.99115 h -2.9911 v -2.99116 h -2.99116 v -2.98995 h -2.98995 v -2.99116 h -2.99116 v -2.98995 h -2.98995 v -2.99111 h -2.99116 v -2.99115 h -2.99115 v -2.98996 h -2.98996 v -2.99115 h -2.9911 v -2.98996 -2.99115 h -2.99116 v -2.99111 h -2.98995 v -2.99 h -2.99116 v -2.99111 h -2.98995 v -2.99115 h -2.99116 v -2.98996 h -2.99115 v -2.99115 h -2.98996 v -2.98996 h -2.9911 v -2.99115 h -2.99001 v -2.99111 -2.99 h -2.9911 v -2.99111 h -2.99116 v -2.98995 h -2.98995 v -2.99116 h -2.99116 -2.98995 z m 2.99116,20.93444 h 2.98995 v 2.99115 h 2.99116 v 2.98996 2.99115 h 2.98995 v 2.99111 2.99 h 2.99116 v 2.99111 2.99115 h 2.9911 v 2.98996 2.99115 h 2.99001 v 2.98996 2.99115 h 2.9911 v 2.99111 2.98995 h 2.98996 v 2.99116 2.98995 h 2.99115 v 2.99116 2.99115 h 2.99116 v 2.98996 2.99115 h 2.98995 v 2.98996 h 2.99116 v 2.9911 2.99116 h 2.98995 v 2.98995 2.99116 h 2.99116 v 2.98995 2.99116 h 2.9911 v 2.99115 2.98996 h 2.98996 v 2.9911 2.99116 h 2.99115 v 2.98995 2.99116 h 2.99116 v 2.98995 2.99116 h 2.98995 v 2.99115 2.98996 h 2.99116 v 2.9911 h -2.99116 v 2.98996 h -2.98995 -2.99116 v 2.99115 h -2.99115 -2.98996 v 2.99116 h -2.9911 -2.99116 -2.98995 v 2.98995 h -2.99116 -2.98995 v 2.99116 h -2.99116 -2.99115 -2.98996 v 2.98995 h -2.9911 -2.99001 v 2.99116 h -2.9911 -2.99116 v 2.9911 h -2.98995 -2.99116 -2.98995 -2.99116 -2.9911 v -2.9911 h -2.98996 -2.99115 v -2.99116 h -2.98996 -2.99115 -2.99116 v -2.98995 h -2.98995 -2.99116 v -2.99116 h -2.98995 -2.99111 v -2.98995 h -2.99115 -2.98996 -2.99115 v -2.99116 h -2.99116 -2.98995 v -2.99115 h -2.99116 -2.98995 v -2.98996 h -2.99111 v -2.9911 h 2.99111 v -2.98996 -2.99115 h 2.98995 v -2.99116 -2.98995 h 2.99116 v -2.99116 -2.98995 h 2.98995 v -2.99116 -2.9911 h 2.99116 v -2.98996 -2.99115 h 2.99115 v -2.99116 -2.98995 h 2.98996 v -2.99116 h 2.99115 v -2.98995 -2.99116 h 2.99111 v -2.9911 -2.98996 h 2.98995 v -2.99115 -2.98996 h 2.99116 v -2.99115 -2.99116 h 2.98995 v -2.98995 -2.99116 h 2.99116 v -2.98995 -2.99111 h 2.99115 v -2.99115 -2.98996 h 2.98996 v -2.99115 -2.98996 h 2.99115 v -2.99115 -2.99111 h 2.98996 v -2.99 -2.99111 h 2.9911 v -2.99115 -2.98996 h 2.99116 z m -29.9067,26.91674 h 2.98995 v 2.98996 h -2.98995 v 2.99115 2.99111 h -2.99111 v 2.98995 2.99116 h -2.99115 v 2.98995 2.99116 h -2.98996 v 2.99115 2.98996 h -2.99115 v 2.99115 2.98996 h -2.99116 v 2.9911 2.99116 h -2.98995 v 2.98995 2.99116 h -2.99116 v 2.98995 2.99116 h -2.98995 v 2.99115 h -2.99111 v 2.98996 2.9911 h -2.99115 v 2.99116 2.98995 h -2.98996 v 2.99116 2.98995 h -2.99115 v 2.99116 2.99115 h -2.98996 v 2.98996 h -2.99115 v 2.9911 h -2.99116 -2.98995 v 2.98996 h -2.99111 -2.98995 -2.99116 v 2.99115 h -2.99115 -2.98996 -2.99115 -2.98996 v 2.99116 h -2.99115 -2.99111 -2.98995 -2.99116 v -2.99116 h 2.99116 v -2.99115 h 2.98995 v -2.98996 h 2.99111 v -2.9911 h 2.99115 v -2.98996 h 2.98996 v -2.99115 h 2.99115 v -2.99116 -2.98995 h 2.98996 v -2.99116 h 2.99115 v -2.98995 h 2.99116 v -2.99116 h 2.98995 v -2.9911 h 2.99111 v -2.98996 h 2.98995 v -2.99115 h 2.99116 v -2.99116 h 2.99115 v -2.98995 h 2.98996 v -2.99116 -2.98995 h 2.99115 v -2.99116 h 2.98996 v -2.9911 h 2.99115 v -2.98996 h 2.99111 v -2.99115 h 2.98995 v -2.98996 h 2.99116 v -2.99115 h 2.98995 v -2.99116 h 2.99116 v -2.98995 h 2.99115 v -2.99116 -2.98995 h 2.98996 v -2.99111 h 2.99115 v -2.99115 h 2.99111 z m 59.8134,0 h 2.98995 v 2.98996 h 2.99116 v 2.99115 h 2.98995 v 2.99111 h 2.99116 v 2.98995 h 2.9911 v 2.99116 2.98995 h 2.98996 v 2.99116 h 2.99115 v 2.99115 h 2.99116 v 2.98996 h 2.98995 v 2.99115 h 2.99116 v 2.98996 h 2.98995 v 2.9911 h 2.99116 v 2.99116 h 2.9911 v 2.98995 h 2.98996 v 2.99116 2.98995 h 2.99115 v 2.99116 h 2.98996 v 2.99115 h 2.99115 v 2.98996 h 2.99116 v 2.9911 h 2.98995 v 2.99116 h 2.99111 v 2.98995 h 2.99 v 2.99116 h 2.99111 v 2.98995 h 2.99115 v 2.99116 2.99115 h 2.98996 v 2.98996 h 2.99115 v 2.9911 h 2.98996 v 2.98996 h 2.99115 v 2.99115 h 2.99111 v 2.99116 2.98995 h -2.99111 v -2.98995 h -2.99115 -2.98996 -2.99115 v -2.99116 h -2.98996 -2.99115 -2.99111 v -2.99115 h -2.99 -2.99111 -2.98995 -2.99116 v -2.98996 h -2.99115 -2.98996 v -2.9911 h -2.99115 v -2.98996 h -2.98996 v -2.99115 -2.99116 h -2.9911 v -2.98995 -2.99116 h -2.99116 v -2.98995 -2.99116 h -2.98995 v -2.9911 -2.98996 h -2.99116 v -2.99115 h -2.98995 v -2.99116 -2.98995 h -2.99116 v -2.99116 -2.98995 h -2.99115 v -2.99116 -2.9911 h -2.98996 v -2.98996 -2.99115 h -2.9911 v -2.98996 -2.99115 h -2.99116 v -2.99116 -2.98995 h -2.98995 v -2.99116 -2.98995 h -2.99116 v -2.99111 -2.99115 h -2.98995 z m 38.87891,92.71121 h 2.98996 v 2.98995 h 2.99115 2.98996 2.99115 v 2.99116 h 2.99116 2.98995 2.99111 2.99 v 2.98995 h 2.99111 2.99115 2.98996 v 2.99116 h 2.99115 2.98996 2.99115 2.99111 v 2.9911 h 2.99 2.99111 2.99115 v 2.98996 2.99115 h -2.99115 v 2.98996 h -2.99111 -2.99 v 2.99115 h -2.99111 v 2.99116 h -2.99115 v 2.98995 h -2.98996 v 2.99116 h -2.99115 v 2.98995 h -2.98996 v 2.99111 h -2.99115 v 2.99115 h -2.99111 v 2.98996 h -2.99 v 2.99115 h -2.99111 v 2.99116 h -2.98995 v 2.98995 h -2.99116 v 2.99116 h -2.99115 v 2.98995 h -2.98996 v 2.99111 h -2.99115 v 2.99115 h -2.98996 v 2.98996 h -2.9911 v 2.99115 h -2.99116 v 2.98996 h -2.98995 -2.99116 v 2.99115 h -2.98995 v 2.99111 h -2.99116 v 2.99 h -2.99115 v 2.99111 h -2.98996 v 2.98995 h -2.9911 v 2.99116 h -2.99116 v 2.99115 h -2.98995 v 2.98996 h -2.99116 v 2.99115 h -2.98995 v 2.98996 h -2.99116 v 2.99115 h -2.99115 v 2.99111 h -2.98996 v 2.98995 h -2.9911 v 2.99116 h -2.99001 v 2.99115 h -2.9911 -2.99116 v 2.98996 h -2.98995 v -2.98996 -2.99115 -2.99116 -2.98995 -2.99111 -2.99115 -2.98996 -2.99115 -2.98996 -2.99115 -2.99116 -2.98995 -2.99111 -2.99 -2.99111 -2.99115 -2.98996 -2.99115 -2.98996 -2.99115 -2.99111 -2.98995 -2.99116 -2.98995 -2.99116 -2.99115 -2.98996 -2.99115 -2.99111 -2.98995 -2.99116 -2.98995 -2.99116 h 2.98995 v -2.99115 h 2.99116 2.9911 v -2.98996 h 2.99001 2.9911 2.98996 v -2.99115 h 2.99115 2.99116 v -2.98996 h 2.98995 2.99116 2.98995 v -2.9911 h 2.99116 2.9911 v -2.99116 h 2.98996 2.99115 2.99116 v -2.98995 h 2.98995 2.99116 v -2.99116 h 2.98995 2.99116 2.9911 z m -146.54349,2.98995 h 2.98995 2.99116 2.99115 2.98996 2.99115 2.98996 2.99115 v 2.99116 h 2.99111 2.98995 v 2.98995 h 2.99116 2.98995 2.99116 v 2.99116 h 2.99115 2.98996 v 2.9911 h 2.99115 2.99111 2.98995 v 2.98996 h 2.99116 2.98995 v 2.99115 h 2.99116 2.99115 v 2.98996 h 2.98996 2.99115 2.98996 v 2.99115 h 2.9911 v 2.99116 2.98995 2.99116 2.98995 2.99111 2.99115 2.98996 2.99115 2.99116 2.98995 2.99116 2.98995 2.99111 2.99115 2.98996 2.99115 2.98996 2.99115 2.99111 2.99 2.99111 2.98995 2.99116 2.99115 2.98996 2.99115 2.98996 2.99115 2.99111 2.98995 2.99116 2.99115 2.98996 h -2.9911 -2.98996 v -2.98996 h -2.99115 v -2.99115 h -2.98996 v -2.99116 h -2.99115 v -2.98995 h -2.99116 v -2.99111 h -2.98995 v -2.99115 h -2.99116 v -2.98996 h -2.98995 v -2.99115 h -2.99111 v -2.98996 h -2.99115 v -2.99115 h -2.98996 v -2.99116 h -2.99115 v -2.98995 h -2.99116 v -2.99111 h -2.98995 v -2.99 h -2.99116 v -2.99111 h -2.98995 v -2.99115 h -2.99111 v -2.98996 h -2.99115 -2.98996 v -2.99115 h -2.99115 v -2.98996 h -2.98996 V 567.209 h -2.99115 v -2.99111 h -2.99116 v -2.98995 h -2.98995 v -2.99116 h -2.99111 v -2.98995 h -2.98995 v -2.99116 h -2.99116 v -2.99115 h -2.99115 v -2.98996 h -2.98996 v -2.99115 h -2.99115 v -2.99111 h -2.98996 v -2.98995 h -2.99115 v -2.99116 h -2.99111 v -2.98995 h -2.98995 v -2.99116 h -2.99116 v -2.99115 h -2.99115 v -2.98996 h -2.98996 v -2.99115 h -2.99115 v -2.98996 h 2.99115 2.98996 2.99115 2.99116 v -2.9911 h 2.98995 2.99111 2.99115 v -2.99116 h 2.98996 2.99115 2.98996 2.99115 v -2.98995 h 2.99116 2.98995 2.99111 z"
           inkscape:label="dropshadow" />
        <path
           style="display:inline;opacity:0.25;fill:#000000;fill-opacity:1;stroke-width:1.06707;stroke-linecap:round;stroke-linejoin:round;stroke-miterlimit:5"
           d="M 527.55917,505.12194 649.37409,368.88657 592.45123,490.70149 Z"
           id="path12"
           inkscape:label="shade25" />
        <path
           style="opacity:0.33;fill:#000000;stroke-width:1.06707;stroke-linecap:round;stroke-linejoin:round;stroke-miterlimit:5"
           d="m 524.90277,511.95269 66.41,-20.11275 64.51258,25.80504 0.75897,119.538 z"
           id="path13"
           inkscape:label="shade33" />
        <path
           style="opacity:0.5;fill:#000000;stroke-width:1.784;stroke-linecap:round;stroke-linejoin:round;stroke-miterlimit:5"
           d="M 148.46097,242.35936 254.41388,29.819083 365.44238,238.55266 255.68278,288.03965 Z"
           id="path14"
           inkscape:label="shade50"
           transform="matrix(0.59813474,0,0,0.59813474,504.41054,346.49691)" />
        <path
           style="opacity:0.66;fill:#000000;stroke-width:1.06707;stroke-linecap:round;stroke-linejoin:round;stroke-miterlimit:5"
           d="m 656.58432,518.78343 65.27154,-26.94349 64.89207,17.07686 -126.36876,126.74824 z"
           id="path15"
           inkscape:label="shade66" />
        <path
           style="opacity:0.75;fill:#000000;stroke-width:1.06707;stroke-linecap:round;stroke-linejoin:round;stroke-miterlimit:5"
           d="m 663.79455,369.26605 58.4408,118.77904 62.99464,20.87171 -68.30744,-83.48686 z"
           id="path16"
           inkscape:label="shade75" />
      </g>
      <path
         id="path17"
         style="fill:#000000;fill-opacity:1;stroke-width:5.00001"
         d="m 653.0469,356.06707 v 2.99116 h -2.9911 v 2.98995 h -2.98996 v 2.99111 h -2.99115 v 2.99 2.99111 h -2.98996 v 2.99115 h -2.99115 v 2.98996 h -2.99116 v 2.99115 h -2.98995 v 2.98996 h -2.99116 v 2.99115 h -2.98995 v 2.99111 h -2.99111 v 2.99 h -2.99115 v 2.99111 h -2.98996 v 2.99115 2.98996 h -2.99115 v 2.99115 h -2.99116 v 2.98996 h -2.98995 v 2.99115 h -2.99116 v 2.99111 h -2.98995 v 2.98995 h -2.99111 v 2.99116 h -2.99115 v 2.98995 h -2.98996 v 2.99116 h -2.99115 v 2.99115 2.98996 h -2.98996 v 2.99115 h -2.99115 v 2.98996 h -2.99116 v 2.9911 h -2.98995 v 2.99116 h -2.99111 v 2.98995 h -2.98995 v 2.99116 h -2.99116 v 2.98995 h -2.99115 v 2.99116 h -2.98996 v 2.99115 2.98996 h -2.99115 v 2.9911 h -2.98996 v 2.99116 h -2.99115 v 2.98995 h -2.99111 v 2.99116 h -2.98995 v 2.98995 h -2.99116 v 2.99116 h -2.99115 v 2.99115 h -2.98996 v 2.98996 h -2.99115 v 2.9911 2.98996 h -2.98996 v 2.99115 H 530.429 v 2.99116 h -2.99111 v 2.98995 h -2.98995 v 2.99116 h -2.99116 v 2.98995 h -2.98995 v 2.99116 h -2.99115 v 2.9911 h 2.99115 v 2.98996 h 2.98995 v 2.99115 h 2.99116 v 2.98996 h 2.98995 v 2.99115 h 2.99111 v 2.99116 h 2.99115 v 2.98995 h 2.98996 v 2.99116 h 2.99115 v 2.98995 h 2.98996 v 2.99111 h 2.99115 v 2.99115 h 2.99116 v 2.98996 h 2.98995 v 2.99115 h 2.99111 v 2.99116 h 2.99115 v 2.98995 h 2.98996 v 2.99116 h 2.99115 v 2.98995 h 2.98996 2.99115 v 2.99111 h 2.99116 v 2.99115 h 2.98995 v 2.98996 h 2.99111 v 2.99115 h 2.98995 v 2.98996 h 2.99116 v 2.99115 h 2.99115 v 2.99111 h 2.98996 v 2.99 h 2.99115 v 2.99111 h 2.98996 v 2.98995 h 2.99115 v 2.99116 h 2.99111 v 2.99115 h 2.98995 v 2.98996 h 2.99116 v 2.99115 h 2.98995 v 2.98996 h 2.99116 v 2.99115 h 2.99115 v 2.99111 h 2.98996 v 2.98995 h 2.99115 v 2.99116 h 2.99111 2.98995 v 2.99115 h 2.99116 v 2.98996 h 2.98995 v 2.99115 h 2.99116 v 2.98996 h 2.99115 v 2.9911 h 2.98996 v 2.99116 h 2.99115 v 2.98995 h 2.98996 v 2.99115 h 2.9911 v 2.98996 h 2.99116 2.98995 2.99116 v -2.98996 h 2.98995 v -2.99115 h 2.99116 v -2.98995 h 2.9911 v -2.99116 h 2.99001 v -2.9911 h 2.9911 v -2.98996 h 2.98996 v -2.99115 h 2.99115 v -2.98996 h 2.99116 v -2.99115 h 2.98995 2.99116 v -2.99116 h 2.98995 v -2.98995 h 2.99116 v -2.99111 h 2.9911 v -2.99115 h 2.98996 v -2.98996 h 2.99115 v -2.99115 h 2.99116 v -2.98996 h 2.98995 v -2.99115 h 2.99116 v -2.99116 h 2.98995 v -2.98995 h 2.99116 v -2.99111 h 2.9911 v -2.99 h 2.98996 v -2.99111 h 2.99115 v -2.99115 h 2.98996 v -2.98996 h 2.99115 v -2.99115 h 2.99116 v -2.98996 h 2.98995 v -2.99115 h 2.99111 v -2.99111 h 2.99 2.99111 v -2.98995 h 2.99115 v -2.99116 h 2.98996 v -2.98995 h 2.99115 v -2.99116 h 2.98996 v -2.99115 h 2.99115 v -2.98996 h 2.99111 v -2.99115 h 2.99 v -2.99111 h 2.99111 v -2.98995 h 2.99115 v -2.99116 h 2.98996 v -2.98995 h 2.99115 V 523.545 h 2.98996 v -2.99115 h 2.99115 v -2.98996 h 2.99111 v -2.99115 h 2.98995 v -2.98996 h 2.99116 v -2.9911 h -2.99116 v -2.99116 h -2.98995 v -2.98995 h -2.99111 v -2.99116 h -2.99115 v -2.98995 h -2.98996 v -2.99116 h -2.99115 v -2.99115 h -2.98996 v -2.98996 -2.9911 h -2.99115 v -2.98996 h -2.99111 v -2.99115 h -2.99 v -2.99116 h -2.99111 v -2.98995 h -2.99115 v -2.99116 h -2.98996 v -2.98995 h -2.99115 v -2.99116 h -2.98996 v -2.9911 h -2.99115 v -2.98996 -2.99115 h -2.99111 v -2.99116 h -2.99 v -2.98995 H 742.767 v -2.99116 h -2.98995 v -2.98995 h -2.99116 v -2.99116 h -2.99115 v -2.9911 h -2.98996 v -2.98996 h -2.99115 v -2.99115 h -2.98996 v -2.98996 -2.99115 h -2.9911 v -2.99116 h -2.99116 v -2.98995 h -2.98995 v -2.99116 h -2.99116 v -2.98995 h -2.98995 v -2.99111 h -2.99116 v -2.99115 h -2.99115 v -2.98996 h -2.98996 v -2.99115 h -2.9911 v -2.98996 -2.99115 h -2.99116 v -2.99111 h -2.98995 v -2.99 h -2.99116 v -2.99111 h -2.98995 v -2.99115 h -2.99116 v -2.98996 h -2.99115 v -2.99115 h -2.98996 v -2.98996 h -2.9911 v -2.99115 h -2.99001 v -2.99111 -2.99 h -2.9911 v -2.99111 h -2.99116 v -2.98995 h -2.98995 v -2.99116 h -2.99116 -2.98995 z m 2.99116,20.93444 h 2.98995 v 2.99115 h 2.99116 v 2.98996 2.99115 h 2.98995 v 2.99111 2.99 h 2.99116 v 2.99111 2.99115 h 2.9911 v 2.98996 2.99115 h 2.99001 v 2.98996 2.99115 h 2.9911 v 2.99111 2.98995 h 2.98996 v 2.99116 2.98995 h 2.99115 v 2.99116 2.99115 h 2.99116 v 2.98996 2.99115 h 2.98995 v 2.98996 h 2.99116 v 2.9911 2.99116 h 2.98995 v 2.98995 2.99116 h 2.99116 v 2.98995 2.99116 h 2.9911 v 2.99115 2.98996 h 2.98996 v 2.9911 2.99116 h 2.99115 v 2.98995 2.99116 h 2.99116 v 2.98995 2.99116 h 2.98995 v 2.99115 2.98996 h 2.99116 v 2.9911 h -2.99116 v 2.98996 h -2.98995 -2.99116 v 2.99115 h -2.99115 -2.98996 v 2.99116 h -2.9911 -2.99116 -2.98995 v 2.98995 h -2.99116 -2.98995 v 2.99116 h -2.99116 -2.99115 -2.98996 v 2.98995 h -2.9911 -2.99001 v 2.99116 h -2.9911 -2.99116 v 2.9911 h -2.98995 -2.99116 -2.98995 -2.99116 -2.9911 v -2.9911 h -2.98996 -2.99115 v -2.99116 h -2.98996 -2.99115 -2.99116 v -2.98995 h -2.98995 -2.99116 v -2.99116 h -2.98995 -2.99111 v -2.98995 h -2.99115 -2.98996 -2.99115 v -2.99116 h -2.99116 -2.98995 v -2.99115 h -2.99116 -2.98995 v -2.98996 h -2.99111 v -2.9911 h 2.99111 v -2.98996 -2.99115 h 2.98995 v -2.99116 -2.98995 h 2.99116 v -2.99116 -2.98995 h 2.98995 v -2.99116 -2.9911 h 2.99116 v -2.98996 -2.99115 h 2.99115 v -2.99116 -2.98995 h 2.98996 v -2.99116 h 2.99115 v -2.98995 -2.99116 h 2.99111 v -2.9911 -2.98996 h 2.98995 v -2.99115 -2.98996 h 2.99116 v -2.99115 -2.99116 h 2.98995 v -2.98995 -2.99116 h 2.99116 v -2.98995 -2.99111 h 2.99115 v -2.99115 -2.98996 h 2.98996 v -2.99115 -2.98996 h 2.99115 v -2.99115 -2.99111 h 2.98996 v -2.99 -2.99111 h 2.9911 v -2.99115 -2.98996 h 2.99116 z m -29.9067,26.91674 h 2.98995 v 2.98996 h -2.98995 v 2.99115 2.99111 h -2.99111 v 2.98995 2.99116 h -2.99115 v 2.98995 2.99116 h -2.98996 v 2.99115 2.98996 h -2.99115 v 2.99115 2.98996 h -2.99116 v 2.9911 2.99116 h -2.98995 v 2.98995 2.99116 h -2.99116 v 2.98995 2.99116 h -2.98995 v 2.99115 h -2.99111 v 2.98996 2.9911 h -2.99115 v 2.99116 2.98995 h -2.98996 v 2.99116 2.98995 h -2.99115 v 2.99116 2.99115 h -2.98996 v 2.98996 h -2.99115 v 2.9911 h -2.99116 -2.98995 v 2.98996 h -2.99111 -2.98995 -2.99116 v 2.99115 h -2.99115 -2.98996 -2.99115 -2.98996 v 2.99116 h -2.99115 -2.99111 -2.98995 -2.99116 v -2.99116 h 2.99116 v -2.99115 h 2.98995 v -2.98996 h 2.99111 v -2.9911 h 2.99115 v -2.98996 h 2.98996 v -2.99115 h 2.99115 v -2.99116 -2.98995 h 2.98996 v -2.99116 h 2.99115 v -2.98995 h 2.99116 v -2.99116 h 2.98995 v -2.9911 h 2.99111 v -2.98996 h 2.98995 v -2.99115 h 2.99116 v -2.99116 h 2.99115 v -2.98995 h 2.98996 v -2.99116 -2.98995 h 2.99115 v -2.99116 h 2.98996 v -2.9911 h 2.99115 v -2.98996 h 2.99111 v -2.99115 h 2.98995 v -2.98996 h 2.99116 v -2.99115 h 2.98995 v -2.99116 h 2.99116 v -2.98995 h 2.99115 v -2.99116 -2.98995 h 2.98996 v -2.99111 h 2.99115 v -2.99115 h 2.99111 z m 59.8134,0 h 2.98995 v 2.98996 h 2.99116 v 2.99115 h 2.98995 v 2.99111 h 2.99116 v 2.98995 h 2.9911 v 2.99116 2.98995 h 2.98996 v 2.99116 h 2.99115 v 2.99115 h 2.99116 v 2.98996 h 2.98995 v 2.99115 h 2.99116 v 2.98996 h 2.98995 v 2.9911 h 2.99116 v 2.99116 h 2.9911 v 2.98995 h 2.98996 v 2.99116 2.98995 h 2.99115 v 2.99116 h 2.98996 v 2.99115 h 2.99115 v 2.98996 h 2.99116 v 2.9911 h 2.98995 v 2.99116 h 2.99111 v 2.98995 h 2.99 v 2.99116 h 2.99111 v 2.98995 h 2.99115 v 2.99116 2.99115 h 2.98996 v 2.98996 h 2.99115 v 2.9911 h 2.98996 v 2.98996 h 2.99115 v 2.99115 h 2.99111 v 2.99116 2.98995 h -2.99111 v -2.98995 h -2.99115 -2.98996 -2.99115 v -2.99116 h -2.98996 -2.99115 -2.99111 v -2.99115 h -2.99 -2.99111 -2.98995 -2.99116 v -2.98996 h -2.99115 -2.98996 v -2.9911 h -2.99115 v -2.98996 h -2.98996 v -2.99115 -2.99116 h -2.9911 v -2.98995 -2.99116 h -2.99116 v -2.98995 -2.99116 h -2.98995 v -2.9911 -2.98996 h -2.99116 v -2.99115 h -2.98995 v -2.99116 -2.98995 h -2.99116 v -2.99116 -2.98995 h -2.99115 v -2.99116 -2.9911 h -2.98996 v -2.98996 -2.99115 h -2.9911 v -2.98996 -2.99115 h -2.99116 v -2.99116 -2.98995 h -2.98995 v -2.99116 -2.98995 h -2.99116 v -2.99111 -2.99115 h -2.98995 z m 38.87891,92.71121 h 2.98996 v 2.98995 h 2.99115 2.98996 2.99115 v 2.99116 h 2.99116 2.98995 2.99111 2.99 v 2.98995 h 2.99111 2.99115 2.98996 v 2.99116 h 2.99115 2.98996 2.99115 2.99111 v 2.9911 h 2.99 2.99111 2.99115 v 2.98996 2.99115 h -2.99115 v 2.98996 h -2.99111 -2.99 v 2.99115 h -2.99111 v 2.99116 h -2.99115 v 2.98995 h -2.98996 v 2.99116 h -2.99115 v 2.98995 h -2.98996 v 2.99111 h -2.99115 v 2.99115 h -2.99111 v 2.98996 h -2.99 v 2.99115 H 742.767 v 2.99116 h -2.98995 v 2.98995 h -2.99116 v 2.99116 h -2.99115 v 2.98995 h -2.98996 v 2.99111 h -2.99115 v 2.99115 h -2.98996 v 2.98996 h -2.9911 v 2.99115 h -2.99116 v 2.98996 h -2.98995 -2.99116 v 2.99115 h -2.98995 v 2.99111 h -2.99116 v 2.99 h -2.99115 v 2.99111 h -2.98996 v 2.98995 h -2.9911 v 2.99116 h -2.99116 v 2.99115 h -2.98995 v 2.98996 h -2.99116 v 2.99115 h -2.98995 v 2.98996 h -2.99116 v 2.99115 h -2.99115 v 2.99111 h -2.98996 v 2.98995 h -2.9911 v 2.99116 h -2.99001 v 2.99115 h -2.9911 -2.99116 v 2.98996 h -2.98995 v -2.98996 -2.99115 -2.99116 -2.98995 -2.99111 -2.99115 -2.98996 -2.99115 -2.98996 -2.99115 -2.99116 -2.98995 -2.99111 -2.99 -2.99111 -2.99115 -2.98996 -2.99115 -2.98996 -2.99115 -2.99111 -2.98995 -2.99116 -2.98995 -2.99116 -2.99115 -2.98996 -2.99115 -2.99111 -2.98995 -2.99116 -2.98995 -2.99116 h 2.98995 v -2.99115 h 2.99116 2.9911 v -2.98996 h 2.99001 2.9911 2.98996 v -2.99115 h 2.99115 2.99116 v -2.98996 h 2.98995 2.99116 2.98995 v -2.9911 h 2.99116 2.9911 v -2.99116 h 2.98996 2.99115 2.99116 v -2.98995 h 2.98995 2.99116 v -2.99116 h 2.98995 2.99116 2.9911 z m -146.54349,2.98995 h 2.98995 2.99116 2.99115 2.98996 2.99115 2.98996 2.99115 v 2.99116 h 2.99111 2.98995 v 2.98995 h 2.99116 2.98995 2.99116 v 2.99116 h 2.99115 2.98996 v 2.9911 h 2.99115 2.99111 2.98995 v 2.98996 h 2.99116 2.98995 v 2.99115 h 2.99116 2.99115 v 2.98996 h 2.98996 2.99115 2.98996 v 2.99115 h 2.9911 v 2.99116 2.98995 2.99116 2.98995 2.99111 2.99115 2.98996 2.99115 2.99116 2.98995 2.99116 2.98995 2.99111 2.99115 2.98996 2.99115 2.98996 2.99115 2.99111 2.99 2.99111 2.98995 2.99116 2.99115 2.98996 2.99115 2.98996 2.99115 2.99111 2.98995 2.99116 2.99115 2.98996 h -2.9911 -2.98996 v -2.98996 h -2.99115 v -2.99115 h -2.98996 v -2.99116 h -2.99115 v -2.98995 h -2.99116 v -2.99111 h -2.98995 v -2.99115 h -2.99116 v -2.98996 h -2.98995 v -2.99115 h -2.99111 v -2.98996 h -2.99115 v -2.99115 h -2.98996 v -2.99116 h -2.99115 v -2.98995 h -2.99116 v -2.99111 h -2.98995 v -2.99 h -2.99116 v -2.99111 h -2.98995 v -2.99115 h -2.99111 v -2.98996 h -2.99115 -2.98996 v -2.99115 h -2.99115 v -2.98996 h -2.98996 v -2.99115 h -2.99115 v -2.99111 h -2.99116 v -2.98995 h -2.98995 v -2.99116 h -2.99111 v -2.98995 h -2.98995 v -2.99116 h -2.99116 v -2.99115 h -2.99115 v -2.98996 h -2.98996 v -2.99115 h -2.99115 v -2.99111 h -2.98996 v -2.98995 h -2.99115 v -2.99116 h -2.99111 v -2.98995 h -2.98995 V 523.545 h -2.99116 v -2.99115 h -2.99115 v -2.98996 h -2.98996 v -2.99115 h -2.99115 v -2.98996 h 2.99115 2.98996 2.99115 2.99116 v -2.9911 h 2.98995 2.99111 2.99115 v -2.99116 h 2.98996 2.99115 2.98996 2.99115 v -2.98995 h 2.99116 2.98995 2.99111 z"
         inkscape:label="edges" />
    </g>
  </g>
</svg>
