<?xml version="1.0" encoding="UTF-8" standalone="no"?>
<svg
   version="1.1"
   viewBox="0 0 512 512.00001"
   x="0px"
   y="0px"
   id="svg2"
   sodipodi:docname="d12.svg"
   width="512"
   height="512"
   inkscape:version="1.4 (86a8ad7, 2024-10-11)"
   xmlns:inkscape="http://www.inkscape.org/namespaces/inkscape"
   xmlns:sodipodi="http://sodipodi.sourceforge.net/DTD/sodipodi-0.dtd"
   xmlns="http://www.w3.org/2000/svg"
   xmlns:svg="http://www.w3.org/2000/svg">
  <defs
     id="defs2" />
  <sodipodi:namedview
     id="namedview2"
     pagecolor="#505050"
     bordercolor="#ffffff"
     borderopacity="1"
     inkscape:showpageshadow="0"
     inkscape:pageopacity="0"
     inkscape:pagecheckerboard="1"
     inkscape:deskcolor="#505050"
     inkscape:zoom="1.2675781"
     inkscape:cx="255.60555"
     inkscape:cy="199.98768"
     inkscape:window-width="1920"
     inkscape:window-height="1009"
     inkscape:window-x="-8"
     inkscape:window-y="-8"
     inkscape:window-maximized="1"
     inkscape:current-layer="g9120" />
  <g
     transform="matrix(0.96771823,0,0,0.96771823,-185.27951,-672.04179)"
     id="g1"
     style="stroke:none">
    <path
       id="path1"
       style="stroke-width:1.84391;fill:#2b2b45;stroke:none;fill-opacity:1"
       inkscape:label="background"
       d="M 383.15023 719.00044 L 340.00953 741.587 L 296.87084 764.17557 L 288.6625 778.00482 C 275.73428 799.78402 252.84177 838.44945 229.48052 877.96814 L 207.99392 914.31734 L 207.99392 961.54708 L 207.99392 1008.7768 L 225.77899 1039.5213 C 235.56034 1056.4307 249.12271 1079.807 255.91795 1091.4697 C 262.71321 1103.1324 272.6095 1120.2761 277.91113 1129.5668 C 283.21277 1138.8575 288.95122 1147.7264 290.66261 1149.2752 C 293.50593 1151.8484 356.35717 1189.4919 369.33713 1196.396 C 374.20799 1198.987 384.71215 1199.2783 457.26344 1198.824 L 539.65765 1198.3073 L 580.80429 1173.8538 C 621.14496 1149.8793 622.08179 1149.1843 628.58502 1138.4129 C 632.23329 1132.3702 650.696 1100.5325 669.61259 1067.6621 L 704.00607 1007.8968 L 704.00607 961.04654 L 704.00607 914.19624 L 695.52325 900.22168 C 690.85749 892.53562 685.5834 883.67442 683.8031 880.52934 C 682.02279 877.38423 671.19244 859.04513 659.73715 839.77625 C 648.28185 820.50738 633.98489 796.30086 627.96541 785.98307 C 621.94594 775.6653 615.64099 766.01623 613.95452 764.54088 C 611.21183 762.14155 585.70874 748.61246 542.45094 726.61137 L 527.48541 719.00044 L 455.31782 719.00044 L 383.15023 719.00044 z " />
    <g
       id="g9120"
       inkscape:label="shading">
      <path
         id="path9089"
         style="opacity:0.5;fill:#000000;fill-opacity:1;stroke:none;stroke-width:5.00001"
         d="m 386.76509,724.4276 v 5.16761 h -5.16761 -5.16756 v 5.16556 h -5.16556 -5.16761 v 5.16761 h -5.16556 -5.16761 v 5.16556 h -5.16761 -5.16555 v 5.16756 h -5.16761 -5.16556 v 5.16761 h -5.16761 v 5.16556 h -5.16761 -5.16556 v 5.16761 h -5.16756 -5.16556 v 5.16555 h -5.16761 -5.1676 v 5.16761 5.16761 h -5.16556 v 5.16556 5.16761 h -5.16761 v 5.16556 5.16761 h -5.16556 v 5.16756 h -5.16761 v 5.16555 5.16761 h -5.16761 v 5.16761 5.16556 h -5.16556 v 5.16761 h -5.16761 v 5.16556 5.16761 h -5.16756 v 5.16761 5.16556 h -5.1656 v 5.1676 h -5.16756 v 5.16556 5.16761 h -5.16556 v 5.16756 5.16556 h -5.16761 v 5.16761 h -5.16761 v 5.16556 5.16761 h -5.16556 v 5.16761 5.16555 h -5.16761 v 5.16761 5.16556 h -5.16556 v 5.16761 5.16761 5.16556 5.16756 5.16761 5.16556 5.1676 5.16556 5.16761 5.16761 5.16556 5.16761 5.16556 5.16761 5.16755 5.16561 5.16758 5.1655 5.1677 5.1676 5.1655 5.1676 h 5.16556 v 5.1656 5.1676 h 5.16761 v 5.1676 h 5.16556 v 5.1656 5.1676 h 5.16761 v 5.1675 5.1656 h 5.16761 v 5.1676 h 5.16556 v 5.1656 5.1676 h 5.16756 v 5.1676 5.1655 h 5.1656 v 5.1676 5.1656 h 5.16756 v 5.1676 h 5.16761 v 5.1676 5.1656 h 5.16556 v 5.1675 5.1656 h 5.16761 v 5.1676 5.1676 h 5.16761 v 5.1656 h 5.16556 v 5.1676 5.1655 h 5.16761 v 5.1676 h 5.16556 v 5.1677 h 5.1676 v 5.1655 h 5.16761 5.16556 v 5.1676 h 5.16756 v 5.1676 h 5.16556 5.16761 v 5.1656 h 5.16761 5.16556 v 5.1676 h 5.16761 v 5.1655 h 5.16555 5.16761 v 5.1676 h 5.16761 5.16556 v 5.1676 h 5.16761 5.16556 v 5.1656 h 5.16756 5.16761 5.16555 5.16761 5.16761 5.16556 5.16761 5.16556 5.16761 5.16761 5.16556 5.1676 5.16556 5.16756 5.16761 5.16556 5.16761 5.16556 5.16761 5.16761 5.16555 5.16761 5.16556 5.16761 5.16756 5.16556 5.16761 5.16761 5.16556 5.1676 5.16556 5.16761 5.16761 5.16556 v -5.1656 h 5.16761 5.16556 v -5.1676 h 5.16761 5.16755 v -5.1676 h 5.16556 v -5.1655 h 5.16761 5.16556 v -5.1676 h 5.16761 5.16761 v -5.1656 h 5.16556 v -5.1676 h 5.16761 5.16556 v -5.1676 h 5.1676 5.16761 v -5.1655 h 5.16556 v -5.1677 h 5.16756 v -5.1676 h 5.16556 v -5.1655 -5.1676 h 5.16761 v -5.1656 -5.1676 h 5.16761 v -5.1676 h 5.16556 v -5.1656 -5.1675 h 5.16761 v -5.1656 -5.1676 h 5.1676 v -5.1676 h 5.16556 v -5.1656 -5.1676 h 5.16761 v -5.1655 -5.1676 h 5.16556 v -5.1676 -5.1656 h 5.16761 v -5.1676 h 5.16756 v -5.1656 -5.1675 h 5.16561 v -5.1676 -5.1656 h 5.16756 v -5.1676 -5.1676 h 5.16555 v -5.1656 h 5.16761 v -5.1676 -5.1655 -5.1676 -5.1677 -5.1655 -5.16758 -5.16561 -5.16755 -5.16761 -5.16556 -5.16761 -5.16556 -5.16761 -5.16761 -5.16556 -5.1676 -5.16556 -5.16761 -5.16756 -5.16556 -5.16761 -5.16761 h -5.16761 v -5.16556 -5.16761 h -5.16555 v -5.16555 -5.16761 h -5.16756 v -5.16761 -5.16556 h -5.16561 v -5.16761 h -5.16756 v -5.16556 -5.16756 h -5.16761 v -5.16761 -5.16556 h -5.16556 v -5.1676 h -5.16761 v -5.16556 -5.16761 h -5.16556 v -5.16761 -5.16556 h -5.1676 v -5.16761 h -5.16761 v -5.16556 -5.16761 h -5.16556 v -5.16761 -5.16555 h -5.16761 v -5.16756 h -5.16761 v -5.16761 -5.16556 h -5.16556 v -5.16761 -5.16556 h -5.16756 v -5.16761 h -5.16556 v -5.16761 h -5.16761 v -5.16555 h -5.1676 -5.16556 v -5.16761 h -5.16761 -5.16556 v -5.16556 h -5.16761 v -5.16761 h -5.16761 -5.16556 v -5.16756 h -5.16761 -5.16556 v -5.16556 h -5.16755 -5.16761 v -5.16761 h -5.16556 -5.16761 v -5.16556 h -5.16556 -5.16761 v -5.16761 h -5.16761 -5.16556 -5.1676 -5.16556 -5.16761 -5.16761 -5.16556 -5.16756 -5.16761 -5.16556 -5.16761 -5.16555 -5.16761 -5.16761 -5.16556 -5.16761 -5.16556 -5.16761 -5.16756 -5.16556 -5.1676 -5.16556 -5.16761 -5.16761 -5.16556 -5.16761 -5.16556 -5.16761 -5.16761 z m 0,20.66634 h 5.16555 5.16761 5.16761 5.16556 5.16761 5.16556 5.16761 5.16761 5.16556 5.1676 5.16556 5.16756 5.16761 5.16556 5.16761 5.16556 5.16761 5.16761 5.16555 5.16761 5.16556 5.16761 5.16756 5.16556 5.16761 5.16761 5.16556 5.1676 5.16556 5.16761 v 5.16756 h 5.16761 5.16556 v 5.16761 h 5.16761 5.16556 v 5.16556 h 5.16761 5.16755 v 5.16761 h 5.16556 v 5.16555 h 5.16761 v 5.16761 h -5.16761 v 5.16761 h -5.16556 -5.16755 -5.16761 -5.16556 v 5.16556 h -5.16761 -5.16556 -5.16761 -5.16761 v 5.16761 h -5.16556 -5.1676 -5.16556 -5.16761 -5.16761 v 5.16556 h -5.16556 -5.16756 -5.16761 -5.16556 v 5.16761 h -5.16761 -5.16555 -5.16761 -5.16761 v 5.16756 h -5.16556 -5.16761 v -5.16756 h -5.16556 -5.16761 -5.16756 -5.16556 v -5.16761 h -5.1676 -5.16556 -5.16761 -5.16761 v -5.16556 h -5.16556 -5.16761 -5.16556 -5.16761 -5.16761 v -5.16761 h -5.16555 -5.16761 -5.16756 -5.16556 v -5.16556 h -5.16761 -5.16556 -5.16761 -5.16761 v -5.16761 h -5.16555 -5.16761 v -5.16761 h 5.16761 v -5.16555 h 5.16555 5.16761 v -5.16761 h 5.16761 5.16556 v -5.16556 h 5.16761 5.16556 v -5.16761 h 5.16756 5.16761 z m 222.17218,41.33467 h 5.16556 v 5.16761 h 5.1676 v 5.16556 5.16761 h 5.16761 v 5.16756 h 5.16556 v 5.16555 5.16761 h 5.16756 v 5.16761 5.16556 h 5.16556 v 5.16761 h 5.16761 v 5.16556 5.16761 h 5.16761 v 5.16761 5.16556 h 5.16556 v 5.1676 h 5.16761 v 5.16556 5.16761 h 5.1676 v 5.16756 5.16556 h 5.16556 v 5.16761 5.16556 h 5.16761 v 5.16761 h 5.16556 v 5.16761 5.16555 h 5.16761 v 5.16761 5.16556 h 5.16756 v 5.16761 5.16761 5.16556 h -5.16756 v 5.16756 h -5.16761 v 5.16761 h -5.16556 v 5.16556 h -5.16761 v 5.1676 h -5.16556 v 5.16556 h -5.1676 v 5.16761 h -5.16761 v 5.16761 h -5.16556 v 5.16556 h -5.16761 v 5.16761 h -5.16761 v 5.16556 h -5.16556 v 5.16761 h -5.16756 v 5.16755 h -5.16556 v 5.16561 h -5.16761 v 5.16758 h -5.1676 v 5.1655 5.1677 h -5.16556 v 5.1676 h -5.16761 v 5.1655 h -5.16556 v 5.1676 h -5.16761 v 5.1656 h -5.16761 -5.16556 v -5.1656 h -5.16761 v -5.1676 h -5.16556 -5.16755 v -5.1655 h -5.16761 -5.16556 v -5.1676 h -5.16761 v -5.1677 h -5.16556 -5.16761 v -5.1655 h -5.16761 v -5.16758 h -5.16556 -5.1676 v -5.16561 h -5.16556 -5.16761 v -5.16755 h -5.16761 v -5.16761 h -5.16556 -5.16756 v -5.16556 h -5.16761 -5.16556 v -5.16761 h -5.16761 v -5.16556 h -5.16555 v -5.16761 h -5.16761 v -5.16761 -5.16556 -5.1676 -5.16556 -5.16761 -5.16756 -5.16556 -5.16761 -5.16761 -5.16556 -5.16761 -5.16555 -5.16761 -5.16761 -5.16556 -5.16761 -5.16556 -5.16756 -5.16761 -5.16556 -5.1676 -5.16556 -5.16761 -5.16761 -5.16556 -5.16761 -5.16556 h 5.16761 v -5.16761 h 5.16555 5.16761 5.16556 5.16761 v -5.16761 h 5.16756 5.16556 5.16761 5.16761 v -5.16555 h 5.16556 5.1676 5.16556 5.16761 v -5.16756 h 5.16761 5.16556 5.16761 5.16556 v -5.16761 h 5.16761 5.16755 5.16556 5.16761 5.16556 v -5.16556 h 5.16761 5.16761 5.16556 5.16761 z m -299.67392,5.16761 h 5.16556 5.16756 5.16556 5.16761 5.16761 5.16556 v 5.16556 h 5.16761 5.16555 5.16761 5.16761 v 5.16761 h 5.16556 5.16761 5.16556 5.16756 5.16761 v 5.16756 h 5.16555 5.16761 5.16761 5.16556 v 5.16555 h 5.16761 5.16556 5.16761 5.16761 v 5.16761 h 5.16556 5.1676 5.16556 5.16756 v 5.16761 h 5.16761 v 5.16556 5.16761 5.16556 5.16761 5.16761 5.16556 5.1676 5.16556 5.16761 5.16756 5.16556 5.16761 5.16556 5.16761 5.16761 5.16555 5.16761 5.16556 5.16761 5.16761 5.16556 5.16756 5.16761 5.16556 5.1676 5.16556 5.16761 5.16761 h -5.16761 -5.16756 v 5.16556 h -5.16556 -5.1676 v 5.16761 h -5.16556 v 5.16556 h -5.16761 -5.16761 v 5.16761 h -5.16556 v 5.16755 h -5.16761 -5.16556 v 5.16561 h -5.16761 -5.16761 v 5.16758 h -5.16555 v 5.1655 h -5.16761 -5.16756 v 5.1677 h -5.16556 -5.16761 v 5.1676 h -5.16556 v 5.1655 h -5.16761 -5.16761 v 5.1676 h -5.16555 -5.16761 v 5.1656 h -5.16556 v -5.1656 h -5.16761 v -5.1676 h -5.16761 v -5.1655 h -5.16556 v -5.1676 h -5.16756 v -5.1677 h -5.16556 v -5.1655 h -5.16761 v -5.16758 h -5.1676 v -5.16561 h -5.16556 v -5.16755 -5.16761 h -5.16761 v -5.16556 h -5.16556 v -5.16761 h -5.16761 v -5.16556 h -5.16761 v -5.16761 h -5.16556 v -5.16761 h -5.16761 v -5.16556 h -5.16756 v -5.1676 h -5.1656 v -5.16556 h -5.16756 v -5.16761 h -5.16556 v -5.16756 h -5.16761 v -5.16556 -5.16761 -5.16761 h 5.16761 v -5.16556 -5.16761 h 5.16556 v -5.16555 -5.16761 h 5.16756 v -5.16761 -5.16556 h 5.1656 v -5.16761 h 5.16756 v -5.16556 -5.16756 h 5.16761 v -5.16761 -5.16556 h 5.16556 v -5.1676 h 5.16761 v -5.16556 -5.16761 h 5.16761 v -5.16761 -5.16556 h 5.16556 v -5.16761 h 5.16761 v -5.16556 -5.16761 h 5.16556 v -5.16761 -5.16555 h 5.1676 v -5.16756 h 5.16761 v -5.16761 z m -77.50383,160.17112 h 5.16761 v 5.16556 h 5.16761 v 5.16761 h 5.16556 v 5.16761 h 5.16756 v 5.16556 h 5.1656 v 5.16761 h 5.16756 v 5.16556 h 5.16761 v 5.16761 h 5.16556 v 5.16755 h 5.16761 v 5.16561 h 5.16761 v 5.16758 h 5.16556 v 5.1655 h 5.16761 v 5.1677 5.1676 h 5.16556 v 5.1655 h 5.1676 v 5.1676 h 5.16761 v 5.1656 h 5.16556 v 5.1676 h 5.16756 v 5.1676 h 5.16556 v 5.1656 h 5.16761 v 5.1676 5.1675 5.1656 h 5.16761 v 5.1676 5.1656 5.1676 h 5.16556 v 5.1676 5.1655 5.1676 h 5.16761 v 5.1656 5.1676 5.1676 5.1656 h 5.16555 v 5.1675 5.1656 5.1676 h 5.16761 v 5.1676 5.1656 5.1676 h 5.16761 v 5.1655 5.1676 5.1677 5.1655 h 5.16556 v 5.1676 5.1676 h -5.16556 -5.16761 v -5.1676 h -5.16761 -5.16555 v -5.1676 h -5.16761 v -5.1655 h -5.16556 -5.16761 v -5.1677 h -5.16761 -5.16556 v -5.1676 h -5.16756 v -5.1655 h -5.16556 v -5.1676 h -5.16761 v -5.1656 h -5.1676 v -5.1676 -5.1676 h -5.16556 v -5.1656 -5.1675 h -5.16761 v -5.1656 h -5.16556 v -5.1676 -5.1676 h -5.16761 v -5.1656 -5.1676 h -5.16761 v -5.1655 -5.1676 h -5.16556 v -5.1676 h -5.16761 v -5.1656 -5.1676 h -5.16756 v -5.1656 -5.1675 h -5.1656 v -5.1676 -5.1656 h -5.16756 v -5.1676 h -5.16556 v -5.1676 -5.1656 h -5.16761 v -5.1676 -5.1655 h -5.16761 v -5.1676 -5.1677 -5.1655 -5.16758 -5.16561 -5.16755 -5.16761 -5.16556 -5.16761 -5.16556 -5.16761 -5.16761 z m 459.84709,0 h 5.16561 v 5.16556 5.16761 5.16761 5.16556 5.16761 5.16556 5.16761 5.16755 5.16561 5.16758 5.1655 5.1677 5.1676 h -5.16561 v 5.1655 5.1676 h -5.16756 v 5.1656 h -5.16761 v 5.1676 5.1676 h -5.16556 v 5.1656 5.1676 h -5.16761 v 5.1675 5.1656 h -5.16556 v 5.1676 h -5.1676 v 5.1656 5.1676 h -5.16761 v 5.1676 5.1655 h -5.16556 v 5.1676 5.1656 h -5.16761 v 5.1676 h -5.16761 v 5.1676 5.1656 h -5.16556 v 5.1675 5.1656 h -5.16756 v 5.1676 h -5.16556 v 5.1676 5.1656 h -5.16761 v 5.1676 h -5.1676 v 5.1655 h -5.16556 -5.16761 v 5.1676 h -5.16556 v 5.1677 h -5.16761 -5.16761 v 5.1655 h -5.16556 -5.16761 v 5.1676 h -5.16556 -5.16755 v 5.1676 h -5.16761 v -5.1676 -5.1676 -5.1655 h 5.16761 v -5.1677 -5.1676 -5.1655 h 5.16755 v -5.1676 -5.1656 -5.1676 h 5.16556 v -5.1676 -5.1656 -5.1675 -5.1656 h 5.16761 v -5.1676 -5.1676 -5.1656 h 5.16556 v -5.1676 -5.1655 -5.1676 h 5.16761 v -5.1676 -5.1656 -5.1676 h 5.16761 v -5.1656 -5.1675 -5.1676 h 5.16556 v -5.1656 h 5.16761 v -5.1676 h 5.16556 v -5.1676 h 5.1676 v -5.1656 h 5.16761 v -5.1676 h 5.16556 v -5.1655 -5.1676 h 5.16756 v -5.1677 h 5.16556 v -5.1655 h 5.16761 v -5.16758 h 5.16761 v -5.16561 h 5.16556 v -5.16755 h 5.16761 v -5.16761 h 5.1676 v -5.16556 h 5.16556 v -5.16761 h 5.16761 v -5.16556 h 5.16556 v -5.16761 h 5.16761 v -5.16761 h 5.16756 z M 453.9337,982.76685 h 5.16556 5.16761 5.16556 5.16761 v 5.16761 h 5.16761 5.16555 v 5.16755 h 5.16761 v 5.16561 h 5.16556 5.16761 v 5.16758 h 5.16756 5.16556 v 5.1655 h 5.16761 v 5.1677 h 5.16761 5.16556 v 5.1676 h 5.1676 5.16556 v 5.1655 h 5.16761 v 5.1676 h 5.16761 5.16556 v 5.1656 h 5.16761 v 5.1676 h 5.16556 5.16761 v 5.1676 h 5.16755 v 5.1656 h 5.16556 v 5.1676 5.1675 5.1656 5.1676 h -5.16556 v 5.1656 5.1676 5.1676 h -5.16755 v 5.1655 5.1676 5.1656 5.1676 h -5.16761 v 5.1676 5.1656 5.1675 h -5.16556 v 5.1656 5.1676 5.1676 h -5.16761 v 5.1656 5.1676 5.1655 5.1676 h -5.16556 v 5.1677 5.1655 5.1676 h -5.16761 v 5.1676 5.1656 5.1676 h -5.16761 v 5.1655 h -5.16556 -5.1676 -5.16556 -5.16761 -5.16761 -5.16556 -5.16756 -5.16761 -5.16556 -5.16761 -5.16555 -5.16761 -5.16761 -5.16556 -5.16761 -5.16556 -5.16761 -5.16756 -5.16556 -5.1676 -5.16556 -5.16761 -5.16761 -5.16556 -5.16761 -5.16556 -5.16761 -5.16761 -5.16555 v -5.1655 -5.1676 -5.1656 -5.1676 h -5.16761 v -5.1676 -5.1655 -5.1677 h -5.16756 v -5.1676 -5.1655 -5.1676 h -5.16556 v -5.1656 -5.1676 -5.1676 -5.1656 h -5.16761 v -5.1675 -5.1656 -5.1676 h -5.16556 v -5.1676 -5.1656 -5.1676 -5.1655 h -5.16761 v -5.1676 -5.1676 -5.1656 h -5.16761 v -5.1676 -5.1656 -5.1675 -5.1676 h 5.16761 v -5.1656 h 5.16761 v -5.1676 h 5.16556 v -5.1676 h 5.16761 5.16556 v -5.1656 h 5.16756 5.16761 v -5.1676 h 5.16555 v -5.1655 h 5.16761 5.16761 v -5.1676 h 5.16556 5.16761 v -5.1677 h 5.16556 v -5.1655 h 5.16761 5.16761 v -5.16758 h 5.16556 5.1676 v -5.16561 h 5.16556 v -5.16755 h 5.16756 5.16761 z"
         inkscape:label="dropshadow" />
      <path
         style="stroke:none;opacity:0.25;fill:#000000;stroke-width:1.84351;stroke-linecap:round;stroke-linejoin:round;stroke-miterlimit:5"
         d="m 218.36253,930.87481 114.1312,113.31599 39.94592,144.2944 -83.15273,-44.8372 -71.73961,-129.6205 z"
         id="path9125"
         inkscape:label="shade25" />
      <path
         style="stroke:none;opacity:0.33;fill:#000000;stroke-width:1.84351;stroke-linecap:round;stroke-linejoin:round;stroke-miterlimit:5"
         d="m 303.96093,770.27591 -90.48973,150.001 121.4682,118.20729 121.4682,-77.44615 -1.63044,-151.63144 z"
         id="path9122"
         inkscape:label="shade33" />
      <path
         style="display:inline;opacity:0.5;fill:#000000;stroke-width:1.84351;stroke-linecap:round;stroke-linejoin:round;stroke-miterlimit:5"
         d="m 386.29844,725.43866 -77.44617,40.76114 8.15223,5.70656 139.4031,35.05458 140.21832,-36.68503 -69.29394,-44.02203 z m -52.17426,313.86084 123.91388,-78.26143 125.54432,82.33753 -44.83726,150.8162 H 372.43966 Z"
         id="path9121"
         inkscape:label="shade50" />
      <path
         style="opacity:0.66;fill:#000000;stroke-width:1.84351;stroke-linecap:round;stroke-linejoin:round;stroke-miterlimit:5"
         d="m 456.4076,811.03705 154.89233,-42.39158 85.59841,147.55533 c 0,0 -115.76165,115.7616 -114.13121,122.2834 1.63045,6.5218 -127.17476,-79.89182 -127.17476,-79.89182 z"
         id="path9123"
         inkscape:label="shade66" />
      <path
         style="opacity:0.75;fill:#000000;stroke-width:1.84351;stroke-linecap:round;stroke-linejoin:round;stroke-miterlimit:5"
         d="m 585.2128,1040.9299 109.23987,-122.28343 3.26088,96.19633 -76.63094,127.1747 -83.15273,48.9134 z"
         id="path9124"
         inkscape:label="shade75" />
    </g>
    <path
       id="path9120"
       style="fill:#000000;fill-opacity:1;stroke:none;stroke-width:5.00001"
       d="m 378.49822,716.16051 v 5.16761 h -5.16761 -5.16756 v 5.16556 h -5.16556 -5.16761 v 5.16761 h -5.16556 -5.16761 v 5.16556 h -5.16761 -5.16555 v 5.16756 h -5.16761 -5.16556 v 5.16761 h -5.16761 v 5.16556 h -5.16761 -5.16556 v 5.16761 h -5.16756 -5.16556 v 5.16555 h -5.16761 -5.1676 v 5.16761 5.16761 h -5.16556 v 5.16556 5.16761 h -5.16761 v 5.16556 5.16761 h -5.16556 v 5.16756 h -5.16761 v 5.16555 5.16761 h -5.16761 v 5.16761 5.16556 h -5.16556 v 5.16761 h -5.16761 v 5.16556 5.16761 h -5.16756 v 5.16761 5.16556 h -5.1656 v 5.1676 h -5.16756 v 5.16556 5.16761 h -5.16556 v 5.16756 5.16556 h -5.16761 v 5.16761 h -5.16761 v 5.16556 5.16761 h -5.16556 v 5.16761 5.16555 h -5.16761 v 5.16761 5.16556 h -5.16556 v 5.16761 5.16761 5.16556 5.16756 5.16761 5.16556 5.1676 5.16556 5.16761 5.16761 5.16556 5.16761 5.16556 5.16761 5.16755 5.16561 5.16758 5.16549 5.1677 5.1676 5.1655 5.1676 h 5.16556 v 5.1656 5.1676 h 5.16761 v 5.1676 h 5.16556 v 5.1656 5.1676 h 5.16761 v 5.1675 5.1656 h 5.16761 v 5.1676 h 5.16556 v 5.1656 5.1676 h 5.16756 v 5.1676 5.1655 h 5.1656 v 5.1676 5.1656 h 5.16756 v 5.1676 h 5.16761 v 5.1676 5.1656 h 5.16556 v 5.1675 5.1656 h 5.16761 v 5.1676 5.1676 h 5.16761 v 5.1656 h 5.16556 v 5.1676 5.1655 h 5.16761 v 5.1676 h 5.16556 v 5.1677 h 5.1676 v 5.1655 h 5.16761 5.16556 v 5.1676 h 5.16756 v 5.1676 h 5.16556 5.16761 v 5.1656 h 5.16761 5.16556 v 5.1676 h 5.16761 v 5.1655 h 5.16555 5.16761 v 5.1676 h 5.16761 5.16556 v 5.1676 h 5.16761 5.16556 v 5.1656 h 5.16756 5.16761 5.16555 5.16761 5.16761 5.16556 5.16761 5.16556 5.16761 5.16761 5.16556 5.1676 5.16556 5.16756 5.16761 5.16556 5.16761 5.16556 5.16761 5.16761 5.16555 5.16761 5.16556 5.16761 5.16756 5.16556 5.16761 5.16761 5.16556 5.1676 5.16556 5.16761 5.16761 5.16556 v -5.1656 h 5.16761 5.16556 v -5.1676 h 5.16761 5.16755 v -5.1676 h 5.16556 v -5.1655 h 5.16761 5.16556 v -5.1676 h 5.16761 5.16761 v -5.1656 h 5.16556 v -5.1676 h 5.16761 5.16556 v -5.1676 h 5.1676 5.16761 v -5.1655 h 5.16556 v -5.1677 h 5.16756 v -5.1676 h 5.16556 v -5.1655 -5.1676 h 5.16761 v -5.1656 -5.1676 h 5.16761 v -5.1676 h 5.16556 v -5.1656 -5.1675 h 5.16761 v -5.1656 -5.1676 h 5.1676 v -5.1676 h 5.16556 v -5.1656 -5.1676 h 5.16761 v -5.1655 -5.1676 h 5.16556 v -5.1676 -5.1656 h 5.16761 v -5.1676 h 5.16756 v -5.1656 -5.1675 h 5.16561 v -5.1676 -5.1656 h 5.16756 v -5.1676 -5.1676 h 5.16555 v -5.1656 h 5.16761 v -5.1676 -5.1655 -5.1676 -5.1677 -5.16549 -5.16758 -5.16561 -5.16755 -5.16761 -5.16556 -5.16761 -5.16556 -5.16761 -5.16761 -5.16556 -5.1676 -5.16556 -5.16761 -5.16756 -5.16556 -5.16761 -5.16761 h -5.16761 v -5.16556 -5.16761 h -5.16555 v -5.16555 -5.16761 h -5.16756 v -5.16761 -5.16556 h -5.16561 v -5.16761 h -5.16756 v -5.16556 -5.16756 h -5.16761 v -5.16761 -5.16556 h -5.16556 v -5.1676 h -5.16761 v -5.16556 -5.16761 h -5.16556 v -5.16761 -5.16556 h -5.1676 v -5.16761 h -5.16761 v -5.16556 -5.16761 h -5.16556 v -5.16761 -5.16555 h -5.16761 v -5.16756 h -5.16761 v -5.16761 -5.16556 h -5.16556 v -5.16761 -5.16556 h -5.16756 v -5.16761 h -5.16556 v -5.16761 h -5.16761 v -5.16555 h -5.1676 -5.16556 v -5.16761 h -5.16761 -5.16556 v -5.16556 h -5.16761 v -5.16761 h -5.16761 -5.16556 v -5.16756 h -5.16761 -5.16556 v -5.16556 h -5.16755 -5.16761 v -5.16761 h -5.16556 -5.16761 v -5.16556 h -5.16556 -5.16761 v -5.16761 h -5.16761 -5.16556 -5.1676 -5.16556 -5.16761 -5.16761 -5.16556 -5.16756 -5.16761 -5.16556 -5.16761 -5.16555 -5.16761 -5.16761 H 456 h -5.16761 -5.16556 -5.16761 -5.16756 -5.16556 -5.1676 -5.16556 -5.16761 -5.16761 -5.16556 -5.16761 -5.16556 -5.16761 -5.16761 z m 0,20.66634 h 5.16555 5.16761 5.16761 5.16556 5.16761 5.16556 5.16761 5.16761 5.16556 5.1676 5.16556 5.16756 5.16761 5.16556 5.16761 5.16556 5.16761 5.16761 5.16555 5.16761 5.16556 5.16761 5.16756 5.16556 5.16761 5.16761 5.16556 5.1676 5.16556 5.16761 v 5.16756 h 5.16761 5.16556 v 5.16761 h 5.16761 5.16556 v 5.16556 h 5.16761 5.16755 v 5.16761 h 5.16556 v 5.16555 h 5.16761 v 5.16761 h -5.16761 v 5.16761 h -5.16556 -5.16755 -5.16761 -5.16556 v 5.16556 h -5.16761 -5.16556 -5.16761 -5.16761 v 5.16761 h -5.16556 -5.1676 -5.16556 -5.16761 -5.16761 v 5.16556 h -5.16556 -5.16756 -5.16761 -5.16556 v 5.16761 h -5.16761 -5.16555 -5.16761 -5.16761 v 5.16756 H 456 450.83239 v -5.16756 h -5.16556 -5.16761 -5.16756 -5.16556 v -5.16761 h -5.1676 -5.16556 -5.16761 -5.16761 v -5.16556 h -5.16556 -5.16761 -5.16556 -5.16761 -5.16761 v -5.16761 h -5.16555 -5.16761 -5.16756 -5.16556 v -5.16556 h -5.16761 -5.16556 -5.16761 -5.16761 v -5.16761 h -5.16555 -5.16761 v -5.16761 h 5.16761 v -5.16555 h 5.16555 5.16761 v -5.16761 h 5.16761 5.16556 v -5.16556 h 5.16761 5.16556 v -5.16761 h 5.16756 5.16761 z m 222.17218,41.33467 h 5.16556 v 5.16761 h 5.1676 v 5.16556 5.16761 h 5.16761 v 5.16756 h 5.16556 v 5.16555 5.16761 h 5.16756 v 5.16761 5.16556 h 5.16556 v 5.16761 h 5.16761 v 5.16556 5.16761 h 5.16761 v 5.16761 5.16556 h 5.16556 v 5.1676 h 5.16761 v 5.16556 5.16761 h 5.1676 v 5.16756 5.16556 h 5.16556 v 5.16761 5.16556 h 5.16761 v 5.16761 h 5.16556 v 5.16761 5.16555 h 5.16761 v 5.16761 5.16556 h 5.16756 v 5.16761 5.16761 5.16556 h -5.16756 v 5.16756 h -5.16761 v 5.16761 h -5.16556 v 5.16556 h -5.16761 v 5.1676 h -5.16556 v 5.16556 h -5.1676 v 5.16761 h -5.16761 v 5.16761 h -5.16556 v 5.16556 h -5.16761 v 5.16761 h -5.16761 v 5.16556 h -5.16556 v 5.16761 h -5.16756 v 5.16755 h -5.16556 v 5.16561 h -5.16761 v 5.16758 h -5.1676 v 5.16549 5.1677 h -5.16556 v 5.1676 h -5.16761 v 5.1655 h -5.16556 v 5.1676 h -5.16761 v 5.1656 h -5.16761 -5.16556 v -5.1656 h -5.16761 v -5.1676 h -5.16556 -5.16755 v -5.1655 h -5.16761 -5.16556 v -5.1676 h -5.16761 v -5.1677 h -5.16556 -5.16761 v -5.16549 h -5.16761 v -5.16758 h -5.16556 -5.1676 v -5.16561 h -5.16556 -5.16761 v -5.16755 h -5.16761 v -5.16761 h -5.16556 -5.16756 v -5.16556 h -5.16761 -5.16556 v -5.16761 h -5.16761 v -5.16556 h -5.16555 v -5.16761 h -5.16761 v -5.16761 -5.16556 -5.1676 -5.16556 -5.16761 -5.16756 -5.16556 -5.16761 -5.16761 -5.16556 -5.16761 -5.16555 -5.16761 -5.16761 -5.16556 -5.16761 -5.16556 -5.16756 -5.16761 -5.16556 -5.1676 -5.16556 -5.16761 -5.16761 -5.16556 -5.16761 -5.16556 h 5.16761 v -5.16761 h 5.16555 5.16761 5.16556 5.16761 v -5.16761 h 5.16756 5.16556 5.16761 5.16761 v -5.16555 h 5.16556 5.1676 5.16556 5.16761 v -5.16756 h 5.16761 5.16556 5.16761 5.16556 v -5.16761 h 5.16761 5.16755 5.16556 5.16761 5.16556 v -5.16556 h 5.16761 5.16761 5.16556 5.16761 z m -299.67392,5.16761 h 5.16556 5.16756 5.16556 5.16761 5.16761 5.16556 v 5.16556 h 5.16761 5.16555 5.16761 5.16761 v 5.16761 h 5.16556 5.16761 5.16556 5.16756 5.16761 v 5.16756 h 5.16555 5.16761 5.16761 5.16556 v 5.16555 h 5.16761 5.16556 5.16761 5.16761 v 5.16761 h 5.16556 5.1676 5.16556 5.16756 v 5.16761 h 5.16761 v 5.16556 5.16761 5.16556 5.16761 5.16761 5.16556 5.1676 5.16556 5.16761 5.16756 5.16556 5.16761 5.16556 5.16761 5.16761 5.16555 5.16761 5.16556 5.16761 5.16761 5.16556 5.16756 5.16761 5.16556 5.1676 5.16556 5.16761 5.16761 h -5.16761 -5.16756 v 5.16556 h -5.16556 -5.1676 v 5.16761 h -5.16556 v 5.16556 h -5.16761 -5.16761 v 5.16761 h -5.16556 v 5.16755 h -5.16761 -5.16556 v 5.16561 h -5.16761 -5.16761 v 5.16758 h -5.16555 v 5.16549 h -5.16761 -5.16756 v 5.1677 h -5.16556 -5.16761 v 5.1676 h -5.16556 v 5.1655 h -5.16761 -5.16761 v 5.1676 h -5.16555 -5.16761 v 5.1656 h -5.16556 v -5.1656 h -5.16761 v -5.1676 h -5.16761 v -5.1655 h -5.16556 v -5.1676 h -5.16756 v -5.1677 h -5.16556 v -5.16549 h -5.16761 v -5.16758 h -5.1676 v -5.16561 h -5.16556 v -5.16755 -5.16761 h -5.16761 v -5.16556 h -5.16556 v -5.16761 h -5.16761 v -5.16556 h -5.16761 v -5.16761 h -5.16556 v -5.16761 h -5.16761 v -5.16556 h -5.16756 v -5.1676 h -5.1656 v -5.16556 h -5.16756 v -5.16761 h -5.16556 v -5.16756 h -5.16761 v -5.16556 -5.16761 -5.16761 h 5.16761 v -5.16556 -5.16761 h 5.16556 v -5.16555 -5.16761 h 5.16756 v -5.16761 -5.16556 h 5.1656 v -5.16761 h 5.16756 v -5.16556 -5.16756 h 5.16761 v -5.16761 -5.16556 h 5.16556 v -5.1676 h 5.16761 v -5.16556 -5.16761 h 5.16761 v -5.16761 -5.16556 h 5.16556 v -5.16761 h 5.16761 v -5.16556 -5.16761 h 5.16556 v -5.16761 -5.16555 h 5.1676 v -5.16756 h 5.16761 v -5.16761 z m -77.50383,160.17112 h 5.16761 v 5.16556 h 5.16761 v 5.16761 h 5.16556 v 5.16761 h 5.16756 v 5.16556 h 5.1656 v 5.16761 h 5.16756 v 5.16556 h 5.16761 v 5.16761 h 5.16556 v 5.16755 h 5.16761 v 5.16561 h 5.16761 v 5.16758 h 5.16556 v 5.16549 h 5.16761 v 5.1677 5.1676 h 5.16556 v 5.1655 h 5.1676 v 5.1676 h 5.16761 v 5.1656 h 5.16556 v 5.1676 h 5.16756 v 5.1676 h 5.16556 v 5.1656 h 5.16761 v 5.1676 5.1675 5.1656 h 5.16761 v 5.1676 5.1656 5.1676 h 5.16556 v 5.1676 5.1655 5.1676 h 5.16761 v 5.1656 5.1676 5.1676 5.1656 h 5.16555 v 5.1675 5.1656 5.1676 h 5.16761 v 5.1676 5.1656 5.1676 h 5.16761 v 5.1655 5.1676 5.1677 5.1655 h 5.16556 v 5.1676 5.1676 h -5.16556 -5.16761 v -5.1676 h -5.16761 -5.16555 v -5.1676 h -5.16761 v -5.1655 h -5.16556 -5.16761 v -5.1677 h -5.16761 -5.16556 v -5.1676 h -5.16756 v -5.1655 h -5.16556 v -5.1676 h -5.16761 v -5.1656 h -5.1676 v -5.1676 -5.1676 h -5.16556 v -5.1656 -5.1675 h -5.16761 v -5.1656 h -5.16556 v -5.1676 -5.1676 h -5.16761 v -5.1656 -5.1676 h -5.16761 v -5.1655 -5.1676 h -5.16556 v -5.1676 h -5.16761 v -5.1656 -5.1676 h -5.16756 v -5.1656 -5.1675 h -5.1656 v -5.1676 -5.1656 h -5.16756 v -5.1676 h -5.16556 v -5.1676 -5.1656 h -5.16761 v -5.1676 -5.1655 h -5.16761 v -5.1676 -5.1677 -5.16549 -5.16758 -5.16561 -5.16755 -5.16761 -5.16556 -5.16761 -5.16556 -5.16761 -5.16761 z m 459.84709,0 h 5.16561 v 5.16556 5.16761 5.16761 5.16556 5.16761 5.16556 5.16761 5.16755 5.16561 5.16758 5.16549 5.1677 5.1676 h -5.16561 v 5.1655 5.1676 h -5.16756 v 5.1656 h -5.16761 v 5.1676 5.1676 h -5.16556 v 5.1656 5.1676 h -5.16761 v 5.1675 5.1656 h -5.16556 v 5.1676 h -5.1676 v 5.1656 5.1676 h -5.16761 v 5.1676 5.1655 h -5.16556 v 5.1676 5.1656 h -5.16761 v 5.1676 h -5.16761 v 5.1676 5.1656 h -5.16556 v 5.1675 5.1656 h -5.16756 v 5.1676 h -5.16556 v 5.1676 5.1656 h -5.16761 v 5.1676 h -5.1676 v 5.1655 h -5.16556 -5.16761 v 5.1676 h -5.16556 v 5.1677 h -5.16761 -5.16761 v 5.1655 h -5.16556 -5.16761 v 5.1676 h -5.16556 -5.16755 v 5.1676 h -5.16761 v -5.1676 -5.1676 -5.1655 h 5.16761 v -5.1677 -5.1676 -5.1655 h 5.16755 v -5.1676 -5.1656 -5.1676 h 5.16556 v -5.1676 -5.1656 -5.1675 -5.1656 h 5.16761 v -5.1676 -5.1676 -5.1656 h 5.16556 v -5.1676 -5.1655 -5.1676 h 5.16761 v -5.1676 -5.1656 -5.1676 h 5.16761 v -5.1656 -5.1675 -5.1676 h 5.16556 v -5.1656 h 5.16761 v -5.1676 h 5.16556 v -5.1676 h 5.1676 v -5.1656 h 5.16761 v -5.1676 h 5.16556 v -5.1655 -5.1676 h 5.16756 v -5.1677 h 5.16556 v -5.16549 h 5.16761 v -5.16758 h 5.16761 v -5.16561 h 5.16556 v -5.16755 h 5.16761 v -5.16761 h 5.1676 v -5.16556 h 5.16556 v -5.16761 h 5.16761 v -5.16556 h 5.16556 v -5.16761 h 5.16761 v -5.16761 h 5.16756 z m -237.67291,30.99951 h 5.16556 5.16761 5.16556 5.16761 v 5.16761 h 5.16761 5.16555 v 5.16755 h 5.16761 v 5.16561 h 5.16556 5.16761 v 5.16758 h 5.16756 5.16556 v 5.16549 h 5.16761 v 5.1677 h 5.16761 5.16556 v 5.1676 h 5.1676 5.16556 v 5.1655 h 5.16761 v 5.1676 h 5.16761 5.16556 v 5.1656 h 5.16761 v 5.1676 h 5.16556 5.16761 v 5.1676 h 5.16755 v 5.1656 h 5.16556 v 5.1676 5.1675 5.1656 5.1676 h -5.16556 v 5.1656 5.1676 5.1676 h -5.16755 v 5.1655 5.1676 5.1656 5.1676 h -5.16761 v 5.1676 5.1656 5.1675 h -5.16556 v 5.1656 5.1676 5.1676 h -5.16761 v 5.1656 5.1676 5.1655 5.1676 h -5.16556 v 5.1677 5.1655 5.1676 h -5.16761 v 5.1676 5.1656 5.1676 h -5.16761 v 5.1655 h -5.16556 -5.1676 -5.16556 -5.16761 -5.16761 -5.16556 -5.16756 -5.16761 -5.16556 -5.16761 -5.16555 -5.16761 -5.16761 H 456 h -5.16761 -5.16556 -5.16761 -5.16756 -5.16556 -5.1676 -5.16556 -5.16761 -5.16761 -5.16556 -5.16761 -5.16556 -5.16761 -5.16761 -5.16555 v -5.1655 -5.1676 -5.1656 -5.1676 h -5.16761 v -5.1676 -5.1655 -5.1677 h -5.16756 v -5.1676 -5.1655 -5.1676 h -5.16556 v -5.1656 -5.1676 -5.1676 -5.1656 h -5.16761 v -5.1675 -5.1656 -5.1676 h -5.16556 v -5.1676 -5.1656 -5.1676 -5.1655 h -5.16761 v -5.1676 -5.1676 -5.1656 h -5.16761 v -5.1676 -5.1656 -5.1675 -5.1676 h 5.16761 v -5.1656 h 5.16761 v -5.1676 h 5.16556 v -5.1676 h 5.16761 5.16556 v -5.1656 h 5.16756 5.16761 v -5.1676 h 5.16555 v -5.1655 h 5.16761 5.16761 v -5.1676 h 5.16556 5.16761 v -5.1677 h 5.16556 v -5.16549 h 5.16761 5.16761 v -5.16758 h 5.16556 5.1676 v -5.16561 h 5.16556 v -5.16755 h 5.16756 5.16761 z"
       inkscape:label="edges" />
  </g>
</svg>
