<?xml version="1.0" encoding="UTF-8" standalone="no"?>
<svg
   version="1.1"
   viewBox="0 0 512 512.00001"
   x="0px"
   y="0px"
   id="svg2"
   sodipodi:docname="d2.svg"
   width="512"
   height="512"
   inkscape:version="1.4 (86a8ad7, 2024-10-11)"
   xmlns:inkscape="http://www.inkscape.org/namespaces/inkscape"
   xmlns:sodipodi="http://sodipodi.sourceforge.net/DTD/sodipodi-0.dtd"
   xmlns="http://www.w3.org/2000/svg"
   xmlns:svg="http://www.w3.org/2000/svg">
  <defs
     id="defs2" />
  <sodipodi:namedview
     id="namedview2"
     pagecolor="#505050"
     bordercolor="#ffffff"
     borderopacity="1"
     inkscape:showpageshadow="0"
     inkscape:pageopacity="0"
     inkscape:pagecheckerboard="1"
     inkscape:deskcolor="#505050"
     inkscape:zoom="1.2675781"
     inkscape:cx="256.39446"
     inkscape:cy="203.93221"
     inkscape:window-width="1920"
     inkscape:window-height="1009"
     inkscape:window-x="1912"
     inkscape:window-y="-8"
     inkscape:window-maximized="1"
     inkscape:current-layer="g1" />
  <g
     transform="matrix(0.96771823,0,0,0.96771823,-185.27951,-672.04179)"
     id="g1"
     style="display:inline">
    <path
       id="path7"
       style="display:inline;opacity:1;fill:#2b2b45;stroke-width:5;stroke-linecap:round;stroke-linejoin:round;stroke-miterlimit:5;fill-opacity:1"
       d="M 496,256 A 240,240 0 0 1 256,496 240,240 0 0 1 15.999999,256 240,240 0 0 1 256,16 240,240 0 0 1 496,256 Z"
       inkscape:label="background"
       transform="matrix(1.0333586,0,0,1.0333586,191.46018,694.46019)" />
    <g
       id="g9412"
       inkscape:label="shading">
      <path
         id="path9276"
         style="display:inline;opacity:0.5;fill:#000000;fill-opacity:1;stroke-width:5.00001"
         d="m 412.59901,719.2608 v 5.16761 h -5.16556 -5.16761 -5.16761 -5.16555 v 5.16556 h -5.16756 -5.16761 -5.16556 v 5.16761 h -5.16761 -5.16556 v 5.16556 h -5.1676 -5.16761 -5.16556 v 5.16761 h -5.16761 v 5.1676 h -5.16556 -5.16761 v 5.16556 h -5.16755 -5.16561 v 5.16761 h -5.16756 v 5.16556 h -5.16556 -5.16761 v 5.16761 h -5.16761 v 5.16756 h -5.16555 v 5.1656 h -5.16761 v 5.16756 h -5.16556 v 5.16556 h -5.16761 v 5.16761 h -5.16761 v 5.16761 h -5.16556 v 5.16556 h -5.1676 v 5.1676 h -5.16756 v 5.16761 5.16556 h -5.16556 v 5.16761 h -5.16761 v 5.16556 5.16761 h -5.16556 v 5.16755 h -5.16761 v 5.16556 5.16761 h -5.1676 v 5.16556 5.16761 5.16761 h -5.16556 v 5.16555 5.16761 h -5.16761 v 5.16556 5.16761 5.16761 h -5.16556 v 5.16556 5.16755 5.16561 5.16756 h -5.16761 v 5.16761 5.16556 5.16761 5.1676 5.16556 5.16761 5.16556 5.16761 5.16756 5.1656 5.16756 5.16556 5.16761 5.16761 5.16561 5.1676 5.16555 5.1676 5.1676 5.1656 h 5.16761 v 5.1676 5.1656 5.1675 5.1676 h 5.16556 v 5.1656 5.1676 5.1676 h 5.16761 v 5.1656 5.1676 5.1655 h 5.16556 v 5.1676 5.1676 h 5.1676 v 5.1656 5.1676 h 5.16761 v 5.1656 h 5.16556 v 5.1675 5.1676 h 5.16761 v 5.1656 h 5.16556 v 5.1676 5.1656 h 5.16756 v 5.1676 h 5.1676 v 5.1676 h 5.16556 v 5.1655 h 5.16761 v 5.1676 h 5.16761 v 5.1656 h 5.16556 v 5.1676 h 5.16761 v 5.1676 h 5.16555 v 5.1655 h 5.16761 v 5.1676 h 5.16761 5.16556 v 5.1676 h 5.16756 v 5.1656 h 5.16561 5.16755 v 5.1676 h 5.16761 v 5.1656 h 5.16556 5.16761 v 5.1676 h 5.16556 5.16761 v 5.1676 h 5.1676 5.16556 5.16761 v 5.1655 h 5.16556 5.16761 5.16756 v 5.1677 h 5.16555 5.16761 5.16761 5.16556 v 5.1655 h 5.16761 5.16556 5.1676 5.16761 5.16556 5.16761 5.16556 5.16756 5.1676 5.16556 5.16761 5.16556 5.16761 5.16761 5.16555 5.16761 5.16556 5.16761 5.16761 5.16556 v -5.1655 h 5.16755 5.16761 5.16556 5.16761 v -5.1677 h 5.16556 5.16761 5.1676 v -5.1655 h 5.16556 5.16761 5.16556 v -5.1676 h 5.16761 5.16756 v -5.1676 h 5.16555 5.16761 v -5.1656 h 5.16556 v -5.1676 h 5.16761 5.16761 v -5.1656 h 5.16556 v -5.1676 h 5.1676 5.16556 v -5.1676 h 5.16761 v -5.1655 h 5.16761 v -5.1676 h 5.16556 v -5.1676 h 5.16761 v -5.1656 h 5.16555 v -5.1676 h 5.16756 v -5.1655 h 5.16761 v -5.1676 h 5.16556 v -5.1676 h 5.16761 v -5.1656 -5.1676 h 5.16761 v -5.1656 h 5.16555 v -5.1676 -5.1675 h 5.16761 v -5.1656 h 5.16556 v -5.1676 -5.1656 h 5.16761 v -5.1676 -5.1676 h 5.16761 v -5.1655 -5.1676 -5.1656 h 5.16556 v -5.1676 -5.1676 -5.1656 h 5.16755 v -5.1676 -5.1675 -5.1656 -5.1676 h 5.16556 v -5.1656 -5.1676 -5.1676 -5.16555 -5.1676 -5.16561 -5.16761 -5.16761 -5.16556 -5.16756 -5.1656 -5.16756 -5.16761 -5.16556 -5.16761 -5.16556 -5.1676 -5.16761 -5.16556 -5.16761 h -5.16556 v -5.16756 -5.16561 -5.16755 -5.16556 h -5.16755 v -5.16761 -5.16761 -5.16556 h -5.16556 v -5.16761 -5.16555 -5.16761 h -5.16761 v -5.16761 -5.16556 H 686.439 v -5.16761 -5.16556 h -5.16556 v -5.16755 h -5.16761 v -5.16761 -5.16556 h -5.16555 v -5.16761 h -5.16761 v -5.16556 -5.16761 h -5.16761 v -5.1676 h -5.16556 v -5.16556 h -5.16761 v -5.16761 h -5.16756 v -5.16761 h -5.16555 v -5.16556 h -5.16761 v -5.16756 h -5.16556 v -5.1656 H 624.438 v -5.16756 h -5.16761 v -5.16761 h -5.16556 -5.1676 v -5.16556 h -5.16556 v -5.16761 h -5.16761 -5.16761 v -5.16556 h -5.16556 v -5.1676 h -5.16761 -5.16555 v -5.16761 h -5.16756 -5.16761 -5.16556 v -5.16556 h -5.16761 -5.16556 v -5.16761 h -5.1676 -5.16761 -5.16556 v -5.16556 h -5.16761 -5.16556 -5.16761 -5.16755 v -5.16761 h -5.16556 -5.16761 -5.16761 -5.16556 -5.16761 -5.16555 -5.16761 -5.16761 -5.16556 -5.16761 -5.16556 -5.1676 -5.16756 -5.16556 -5.16761 -5.16556 -5.16761 -5.1676 -5.16556 z m 20.66838,15.50078 h 5.16556 5.16761 5.16556 5.16756 5.1676 5.16556 5.16761 5.16556 5.16761 5.16761 5.16555 5.16761 v 5.16556 h 5.16556 5.16761 5.16761 5.16556 5.16755 v 5.16761 h 5.16761 5.16556 5.16761 5.16556 v 5.1676 h 5.16761 5.1676 v 5.16556 h 5.16556 5.16761 v 5.16761 h 5.16556 5.16761 v 5.16556 h 5.16756 5.16555 v 5.16761 h 5.16761 5.16556 v 5.16756 h 5.16761 v 5.1656 h 5.16761 v 5.16756 h 5.16556 5.1676 v 5.16556 h 5.16556 v 5.16761 h 5.16761 v 5.16761 h 5.16761 v 5.16556 h 5.16556 v 5.1676 h 5.16761 v 5.16761 h 5.16555 v 5.16556 5.16761 h 5.16756 v 5.16556 h 5.16761 v 5.16761 h 5.16556 v 5.16755 5.16556 h 5.16761 v 5.16761 5.16556 h 5.16761 v 5.16761 5.16761 h 5.16555 v 5.16555 5.16761 h 5.16761 v 5.16556 5.16761 h 5.16556 v 5.16761 5.16556 5.16755 5.16561 h 5.16761 v 5.16756 5.16761 5.16556 5.16761 h 5.16761 v 5.1676 5.16556 5.16761 5.16556 5.16761 5.16756 5.1656 5.16756 5.16556 5.16761 5.16761 5.16561 5.1676 h -5.16761 v 5.16555 5.1676 5.1676 5.1656 5.1676 H 686.439 v 5.1656 5.1675 5.1676 5.1656 h -5.16556 v 5.1676 5.1676 h -5.16761 v 5.1656 5.1676 h -5.16555 v 5.1655 5.1676 h -5.16761 v 5.1676 5.1656 h -5.16761 v 5.1676 5.1656 h -5.16556 v 5.1675 h -5.16761 v 5.1676 h -5.16756 v 5.1656 5.1676 h -5.16555 v 5.1656 h -5.16761 v 5.1676 h -5.16556 v 5.1676 H 624.438 v 5.1655 h -5.16761 v 5.1676 h -5.16556 v 5.1656 h -5.1676 -5.16556 v 5.1676 h -5.16761 v 5.1676 h -5.16761 v 5.1655 h -5.16556 -5.16761 v 5.1676 h -5.16555 -5.16756 v 5.1676 h -5.16761 -5.16556 v 5.1656 h -5.16761 -5.16556 v 5.1676 h -5.1676 -5.16761 v 5.1656 h -5.16556 -5.16761 -5.16556 -5.16761 v 5.1676 h -5.16755 -5.16556 -5.16761 -5.16761 -5.16556 v 5.1676 h -5.16761 -5.16555 -5.16761 -5.16761 -5.16556 -5.16761 -5.16556 -5.1676 -5.16756 -5.16556 -5.16761 -5.16556 -5.16761 v -5.1676 h -5.1676 -5.16556 -5.16761 -5.16556 v -5.1676 h -5.16761 -5.16761 -5.16555 -5.16756 v -5.1656 h -5.16761 -5.16556 v -5.1676 h -5.16761 -5.16556 v -5.1656 h -5.1676 -5.16761 v -5.1676 h -5.16556 -5.16761 v -5.1676 h -5.16556 -5.16761 v -5.1655 h -5.16755 v -5.1676 h -5.16561 v -5.1676 h -5.16756 -5.16556 v -5.1656 h -5.16761 v -5.1676 h -5.16761 v -5.1655 h -5.16555 v -5.1676 h -5.16761 v -5.1676 h -5.16556 v -5.1656 h -5.16761 v -5.1676 -5.1656 h -5.16761 v -5.1676 h -5.16556 v -5.1675 h -5.1676 v -5.1656 -5.1676 h -5.16756 v -5.1656 -5.1676 h -5.16556 v -5.1676 -5.1655 h -5.16761 v -5.1676 -5.1656 h -5.16556 v -5.1676 -5.1676 -5.1656 h -5.16761 v -5.1676 -5.1675 -5.1656 h -5.1676 v -5.1676 -5.1656 -5.1676 -5.1676 -5.16555 h -5.16556 v -5.1676 -5.16561 -5.16761 -5.16761 -5.16556 -5.16756 -5.1656 -5.16756 -5.16761 -5.16556 -5.16761 -5.16556 h 5.16556 v -5.1676 -5.16761 -5.16556 -5.16761 -5.16756 h 5.1676 v -5.16561 -5.16755 -5.16556 h 5.16761 v -5.16761 -5.16761 -5.16556 h 5.16556 v -5.16761 -5.16555 h 5.16761 v -5.16761 -5.16761 h 5.16556 v -5.16556 -5.16761 h 5.16756 v -5.16556 -5.16755 h 5.1676 v -5.16761 h 5.16556 v -5.16556 h 5.16761 v -5.16761 -5.16556 h 5.16761 v -5.16761 h 5.16556 v -5.1676 h 5.16761 v -5.16556 h 5.16555 v -5.16761 h 5.16761 v -5.16761 h 5.16761 v -5.16556 h 5.16556 5.16756 v -5.16756 h 5.16561 v -5.1656 h 5.16755 v -5.16756 h 5.16761 5.16556 v -5.16761 h 5.16761 5.16556 v -5.16556 h 5.16761 5.1676 v -5.16761 h 5.16556 5.16761 v -5.16556 h 5.16556 5.16761 5.16756 v -5.1676 h 5.16555 5.16761 5.16761 v -5.16761 h 5.16556 5.16761 5.16556 5.1676 5.16761 z"
         inkscape:label="dropshadow" />
    </g>
    <path
       id="path9412"
       style="display:inline;fill:#000000;fill-opacity:1;stroke-width:5.00001"
       d="m 404.33217,710.99394 v 5.16761 h -5.16556 -5.16761 -5.16761 -5.16555 v 5.16556 h -5.16756 -5.16761 -5.16556 v 5.16761 h -5.16761 -5.16556 v 5.16556 h -5.1676 -5.16761 -5.16556 v 5.16761 h -5.16761 v 5.1676 h -5.16556 -5.16761 v 5.16556 h -5.16755 -5.16561 v 5.16761 h -5.16756 v 5.16556 h -5.16556 -5.16761 v 5.16761 h -5.16761 v 5.16756 h -5.16555 v 5.1656 h -5.16761 v 5.16756 h -5.16556 v 5.16556 h -5.16761 v 5.16761 h -5.16761 v 5.16761 h -5.16556 v 5.16556 h -5.1676 v 5.1676 h -5.16756 v 5.16761 5.16556 h -5.16556 v 5.16761 h -5.16761 v 5.16556 5.16761 h -5.16556 v 5.16755 h -5.16761 v 5.16556 5.16761 h -5.1676 v 5.16556 5.16761 5.16761 h -5.16556 v 5.16555 5.16761 h -5.16761 v 5.16556 5.16761 5.16761 h -5.16556 v 5.16556 5.16755 5.16561 5.16756 h -5.16761 v 5.16761 5.16556 5.16761 5.1676 5.16556 5.16761 5.16556 5.16761 5.16756 5.1656 5.16756 5.16556 5.16761 5.16761 5.16556 5.1676 5.16554 5.16762 5.1676 5.1656 h 5.16761 v 5.1676 5.1656 5.1675 5.1676 h 5.16556 v 5.1656 5.1676 5.1676 h 5.16761 v 5.1656 5.1676 5.1655 h 5.16556 v 5.1676 5.1676 h 5.1676 v 5.1656 5.1676 h 5.16761 v 5.1656 h 5.16556 v 5.1675 5.1676 h 5.16761 v 5.1656 h 5.16556 v 5.1676 5.1656 h 5.16756 v 5.1676 h 5.1676 v 5.1676 h 5.16556 v 5.1655 h 5.16761 v 5.1676 h 5.16761 v 5.1656 h 5.16556 v 5.1676 h 5.16761 v 5.1676 h 5.16555 v 5.1655 h 5.16761 v 5.1676 h 5.16761 5.16556 v 5.1676 h 5.16756 v 5.1656 h 5.16561 5.16755 v 5.1676 h 5.16761 v 5.1656 h 5.16556 5.16761 v 5.1676 h 5.16556 5.16761 v 5.1676 h 5.1676 5.16556 5.16761 v 5.1655 h 5.16556 5.16761 5.16756 v 5.1677 h 5.16555 5.16761 5.16761 5.16556 v 5.1655 h 5.16761 5.16556 5.1676 5.16761 5.16556 5.16761 5.16556 5.16756 5.1676 5.16556 5.16761 5.16556 5.16761 5.16761 5.16555 5.16761 5.16556 5.16761 5.16761 5.16556 v -5.1655 h 5.16755 5.16761 5.16556 5.16761 v -5.1677 h 5.16556 5.16761 5.1676 v -5.1655 h 5.16556 5.16761 5.16556 v -5.1676 h 5.16761 5.16756 v -5.1676 h 5.16555 5.16761 v -5.1656 h 5.16556 v -5.1676 h 5.16761 5.16761 v -5.1656 h 5.16556 v -5.1676 h 5.1676 5.16556 v -5.1676 h 5.16761 v -5.1655 h 5.16761 v -5.1676 h 5.16556 v -5.1676 h 5.16761 v -5.1656 h 5.16555 v -5.1676 h 5.16756 v -5.1655 h 5.16761 v -5.1676 h 5.16556 v -5.1676 h 5.16761 v -5.1656 -5.1676 h 5.16761 v -5.1656 h 5.16555 v -5.1676 -5.1675 h 5.16761 v -5.1656 h 5.16556 v -5.1676 -5.1656 h 5.16761 v -5.1676 -5.1676 h 5.16761 v -5.1655 -5.1676 -5.1656 h 5.16556 v -5.1676 -5.1676 -5.1656 h 5.16755 v -5.1676 -5.1675 -5.1656 -5.1676 h 5.16556 v -5.1656 -5.1676 -5.16762 -5.16554 -5.1676 -5.16556 -5.16761 -5.16761 -5.16556 -5.16756 -5.1656 -5.16756 -5.16761 -5.16556 -5.16761 -5.16556 -5.1676 -5.16761 -5.16556 -5.16761 h -5.16556 v -5.16756 -5.16561 -5.16755 -5.16556 h -5.16755 v -5.16761 -5.16761 -5.16556 h -5.16556 v -5.16761 -5.16555 -5.16761 h -5.16761 v -5.16761 -5.16556 h -5.16761 v -5.16761 -5.16556 h -5.16556 v -5.16755 h -5.16761 v -5.16761 -5.16556 h -5.16555 v -5.16761 h -5.16761 v -5.16556 -5.16761 h -5.16761 v -5.1676 h -5.16556 v -5.16556 h -5.16761 v -5.16761 h -5.16756 v -5.16761 h -5.16555 v -5.16556 h -5.16761 v -5.16756 h -5.16556 v -5.1656 h -5.16761 v -5.16756 h -5.16761 v -5.16761 h -5.16556 -5.1676 v -5.16556 h -5.16556 v -5.16761 h -5.16761 -5.16761 v -5.16556 h -5.16556 v -5.1676 h -5.16761 -5.16555 v -5.16761 h -5.16756 -5.16761 -5.16556 v -5.16556 h -5.16761 -5.16556 v -5.16761 h -5.1676 -5.16761 -5.16556 v -5.16556 h -5.16761 -5.16556 -5.16761 -5.16755 v -5.16761 h -5.16556 -5.16761 -5.16761 -5.16556 -5.16761 -5.16555 -5.16761 -5.16761 -5.16556 H 456 h -5.16556 -5.1676 -5.16756 -5.16556 -5.16761 -5.16556 -5.16761 -5.1676 -5.16556 z m 20.66838,15.50078 h 5.16556 5.16761 5.16556 5.16756 5.1676 5.16556 5.16761 5.16556 5.16761 5.16761 5.16555 5.16761 v 5.16556 h 5.16556 5.16761 5.16761 5.16556 5.16755 v 5.16761 h 5.16761 5.16556 5.16761 5.16556 v 5.1676 h 5.16761 5.1676 v 5.16556 h 5.16556 5.16761 v 5.16761 h 5.16556 5.16761 v 5.16556 h 5.16756 5.16555 v 5.16761 h 5.16761 5.16556 v 5.16756 h 5.16761 v 5.1656 h 5.16761 v 5.16756 h 5.16556 5.1676 v 5.16556 h 5.16556 v 5.16761 h 5.16761 v 5.16761 h 5.16761 v 5.16556 h 5.16556 v 5.1676 h 5.16761 v 5.16761 h 5.16555 v 5.16556 5.16761 h 5.16756 v 5.16556 h 5.16761 v 5.16761 h 5.16556 v 5.16755 5.16556 h 5.16761 v 5.16761 5.16556 h 5.16761 v 5.16761 5.16761 h 5.16555 v 5.16555 5.16761 h 5.16761 v 5.16556 5.16761 h 5.16556 v 5.16761 5.16556 5.16755 5.16561 h 5.16761 v 5.16756 5.16761 5.16556 5.16761 h 5.16761 v 5.1676 5.16556 5.16761 5.16556 5.16761 5.16756 5.1656 5.16756 5.16556 5.16761 5.16761 5.16556 5.1676 h -5.16761 v 5.16554 5.16762 5.1676 5.1656 5.1676 h -5.16761 v 5.1656 5.1675 5.1676 5.1656 h -5.16556 v 5.1676 5.1676 h -5.16761 v 5.1656 5.1676 h -5.16555 v 5.1655 5.1676 h -5.16761 v 5.1676 5.1656 h -5.16761 v 5.1676 5.1656 h -5.16556 v 5.1675 h -5.16761 v 5.1676 h -5.16756 v 5.1656 5.1676 h -5.16555 v 5.1656 h -5.16761 v 5.1676 h -5.16556 v 5.1676 h -5.16761 v 5.1655 h -5.16761 v 5.1676 h -5.16556 v 5.1656 h -5.1676 -5.16556 v 5.1676 h -5.16761 v 5.1676 h -5.16761 v 5.1655 h -5.16556 -5.16761 v 5.1676 h -5.16555 -5.16756 v 5.1676 h -5.16761 -5.16556 v 5.1656 h -5.16761 -5.16556 v 5.1676 h -5.1676 -5.16761 v 5.1656 h -5.16556 -5.16761 -5.16556 -5.16761 v 5.1676 h -5.16755 -5.16556 -5.16761 -5.16761 -5.16556 v 5.1676 h -5.16761 -5.16555 -5.16761 -5.16761 -5.16556 H 456 h -5.16556 -5.1676 -5.16756 -5.16556 -5.16761 -5.16556 -5.16761 v -5.1676 h -5.1676 -5.16556 -5.16761 -5.16556 v -5.1676 h -5.16761 -5.16761 -5.16555 -5.16756 v -5.1656 h -5.16761 -5.16556 v -5.1676 h -5.16761 -5.16556 v -5.1656 h -5.1676 -5.16761 v -5.1676 h -5.16556 -5.16761 v -5.1676 h -5.16556 -5.16761 v -5.1655 h -5.16755 v -5.1676 h -5.16561 v -5.1676 h -5.16756 -5.16556 v -5.1656 h -5.16761 v -5.1676 h -5.16761 v -5.1655 h -5.16555 v -5.1676 h -5.16761 v -5.1676 h -5.16556 v -5.1656 h -5.16761 v -5.1676 -5.1656 h -5.16761 v -5.1676 h -5.16556 v -5.1675 h -5.1676 v -5.1656 -5.1676 h -5.16756 v -5.1656 -5.1676 h -5.16556 v -5.1676 -5.1655 h -5.16761 v -5.1676 -5.1656 h -5.16556 v -5.1676 -5.1676 -5.1656 h -5.16761 v -5.1676 -5.1675 -5.1656 h -5.1676 v -5.1676 -5.1656 -5.1676 -5.16762 -5.16554 h -5.16556 v -5.1676 -5.16556 -5.16761 -5.16761 -5.16556 -5.16756 -5.1656 -5.16756 -5.16761 -5.16556 -5.16761 -5.16556 h 5.16556 v -5.1676 -5.16761 -5.16556 -5.16761 -5.16756 h 5.1676 v -5.16561 -5.16755 -5.16556 h 5.16761 v -5.16761 -5.16761 -5.16556 h 5.16556 v -5.16761 -5.16555 h 5.16761 v -5.16761 -5.16761 h 5.16556 v -5.16556 -5.16761 h 5.16756 v -5.16556 -5.16755 h 5.1676 v -5.16761 h 5.16556 v -5.16556 h 5.16761 v -5.16761 -5.16556 h 5.16761 v -5.16761 h 5.16556 v -5.1676 h 5.16761 v -5.16556 h 5.16555 v -5.16761 h 5.16761 v -5.16761 h 5.16761 v -5.16556 h 5.16556 5.16756 v -5.16756 h 5.16561 v -5.1656 h 5.16755 v -5.16756 h 5.16761 5.16556 v -5.16761 h 5.16761 5.16556 v -5.16556 h 5.16761 5.1676 v -5.16761 h 5.16556 5.16761 v -5.16556 h 5.16556 5.16761 5.16756 v -5.1676 h 5.16555 5.16761 5.16761 v -5.16761 h 5.16556 5.16761 5.16556 5.1676 5.16761 z"
       inkscape:label="edges" />
  </g>
</svg>
