<?xml version="1.0" encoding="UTF-8" standalone="no"?>
<svg
   version="1.1"
   viewBox="0 0 512 512"
   x="0px"
   y="0px"
   id="svg2"
   sodipodi:docname="d20.svg"
   width="512"
   height="512"
   inkscape:version="1.4 (86a8ad7, 2024-10-11)"
   xmlns:inkscape="http://www.inkscape.org/namespaces/inkscape"
   xmlns:sodipodi="http://sodipodi.sourceforge.net/DTD/sodipodi-0.dtd"
   xmlns="http://www.w3.org/2000/svg"
   xmlns:svg="http://www.w3.org/2000/svg">
  <defs
     id="defs2" />
  <sodipodi:namedview
     id="namedview2"
     pagecolor="#505050"
     bordercolor="#ffffff"
     borderopacity="1"
     inkscape:showpageshadow="0"
     inkscape:pageopacity="0"
     inkscape:pagecheckerboard="1"
     inkscape:deskcolor="#505050"
     inkscape:zoom="1.2675781"
     inkscape:cx="255.2111"
     inkscape:cy="255.2111"
     inkscape:window-width="1920"
     inkscape:window-height="1009"
     inkscape:window-x="-8"
     inkscape:window-y="-8"
     inkscape:window-maximized="1"
     inkscape:current-layer="g8248" />
  <g
     transform="matrix(1.7778886,0,0,1.7778886,-338.70375,-35.558775)"
     id="g1">
    <path
       id="path1"
       style="fill:#2b2b45"
       inkscape:label="background"
       d="m 330.94727,33.212891 c -13.7577,7.421183 -27.32302,15.189605 -40.95237,22.842242 -12.00776,6.786016 -24.05381,13.503385 -36.09868,20.222685 -11.68324,6.615525 -23.40034,13.173863 -35.15013,19.673354 -0.16862,44.433598 -0.33724,88.867188 -0.50586,133.300778 22.85547,13.3967 45.76111,26.69445 68.70137,39.94912 15.44357,8.93409 30.88403,17.87436 46.28051,26.88473 0.45899,0.18563 0.94313,0.72192 1.41324,0.26413 5.95439,-2.99332 11.61763,-6.52061 17.40696,-9.81362 32.917,-19.06821 65.76427,-38.25833 98.71746,-57.26287 -0.16862,-44.36393 -0.33724,-88.72787 -0.50586,-133.091799 -25.68017,-14.584893 -51.4246,-29.054714 -77.22868,-43.419455 -12.22974,-6.809561 -24.398,-13.734177 -36.77132,-20.281717 -0.66887,-0.341284 -1.33611,-0.685832 -2.01172,-1.013672 -1.09831,0.582031 -2.19662,1.164062 -3.29492,1.746094 z" />
    <g
       id="g8248"
       inkscape:label="shading">
      <path
         id="path8247"
         style="fill:#000000;fill-opacity:1;stroke-width:4.94845;opacity:0.5"
         d="m 334.82437,33.499723 v 2.783762 h -2.78375 -2.78267 v 2.782664 h -2.78375 v 2.783763 h -2.78375 -2.78267 v 2.782664 h -2.78375 -2.78266 v 2.783762 h -2.78376 -2.7838 v 2.783763 h -2.78266 -2.78375 v 2.782664 h -2.78267 v 2.783762 h -2.78375 -2.78375 v 2.782664 h -2.78267 -2.78375 v 2.783757 h -2.78266 -2.78381 v 2.783763 h -2.78375 -2.78266 v 2.782664 h -2.78376 v 2.783762 h -2.78266 -2.78375 V 72.4669 h -2.78375 -2.78267 v 2.782664 h -2.78375 -2.78266 v 2.783762 h -2.78381 v 2.782664 h -2.78375 -2.78266 v 2.783763 h -2.78376 -2.78375 v 2.783762 h -2.78266 -2.78376 v 2.782664 h -2.78266 -2.7838 v 2.783757 h -2.78375 V 94.7326 h -2.78267 -2.78375 v 2.783763 h -2.78266 -2.78376 v 2.783757 2.78267 2.78376 2.78266 2.78377 2.78376 2.78266 2.78376 2.78266 2.78377 2.78376 2.78266 2.78377 2.78376 2.78266 2.78376 2.78267 2.78376 2.78376 2.78266 2.78376 2.78267 2.78376 2.78376 2.78267 2.78376 2.78266 2.78377 2.78376 2.78266 2.78376 2.78266 2.78377 2.78376 2.78266 2.78377 2.78266 2.78376 2.78376 2.78267 2.78376 2.78376 2.78266 2.78376 2.78267 2.78376 2.78376 2.78267 2.78376 2.78266 h 2.78376 v 2.78377 h 2.78266 2.78375 v 2.78375 h 2.78267 2.78375 v 2.78267 h 2.7838 v 2.78376 h 2.78266 2.78376 v 2.78266 h 2.78266 2.78375 v 2.78377 h 2.78376 2.78266 v 2.78376 h 2.78375 v 2.78266 h 2.78381 2.78266 v 2.78377 h 2.78375 2.78267 v 2.78266 h 2.78375 v 2.78376 h 2.78375 2.78266 v 2.78376 h 2.78376 2.78266 v 2.78266 h 2.78375 2.78381 v 2.78377 h 2.78266 v 2.78376 h 2.78375 2.78267 v 2.78266 h 2.78375 2.78375 v 2.78376 h 2.78267 v 2.78267 h 2.78375 2.78266 v 2.78376 h 2.7838 2.78376 v 2.78376 h 2.78266 2.78375 v 2.78267 h 2.78267 v 2.78376 h 2.78375 2.78375 v 2.78266 h 2.78267 2.78375 v 2.78376 h 2.7838 2.78266 2.78376 v -2.78376 h 2.78266 2.78375 v -2.78266 h 2.78376 v -2.78376 h 2.78266 2.78375 v -2.78267 h 2.78267 2.7838 v -2.78376 h 2.78375 2.78266 v -2.78376 h 2.78376 v -2.78267 h 2.78266 2.78375 v -2.78376 h 2.78376 2.78266 v -2.78266 h 2.7838 v -2.78376 h 2.78375 2.78267 v -2.78377 h 2.78375 2.78267 v -2.78266 h 2.78375 2.78375 v -2.78376 h 2.78266 v -2.78376 h 2.78376 2.78266 v -2.78266 h 2.7838 2.78376 v -2.78377 h 2.78266 2.78375 v -2.78266 h 2.78267 v -2.78376 h 2.78375 2.78375 v -2.78377 h 2.78266 2.78381 v -2.78266 h 2.78266 v -2.78376 h 2.78375 2.78376 v -2.78267 h 2.78266 2.78375 v -2.78375 h 2.78267 2.78375 v -2.78377 h 2.78375 v -2.78266 -2.78376 -2.78267 -2.78376 -2.78376 -2.78267 -2.78376 -2.78266 -2.78376 -2.78376 -2.78267 -2.78376 -2.78376 -2.78266 -2.78377 -2.78266 -2.78376 -2.78377 -2.78266 -2.78376 -2.78266 -2.78376 -2.78377 -2.78266 -2.78376 -2.78267 -2.78376 -2.78376 -2.78267 -2.78376 -2.78266 -2.78376 -2.78376 -2.78267 -2.78376 -2.78266 -2.78376 -2.78377 -2.78266 -2.78376 -2.78377 -2.78266 -2.78376 -2.78266 -2.78376 -2.78377 -2.78266 -2.78376 -2.78267 -2.783757 h -2.78375 -2.78375 V 94.7326 h -2.78267 -2.78375 v -2.782664 h -2.78266 -2.78376 v -2.783757 h -2.78375 -2.78266 v -2.782664 h -2.78381 V 83.599753 H 429.458 426.67425 V 80.81599 h -2.78375 -2.78267 v -2.782664 h -2.78375 -2.78266 v -2.783762 h -2.78376 V 72.4669 h -2.7838 -2.78266 v -2.783763 h -2.78376 -2.78266 v -2.783762 h -2.78375 -2.78375 v -2.782664 h -2.78267 -2.78375 v -2.783763 h -2.78267 v -2.783757 h -2.78375 -2.7838 v -2.782664 h -2.78266 -2.78376 v -2.783762 h -2.78375 -2.78266 v -2.782664 h -2.78376 v -2.783763 h -2.78266 -2.78375 v -2.783762 h -2.7838 -2.78267 v -2.782664 h -2.78375 -2.78266 v -2.783763 h -2.78376 -2.78375 v -2.782664 h -2.78266 -2.78376 v -2.783762 h -2.78266 z m 0,13.916615 h 2.7838 2.78266 v 2.783763 h 2.78376 v 2.782664 h 2.78266 v 2.783762 h 2.78375 v 2.782664 h 2.78376 v 2.783757 2.783763 h 2.78266 v 2.782664 h 2.78375 v 2.783762 h 2.78267 V 72.4669 h 2.7838 v 2.782664 2.783762 h 2.78375 v 2.782664 h 2.78266 v 2.783763 h 2.78376 v 2.783762 h 2.78266 v 2.782664 2.783757 h 2.78375 V 94.7326 h 2.78376 v 2.783763 h 2.78266 v 2.783757 h 2.7838 v 2.78267 h 2.78375 v 2.78376 2.78266 h 2.78267 v 2.78377 h 2.78375 v 2.78376 h 2.78267 v 2.78266 h 2.78375 v 2.78376 h -2.78375 v 2.78266 h -2.78267 -2.78375 -2.78267 -2.78375 -2.7838 -2.78266 -2.78376 -2.78375 -2.78266 -2.78376 -2.78266 -2.78375 -2.7838 -2.78267 -2.78375 -2.78266 -2.78376 -2.78375 -2.78266 -2.78376 -2.78266 -2.7838 -2.78375 -2.78267 -2.78375 -2.78375 -2.78267 -2.78375 -2.78266 -2.78376 -2.7838 -2.78266 -2.78375 -2.78267 -2.78375 -2.78375 -2.78267 -2.78375 -2.78266 -2.78381 -2.78375 -2.78266 -2.78376 v -2.78266 h 2.78376 v -2.78376 h 2.78266 v -2.78266 h 2.78375 v -2.78376 h 2.78381 v -2.78377 -2.78266 h 2.78266 v -2.78376 h 2.78375 v -2.78267 h 2.78267 v -2.783757 h 2.78375 V 94.7326 91.949936 h 2.78375 v -2.783757 h 2.78267 v -2.782664 h 2.78375 v -2.783762 h 2.78266 V 80.81599 h 2.7838 v -2.782664 -2.783762 h 2.78376 V 72.4669 h 2.78266 v -2.783763 h 2.78375 v -2.783762 h 2.78267 v -2.782664 -2.783763 h 2.78375 v -2.783757 h 2.78375 v -2.782664 h 2.78267 v -2.783762 h 2.78375 v -2.782664 z m -25.05056,11.132853 h 2.7838 v 2.783757 2.783763 h -2.7838 v 2.782664 h -2.78266 v 2.783762 h -2.78375 v 2.783763 2.782664 h -2.78267 v 2.783762 h -2.78375 v 2.782664 h -2.78375 v 2.783763 h -2.78267 v 2.783762 2.782664 h -2.78375 v 2.783757 h -2.78266 V 94.7326 h -2.78381 v 2.783763 h -2.78375 v 2.783757 2.78267 h -2.78266 v 2.78376 h -2.78376 v 2.78266 h -2.78266 v 2.78377 h -2.78375 v 2.78376 h -2.78375 v 2.78266 2.78376 h -2.78267 -2.78375 v -2.78376 h -2.78266 -2.78381 v -2.78266 h -2.78375 -2.78266 v -2.78376 h -2.78376 v -2.78377 h -2.78375 -2.78266 v -2.78266 h -2.78376 -2.78266 v -2.78376 -2.78267 h 2.78266 v -2.783757 h 2.78376 2.78266 V 94.7326 h 2.78375 v -2.782664 h 2.78376 2.78266 v -2.783757 h 2.78375 2.78381 v -2.782664 h 2.78266 2.78375 v -2.783762 h 2.78267 2.78375 V 80.81599 h 2.78375 v -2.782664 h 2.78266 2.78376 v -2.783762 h 2.78266 2.78375 V 72.4669 h 2.78381 2.78266 v -2.783763 h 2.78375 2.78267 v -2.783762 h 2.78375 v -2.782664 h 2.78375 2.78267 v -2.783763 h 2.78375 2.78266 z m 52.88383,0 h 2.78375 2.78266 v 2.783757 h 2.78376 2.78266 v 2.783763 h 2.78375 2.78376 v 2.782664 h 2.78266 v 2.783762 h 2.7838 2.78375 V 72.4669 h 2.78267 2.78375 v 2.782664 h 2.78267 2.78375 v 2.783762 h 2.78375 v 2.782664 h 2.78266 2.78376 v 2.783763 h 2.78266 2.7838 v 2.783762 h 2.78376 2.78266 v 2.782664 h 2.78375 v 2.783757 h 2.78267 2.78375 V 94.7326 h 2.78375 2.78266 v 2.783763 h 2.78381 2.78266 v 2.783757 h 2.78375 2.78376 v 2.78267 h -2.78376 v 2.78376 h -2.78375 -2.78266 v 2.78266 h -2.78381 -2.78266 v 2.78377 h -2.78375 -2.78375 v 2.78376 h -2.78267 v 2.78266 h -2.78375 -2.78266 v 2.78376 h -2.78376 -2.7838 v -2.78376 h -2.78266 v -2.78266 h -2.78376 v -2.78376 -2.78377 h -2.78266 v -2.78266 h -2.78375 v -2.78376 h -2.78375 v -2.78267 h -2.78267 v -2.783757 h -2.78375 V 94.7326 91.949936 h -2.78267 v -2.783757 h -2.78375 v -2.782664 h -2.7838 v -2.783762 h -2.78266 V 80.81599 78.033326 h -2.78376 v -2.783762 h -2.78375 V 72.4669 h -2.78266 v -2.783763 h -2.78376 v -2.783762 -2.782664 h -2.78266 v -2.783763 h -2.78375 z M 231.84057,111.43298 h 2.78375 v 2.78376 h 2.7838 2.78266 v 2.78266 h 2.78376 v 2.78376 h 2.78266 2.78375 v 2.78266 h 2.78376 v 2.78377 h 2.78266 2.78375 v 2.78376 h 2.78381 v 2.78266 2.78377 2.78376 h -2.78381 v 2.78266 2.78376 h -2.78375 v 2.78267 2.78376 2.78376 h -2.78266 v 2.78266 2.78376 h -2.78376 v 2.78267 2.78376 2.78376 h -2.78375 v 2.78267 2.78376 h -2.78266 v 2.78266 2.78377 2.78376 h -2.78376 v 2.78266 2.78376 h -2.78266 v 2.78266 2.78377 2.78376 h -2.7838 v 2.78266 2.78377 h -2.78375 -2.78267 v -2.78377 -2.78266 -2.78376 -2.78377 -2.78266 -2.78376 -2.78266 -2.78376 -2.78377 -2.78266 -2.78376 -2.78267 -2.78376 -2.78376 -2.78267 -2.78376 -2.78266 -2.78376 -2.78376 -2.78267 -2.78376 -2.78266 -2.78376 -2.78377 -2.78266 -2.78376 -2.78377 -2.78266 -2.78376 -2.78266 h 2.78267 z m 211.53407,0 h 2.78266 v 2.78376 h 2.78375 v 2.78266 2.78376 2.78266 2.78377 2.78376 2.78266 2.78377 2.78376 2.78266 2.78376 2.78267 2.78376 2.78376 2.78266 2.78376 2.78267 2.78376 2.78376 2.78267 2.78376 2.78266 2.78377 2.78376 2.78266 2.78376 2.78266 2.78377 2.78376 2.78266 2.78377 h -2.78375 v 2.78266 h -2.78266 v -2.78266 -2.78377 h -2.78376 v -2.78266 -2.78376 -2.78377 h -2.78375 v -2.78266 -2.78376 h -2.78266 v -2.78266 -2.78376 -2.78377 h -2.78381 v -2.78266 -2.78376 -2.78267 H 429.458 v -2.78376 -2.78376 h -2.78375 v -2.78267 -2.78376 -2.78266 h -2.78375 v -2.78376 -2.78376 h -2.78267 v -2.78267 -2.78376 -2.78266 h -2.78375 v -2.78376 -2.78377 -2.78266 h 2.78375 v -2.78376 h 2.78267 v -2.78377 h 2.78375 2.78375 v -2.78266 h 2.78266 2.78381 v -2.78376 h 2.78266 v -2.78266 h 2.78375 2.78376 z m -167.00047,19.48303 h 2.78376 2.78266 2.78375 2.78381 2.78266 2.78375 2.78267 2.78375 2.78375 2.78267 2.78375 2.78266 2.7838 2.78376 2.78266 2.78375 2.78267 2.78375 2.78375 2.78267 2.78375 2.7838 2.78266 2.78376 2.78266 2.78375 2.78376 2.78266 2.78375 2.78267 2.7838 2.78375 2.78266 2.78376 2.78266 2.78375 2.78376 2.78266 2.7838 2.78375 2.78267 2.78375 2.78267 2.78375 2.78375 v 2.78377 h -2.78375 v 2.78376 2.78266 h -2.78375 v 2.78376 2.78267 h -2.78267 v 2.78376 2.78376 h -2.78375 v 2.78266 h -2.78267 v 2.78376 2.78267 h -2.78375 v 2.78376 2.78376 h -2.7838 v 2.78267 2.78376 h -2.78266 v 2.78266 h -2.78376 v 2.78377 2.78376 h -2.78375 v 2.78266 2.78376 h -2.78266 v 2.78266 2.78377 h -2.78376 v 2.78376 h -2.78266 v 2.78266 2.78377 h -2.78375 v 2.78266 2.78376 h -2.7838 v 2.78376 2.78267 h -2.78267 v 2.78376 2.78376 h -2.78375 v 2.78266 h -2.78266 v 2.78376 2.78267 H 348.741 v 2.78376 2.78376 h -2.78375 v 2.78267 2.78376 h -2.78266 v 2.78266 h -2.78376 v 2.78377 h -2.78266 -2.7838 v -2.78377 -2.78266 h -2.78375 v -2.78376 -2.78267 h -2.78267 v -2.78376 h -2.78375 v -2.78376 -2.78267 h -2.78375 v -2.78376 -2.78266 h -2.78267 v -2.78376 -2.78376 h -2.78375 v -2.78267 h -2.78266 v -2.78376 -2.78376 h -2.78376 v -2.78266 -2.78377 h -2.7838 v -2.78266 -2.78376 h -2.78266 v -2.78377 -2.78266 h -2.78375 v -2.78376 h -2.78267 v -2.78266 -2.78376 h -2.78375 v -2.78377 -2.78266 h -2.78375 v -2.78376 -2.78267 h -2.78267 V 161.533 h -2.78375 v -2.78376 -2.78267 h -2.78266 v -2.78376 -2.78266 h -2.78381 v -2.78376 -2.78376 h -2.78375 v -2.78267 h -2.78266 v -2.78376 -2.78266 h -2.78376 v -2.78376 z m -11.13283,11.13395 h 2.78267 2.78375 v 2.78267 h 2.78375 v 2.78376 2.78376 h 2.78266 v 2.78266 2.78376 h 2.78376 v 2.78267 2.78376 h 2.78266 v 2.78376 h 2.78375 v 2.78267 2.78376 h 2.78381 v 2.78266 2.78377 h 2.78266 v 2.78376 2.78266 h 2.78375 v 2.78376 h 2.78267 v 2.78266 2.78377 h 2.78375 v 2.78376 2.78266 h 2.78375 v 2.78377 2.78266 h 2.78267 v 2.78376 h 2.78375 v 2.78376 2.78267 h 2.78266 v 2.78376 2.78376 h 2.7838 v 2.78266 2.78376 h 2.78376 v 2.78267 h 2.78266 v 2.78376 2.78376 h 2.78375 v 2.78267 2.78376 h 2.78267 v 2.78266 2.78377 h 2.78375 v 2.78375 2.78267 h -2.78375 -2.78267 -2.78375 -2.78266 -2.78376 v -2.78267 h -2.7838 -2.78266 -2.78375 -2.78267 -2.78375 -2.78375 v -2.78375 h -2.78267 -2.78375 -2.78266 -2.78381 -2.78375 v -2.78377 h -2.78266 -2.78376 -2.78266 -2.78375 -2.78375 -2.78267 v -2.78266 h -2.78375 -2.78266 -2.78381 -2.78375 -2.78266 -2.78376 v -2.78376 h -2.78375 -2.78266 -2.78376 -2.78266 -2.7838 -2.78375 v -2.78267 -2.78376 -2.78376 h 2.78375 v -2.78267 -2.78376 h 2.7838 v -2.78266 -2.78376 -2.78376 h 2.78266 v -2.78267 -2.78376 h 2.78376 v -2.78376 -2.78266 -2.78377 h 2.78266 v -2.78266 -2.78376 h 2.78375 v -2.78377 -2.78266 -2.78376 h 2.78376 v -2.78266 -2.78376 h 2.78266 v -2.78377 -2.78266 -2.78376 h 2.78375 v -2.78267 -2.78376 h 2.78381 v -2.78376 -2.78267 -2.78376 h 2.78266 v -2.78266 -2.78376 h 2.78375 v -2.78376 z m 141.94986,0 h 2.78266 2.7838 v 2.78267 2.78376 h 2.78376 v 2.78376 2.78266 2.78376 h 2.78266 v 2.78267 2.78376 h 2.78375 v 2.78376 2.78267 2.78376 h 2.78267 v 2.78266 2.78377 2.78376 h 2.78375 v 2.78266 2.78376 h 2.78375 v 2.78266 2.78377 2.78376 h 2.78266 v 2.78266 2.78377 h 2.78381 v 2.78266 2.78376 2.78376 h 2.78266 v 2.78267 2.78376 h 2.78375 v 2.78376 2.78266 2.78376 h 2.78376 v 2.78267 2.78376 h 2.78266 v 2.78376 h -2.78266 -2.78376 v 2.78267 h -2.78375 -2.78266 -2.78381 -2.78266 v 2.78376 h -2.78375 -2.78375 -2.78267 -2.78375 -2.78266 -2.78376 v 2.78266 h -2.7838 -2.78266 -2.78376 -2.78266 -2.78375 -2.78375 v 2.78377 h -2.78267 -2.78375 -2.78267 -2.78375 -2.7838 -2.78266 v 2.78375 h -2.78376 -2.78375 -2.78266 -2.78376 -2.78266 v 2.78267 h -2.78375 -2.7838 -2.78267 -2.78375 -2.78266 -2.78376 v -2.78267 h 2.78376 v -2.78375 -2.78377 h 2.78266 v -2.78266 -2.78376 h 2.78375 v -2.78267 h 2.78267 v -2.78376 -2.78376 h 2.7838 v -2.78267 -2.78376 h 2.78375 v -2.78266 -2.78376 h 2.78266 v -2.78376 h 2.78376 v -2.78267 -2.78376 h 2.78266 v -2.78376 -2.78266 h 2.78375 v -2.78377 -2.78266 h 2.78376 v -2.78376 h 2.78266 v -2.78377 -2.78266 h 2.7838 v -2.78376 -2.78266 h 2.78375 v -2.78376 -2.78377 h 2.78267 v -2.78266 h 2.78375 v -2.78376 -2.78267 h 2.78267 v -2.78376 -2.78376 h 2.78375 v -2.78267 h 2.78375 v -2.78376 -2.78266 h 2.78266 v -2.78376 -2.78376 h 2.78376 z M 256.89112,242.25001 h 2.78381 v 2.78267 h 2.78266 2.78375 2.78267 2.78375 2.78375 2.78266 v 2.78376 h 2.78376 2.78266 2.78375 2.78381 2.78266 2.78375 v 2.78266 h 2.78267 2.78375 2.78375 2.78267 2.78375 2.78266 v 2.78377 h 2.7838 2.78376 2.78266 2.78375 2.78267 v 2.78376 h 2.78375 2.78375 2.78267 v 2.78266 h 2.78375 v 2.78377 2.78266 2.78376 2.78376 2.78266 2.78377 2.78376 2.78266 2.78376 2.78267 2.78376 h -2.78375 -2.78267 v -2.78376 h -2.78375 -2.78375 v -2.78267 h -2.78267 v -2.78376 h -2.78375 -2.78266 v -2.78266 h -2.78376 -2.7838 v -2.78376 h -2.78266 -2.78375 v -2.78377 h -2.78267 v -2.78266 h -2.78375 -2.78375 v -2.78376 h -2.78267 -2.78375 v -2.78376 h -2.78266 -2.78381 v -2.78266 h -2.78375 v -2.78377 h -2.78266 -2.78376 v -2.78266 h -2.78266 -2.78375 v -2.78376 h -2.78375 v -2.78377 h -2.78267 -2.78375 v -2.78266 h -2.78266 -2.78381 v -2.78376 z m 158.6503,0 h 2.78266 v 2.78267 2.78376 h -2.78266 v 2.78266 h -2.78376 -2.7838 v 2.78377 h -2.78266 -2.78376 v 2.78376 h -2.78266 v 2.78266 h -2.78375 -2.78375 v 2.78377 h -2.78267 -2.78375 v 2.78266 h -2.78267 v 2.78376 h -2.78375 -2.7838 v 2.78376 h -2.78266 -2.78376 v 2.78266 h -2.78375 -2.78266 v 2.78377 h -2.78376 v 2.78376 h -2.78266 -2.78375 v 2.78266 h -2.7838 -2.78267 v 2.78376 h -2.78375 -2.78266 v 2.78267 H 348.741 v 2.78376 h -2.78375 v -2.78376 h -2.78266 v -2.78267 -2.78376 -2.78266 -2.78376 -2.78377 -2.78266 -2.78376 -2.78376 -2.78266 -2.78377 -2.78266 h 2.78266 2.78375 2.78376 v -2.78376 h 2.78266 2.78375 2.78267 2.7838 2.78375 2.78266 v -2.78377 h 2.78376 2.78266 2.78375 2.78376 2.78266 2.7838 v -2.78266 h 2.78375 2.78267 2.78375 2.78267 2.78375 2.78375 v -2.78376 h 2.78266 2.78376 2.78266 2.7838 2.78376 z"
         inkscape:label="dropshadow" />
      <path
         style="display:inline;opacity:0.16;fill:#000000;stroke-width:1.00344;stroke-linecap:round;stroke-linejoin:round;stroke-miterlimit:5"
         d="m 221.57022,100.31605 40.37961,24.40526 -38.60468,92.73998 z"
         id="path8254"
         inkscape:label="shade16" />
      <path
         style="display:inline;opacity:0.25;fill:#000000;stroke-width:1.00344;stroke-linecap:round;stroke-linejoin:round;stroke-miterlimit:5"
         d="M 221.57022,99.872318 326.29096,38.637307 262.83729,122.94638 Z"
         id="path8249"
         inkscape:label="shade25" />
      <path
         id="path8252"
         style="display:inline;opacity:0.33;fill:#000000;stroke-width:1.00344;stroke-linecap:round;stroke-linejoin:round;stroke-miterlimit:5"
         inkscape:label="shade33"
         d="M 220.68228,228.55483 334.72192,293.78367 334.2781,247.19136 263.28077,123.61211 Z"
         sodipodi:nodetypes="ccccc" />
      <path
         id="path8250"
         style="display:inline;opacity:0.5;fill:#000000;stroke-width:1.00344;stroke-linecap:round;stroke-linejoin:round;stroke-miterlimit:5"
         inkscape:label="shade50"
         d="m 332.50282,34.199508 -69.32271,88.310292 -0.78657,-0.008 74.54748,122.47015 69.66545,-121.13869 c 0,0 -74.05606,-89.64057 -74.10365,-89.633752 z"
         sodipodi:nodetypes="cccccc" />
      <path
         style="display:inline;opacity:0.66;fill:#000000;stroke-width:1.00344;stroke-linecap:round;stroke-linejoin:round;stroke-miterlimit:5"
         d="m 447.87352,228.55459 -39.93587,-100.28342 -73.65951,118.0327 v 47.03559 z"
         id="path8253"
         inkscape:label="shade66"
         sodipodi:nodetypes="ccccc" />
      <path
         style="display:inline;opacity:0.75;fill:#000000;stroke-width:1.00344;stroke-linecap:round;stroke-linejoin:round;stroke-miterlimit:5"
         d="m 336.94053,37.306111 68.77846,86.083999 40.82334,-25.736452 z"
         id="path8251"
         inkscape:label="shade75" />
      <path
         style="display:inline;opacity:0.89;fill:#000000;stroke-width:1.00344;stroke-linecap:round;stroke-linejoin:round;stroke-miterlimit:5"
         d="m 447.87353,98.541126 -43.042,26.180184 45.26066,99.39596 z"
         id="path8256"
         inkscape:label="shade83" />
    </g>
    <path
       id="path8248"
       style="fill:#000000;fill-opacity:1;stroke-width:4.94845"
       d="m 330.3249,29.000004 v 2.783762 h -2.78375 -2.78267 v 2.782664 h -2.78375 v 2.783763 h -2.78375 -2.78267 v 2.782664 h -2.78375 -2.78266 v 2.783762 h -2.78376 -2.7838 v 2.783763 h -2.78266 -2.78375 v 2.782664 h -2.78267 v 2.783762 h -2.78375 -2.78375 v 2.782664 h -2.78267 -2.78375 v 2.783757 h -2.78266 -2.78381 v 2.783763 h -2.78375 -2.78266 v 2.782664 h -2.78376 v 2.783762 h -2.78266 -2.78375 v 2.783763 h -2.78375 -2.78267 v 2.782664 h -2.78375 -2.78266 v 2.783762 h -2.78381 v 2.782664 h -2.78375 -2.78266 v 2.783763 h -2.78376 -2.78375 v 2.783762 h -2.78266 -2.78376 v 2.782664 h -2.78266 -2.7838 v 2.783757 h -2.78375 v 2.782664 h -2.78267 -2.78375 v 2.783763 h -2.78266 -2.78376 v 2.783762 2.782667 2.783757 2.78266 2.78377 2.78376 2.78266 2.78376 2.78266 2.78377 2.78376 2.78266 2.78377 2.78376 2.78266 2.78376 2.78267 2.78376 2.78376 2.78266 2.78376 2.78267 2.78376 2.78376 2.78267 2.78376 2.78266 2.78377 2.78376 2.78266 2.78376 2.78266 2.78377 2.78376 2.78266 2.78377 2.78266 2.78376 2.78376 2.78267 2.78376 2.78376 2.78266 2.78376 2.78267 2.78376 2.78376 2.78267 2.78376 2.78266 h 2.78376 v 2.78377 h 2.78266 2.78375 v 2.78375 h 2.78267 2.78375 v 2.78267 h 2.7838 v 2.78376 h 2.78266 2.78376 v 2.78266 h 2.78266 2.78375 v 2.78377 h 2.78376 2.78266 v 2.78376 h 2.78375 v 2.78266 h 2.78381 2.78266 v 2.78377 h 2.78375 2.78267 v 2.78266 h 2.78375 v 2.78376 h 2.78375 2.78266 v 2.78376 h 2.78376 2.78266 v 2.78266 h 2.78375 2.78381 v 2.78377 h 2.78266 v 2.78376 h 2.78375 2.78267 v 2.78266 h 2.78375 2.78375 v 2.78376 h 2.78267 v 2.78267 h 2.78375 2.78266 v 2.78376 h 2.7838 2.78376 v 2.78376 h 2.78266 2.78375 v 2.78267 h 2.78267 v 2.78376 h 2.78375 2.78375 v 2.78266 h 2.78267 2.78375 v 2.78376 h 2.7838 2.78266 2.78376 v -2.78376 h 2.78266 2.78375 v -2.78266 h 2.78376 v -2.78376 h 2.78266 2.78375 v -2.78267 h 2.78267 2.7838 v -2.78376 h 2.78375 2.78266 v -2.78376 h 2.78376 v -2.78267 h 2.78266 2.78375 v -2.78376 h 2.78376 2.78266 v -2.78266 h 2.7838 v -2.78376 h 2.78375 2.78267 v -2.78377 h 2.78375 2.78267 v -2.78266 h 2.78375 2.78375 v -2.78376 h 2.78266 V 260.016 h 2.78376 2.78266 v -2.78266 h 2.7838 2.78376 v -2.78377 h 2.78266 2.78375 v -2.78266 h 2.78267 v -2.78376 h 2.78375 2.78375 v -2.78377 h 2.78266 2.78381 v -2.78266 h 2.78266 v -2.78376 h 2.78375 2.78376 v -2.78267 h 2.78266 2.78375 v -2.78375 h 2.78267 2.78375 v -2.78377 h 2.78375 v -2.78266 -2.78376 -2.78267 -2.78376 -2.78376 -2.78267 -2.78376 -2.78266 -2.78376 -2.78376 -2.78267 -2.78376 -2.78376 -2.78266 -2.78377 -2.78266 -2.78376 -2.78377 -2.78266 -2.78376 -2.78266 -2.78376 -2.78377 -2.78266 -2.78376 -2.78267 -2.78376 -2.78376 -2.78267 -2.78376 -2.78266 -2.78376 -2.78376 -2.78267 -2.78376 -2.78266 -2.78376 -2.78377 -2.78266 -2.78376 -2.78377 -2.78266 -2.78376 -2.78266 -2.78376 -2.78377 -2.78266 -2.783757 -2.782667 -2.783762 h -2.78375 -2.78375 v -2.783763 h -2.78267 -2.78375 v -2.782664 h -2.78266 -2.78376 V 84.66646 h -2.78375 -2.78266 v -2.782664 h -2.78381 v -2.783762 h -2.78266 -2.78375 v -2.783763 h -2.78375 -2.78267 v -2.782664 h -2.78375 -2.78266 v -2.783762 h -2.78376 v -2.782664 h -2.7838 -2.78266 v -2.783763 h -2.78376 -2.78266 v -2.783762 h -2.78375 -2.78375 v -2.782664 h -2.78267 -2.78375 v -2.783763 h -2.78267 v -2.783757 h -2.78375 -2.7838 v -2.782664 h -2.78266 -2.78376 v -2.783762 h -2.78375 -2.78266 v -2.782664 h -2.78376 v -2.783763 h -2.78266 -2.78375 v -2.783762 h -2.7838 -2.78267 v -2.782664 h -2.78375 -2.78266 V 34.56643 h -2.78376 -2.78375 v -2.782664 h -2.78266 -2.78376 v -2.783762 h -2.78266 z m 0,13.916615 h 2.7838 2.78266 v 2.783763 h 2.78376 v 2.782664 h 2.78266 v 2.783762 h 2.78375 v 2.782664 h 2.78376 v 2.783757 2.783763 h 2.78266 v 2.782664 h 2.78375 v 2.783762 h 2.78267 v 2.783763 h 2.7838 v 2.782664 2.783762 h 2.78375 v 2.782664 h 2.78266 v 2.783763 h 2.78376 v 2.783762 h 2.78266 v 2.782664 2.783757 h 2.78375 v 2.782664 h 2.78376 v 2.783763 h 2.78266 v 2.783762 h 2.7838 v 2.782667 h 2.78375 v 2.783757 2.78266 h 2.78267 v 2.78377 h 2.78375 v 2.78376 h 2.78267 v 2.78266 h 2.78375 v 2.78376 h -2.78375 v 2.78266 h -2.78267 -2.78375 -2.78267 -2.78375 -2.7838 -2.78266 -2.78376 -2.78375 -2.78266 -2.78376 -2.78266 -2.78375 -2.7838 -2.78267 -2.78375 -2.78266 -2.78376 -2.78375 -2.78266 -2.78376 -2.78266 -2.7838 -2.78375 -2.78267 -2.78375 -2.78375 -2.78267 -2.78375 -2.78266 -2.78376 -2.7838 -2.78266 -2.78375 -2.78267 -2.78375 -2.78375 -2.78267 -2.78375 -2.78266 -2.78381 -2.78375 -2.78266 -2.78376 v -2.78266 h 2.78376 v -2.78376 h 2.78266 v -2.78266 h 2.78375 v -2.78376 h 2.78381 v -2.78377 -2.78266 h 2.78266 v -2.783757 h 2.78375 v -2.782667 h 2.78267 v -2.783762 h 2.78375 v -2.783763 -2.782664 h 2.78375 V 84.66646 h 2.78267 v -2.782664 h 2.78375 v -2.783762 h 2.78266 v -2.783763 h 2.7838 v -2.782664 -2.783762 h 2.78376 v -2.782664 h 2.78266 v -2.783763 h 2.78375 v -2.783762 h 2.78267 v -2.782664 -2.783763 h 2.78375 v -2.783757 h 2.78375 v -2.782664 h 2.78267 v -2.783762 h 2.78375 v -2.782664 z m -25.05056,11.132853 h 2.7838 v 2.783757 2.783763 h -2.7838 v 2.782664 h -2.78266 v 2.783762 h -2.78375 v 2.783763 2.782664 h -2.78267 v 2.783762 h -2.78375 v 2.782664 h -2.78375 v 2.783763 h -2.78267 v 2.783762 2.782664 h -2.78375 v 2.783757 h -2.78266 v 2.782664 h -2.78381 v 2.783763 h -2.78375 v 2.783762 2.782667 h -2.78266 v 2.783757 h -2.78376 v 2.78266 h -2.78266 v 2.78377 h -2.78375 v 2.78376 h -2.78375 v 2.78266 2.78376 h -2.78267 -2.78375 v -2.78376 h -2.78266 -2.78381 v -2.78266 h -2.78375 -2.78266 v -2.78376 h -2.78376 v -2.78377 h -2.78375 -2.78266 v -2.78266 h -2.78376 -2.78266 v -2.783757 -2.782667 h 2.78266 v -2.783762 h 2.78376 2.78266 v -2.783763 h 2.78375 v -2.782664 h 2.78376 2.78266 V 84.66646 h 2.78375 2.78381 v -2.782664 h 2.78266 2.78375 v -2.783762 h 2.78267 2.78375 v -2.783763 h 2.78375 v -2.782664 h 2.78266 2.78376 v -2.783762 h 2.78266 2.78375 v -2.782664 h 2.78381 2.78266 v -2.783763 h 2.78375 2.78267 v -2.783762 h 2.78375 v -2.782664 h 2.78375 2.78267 v -2.783763 h 2.78375 2.78266 z m 52.88383,0 h 2.78375 2.78266 v 2.783757 h 2.78376 2.78266 v 2.783763 h 2.78375 2.78376 v 2.782664 h 2.78266 v 2.783762 h 2.7838 2.78375 v 2.783763 h 2.78267 2.78375 v 2.782664 h 2.78267 2.78375 v 2.783762 h 2.78375 v 2.782664 h 2.78266 2.78376 v 2.783763 h 2.78266 2.7838 v 2.783762 h 2.78376 2.78266 v 2.782664 h 2.78375 v 2.783757 h 2.78267 2.78375 v 2.782664 h 2.78375 2.78266 v 2.783763 h 2.78381 2.78266 v 2.783762 h 2.78375 2.78376 v 2.782667 h -2.78376 v 2.783757 h -2.78375 -2.78266 v 2.78266 h -2.78381 -2.78266 v 2.78377 h -2.78375 -2.78375 v 2.78376 h -2.78267 v 2.78266 h -2.78375 -2.78266 v 2.78376 h -2.78376 -2.7838 v -2.78376 h -2.78266 v -2.78266 h -2.78376 v -2.78376 -2.78377 h -2.78266 v -2.78266 h -2.78375 v -2.783757 h -2.78375 v -2.782667 h -2.78267 v -2.783762 h -2.78375 v -2.783763 -2.782664 h -2.78267 V 84.66646 h -2.78375 v -2.782664 h -2.7838 v -2.783762 h -2.78266 v -2.783763 -2.782664 h -2.78376 V 70.749845 H 369.291 v -2.782664 h -2.78266 v -2.783763 h -2.78376 v -2.783762 -2.782664 h -2.78266 v -2.783763 h -2.78375 z M 227.3411,106.93326 h 2.78375 v 2.78376 h 2.7838 2.78266 v 2.78266 h 2.78376 v 2.78376 h 2.78266 2.78375 v 2.78266 h 2.78376 v 2.78377 h 2.78266 2.78375 v 2.78376 h 2.78381 v 2.78266 2.78377 2.78376 h -2.78381 v 2.78266 2.78376 h -2.78375 v 2.78267 2.78376 2.78376 h -2.78266 v 2.78266 2.78376 h -2.78376 v 2.78267 2.78376 2.78376 h -2.78375 v 2.78267 2.78376 h -2.78266 v 2.78266 2.78377 2.78376 h -2.78376 v 2.78266 2.78376 h -2.78266 v 2.78266 2.78377 2.78376 h -2.7838 v 2.78266 2.78377 h -2.78375 -2.78267 v -2.78377 -2.78266 -2.78376 -2.78377 -2.78266 -2.78376 -2.78266 -2.78376 -2.78377 -2.78266 -2.78376 -2.78267 -2.78376 -2.78376 -2.78267 -2.78376 -2.78266 -2.78376 -2.78376 -2.78267 -2.78376 -2.78266 -2.78376 -2.78377 -2.78266 -2.78376 -2.78377 -2.78266 -2.78376 -2.78266 h 2.78267 z m 211.53407,0 h 2.78266 v 2.78376 h 2.78375 v 2.78266 2.78376 2.78266 2.78377 2.78376 2.78266 2.78377 2.78376 2.78266 2.78376 2.78267 2.78376 2.78376 2.78266 2.78376 2.78267 2.78376 2.78376 2.78267 2.78376 2.78266 2.78377 2.78376 2.78266 2.78376 2.78266 2.78377 2.78376 2.78266 2.78377 h -2.78375 v 2.78266 h -2.78266 v -2.78266 -2.78377 h -2.78376 v -2.78266 -2.78376 -2.78377 h -2.78375 v -2.78266 -2.78376 H 430.525 v -2.78266 -2.78376 -2.78377 h -2.78381 v -2.78266 -2.78376 -2.78267 h -2.78266 v -2.78376 -2.78376 h -2.78375 v -2.78267 -2.78376 -2.78266 h -2.78375 v -2.78376 -2.78376 h -2.78267 v -2.78267 -2.78376 -2.78266 h -2.78375 v -2.78376 -2.78377 -2.78266 h 2.78375 v -2.78376 h 2.78267 v -2.78377 h 2.78375 2.78375 v -2.78266 h 2.78266 2.78381 v -2.78376 h 2.78266 v -2.78266 h 2.78375 2.78376 z M 271.8747,126.41629 h 2.78376 2.78266 2.78375 2.78381 2.78266 2.78375 2.78267 2.78375 2.78375 2.78267 2.78375 2.78266 2.7838 2.78376 2.78266 2.78375 2.78267 2.78375 2.78375 2.78267 2.78375 2.7838 2.78266 2.78376 2.78266 2.78375 2.78376 2.78266 2.78375 2.78267 2.7838 2.78375 2.78266 2.78376 2.78266 2.78375 2.78376 2.78266 2.7838 2.78375 2.78267 2.78375 2.78267 2.78375 2.78375 v 2.78377 h -2.78375 v 2.78376 2.78266 h -2.78375 v 2.78376 2.78267 h -2.78267 v 2.78376 2.78376 h -2.78375 v 2.78266 h -2.78267 v 2.78376 2.78267 h -2.78375 v 2.78376 2.78376 h -2.7838 v 2.78267 2.78376 h -2.78266 v 2.78266 h -2.78376 v 2.78377 2.78376 H 369.291 v 2.78266 2.78376 h -2.78266 v 2.78266 2.78377 h -2.78376 v 2.78376 h -2.78266 v 2.78266 2.78377 h -2.78375 v 2.78266 2.78376 h -2.7838 v 2.78376 2.78267 h -2.78267 v 2.78376 2.78376 h -2.78375 v 2.78266 h -2.78266 v 2.78376 2.78267 h -2.78376 v 2.78376 2.78376 h -2.78375 v 2.78267 2.78376 h -2.78266 v 2.78266 h -2.78376 v 2.78377 h -2.78266 -2.7838 v -2.78377 -2.78266 h -2.78375 v -2.78376 -2.78267 h -2.78267 v -2.78376 h -2.78375 v -2.78376 -2.78267 h -2.78375 v -2.78376 -2.78266 h -2.78267 v -2.78376 -2.78376 h -2.78375 v -2.78267 h -2.78266 v -2.78376 -2.78376 h -2.78376 v -2.78266 -2.78377 h -2.7838 v -2.78266 -2.78376 h -2.78266 v -2.78377 -2.78266 h -2.78375 v -2.78376 h -2.78267 v -2.78266 -2.78376 h -2.78375 v -2.78377 -2.78266 h -2.78375 v -2.78376 -2.78267 h -2.78267 v -2.78376 h -2.78375 v -2.78376 -2.78267 h -2.78266 v -2.78376 -2.78266 h -2.78381 v -2.78376 -2.78376 h -2.78375 v -2.78267 h -2.78266 v -2.78376 -2.78266 h -2.78376 v -2.78376 z m -11.13283,11.13395 h 2.78267 2.78375 v 2.78267 h 2.78375 v 2.78376 2.78376 h 2.78266 v 2.78266 2.78376 h 2.78376 v 2.78267 2.78376 h 2.78266 v 2.78376 h 2.78375 v 2.78267 2.78376 h 2.78381 v 2.78266 2.78377 h 2.78266 v 2.78376 2.78266 h 2.78375 v 2.78376 h 2.78267 v 2.78266 2.78377 h 2.78375 v 2.78376 2.78266 h 2.78375 v 2.78377 2.78266 h 2.78267 v 2.78376 h 2.78375 v 2.78376 2.78267 h 2.78266 v 2.78376 2.78376 h 2.7838 v 2.78266 2.78376 h 2.78376 v 2.78267 h 2.78266 v 2.78376 2.78376 h 2.78375 v 2.78267 2.78376 h 2.78267 v 2.78266 2.78377 h 2.78375 v 2.78375 2.78267 h -2.78375 -2.78267 -2.78375 -2.78266 -2.78376 v -2.78267 h -2.7838 -2.78266 -2.78375 -2.78267 -2.78375 -2.78375 v -2.78375 h -2.78267 -2.78375 -2.78266 -2.78381 -2.78375 v -2.78377 h -2.78266 -2.78376 -2.78266 -2.78375 -2.78375 -2.78267 v -2.78266 h -2.78375 -2.78266 -2.78381 -2.78375 -2.78266 -2.78376 v -2.78376 h -2.78375 -2.78266 -2.78376 -2.78266 -2.7838 -2.78375 v -2.78267 -2.78376 -2.78376 h 2.78375 v -2.78267 -2.78376 h 2.7838 v -2.78266 -2.78376 -2.78376 h 2.78266 v -2.78267 -2.78376 h 2.78376 v -2.78376 -2.78266 -2.78377 h 2.78266 v -2.78266 -2.78376 h 2.78375 v -2.78377 -2.78266 -2.78376 h 2.78376 v -2.78266 -2.78376 h 2.78266 v -2.78377 -2.78266 -2.78376 h 2.78375 v -2.78267 -2.78376 h 2.78381 v -2.78376 -2.78267 -2.78376 h 2.78266 v -2.78266 -2.78376 h 2.78375 v -2.78376 z m 141.94986,0 h 2.78266 2.7838 v 2.78267 2.78376 h 2.78376 v 2.78376 2.78266 2.78376 h 2.78266 v 2.78267 2.78376 h 2.78375 v 2.78376 2.78267 2.78376 h 2.78267 v 2.78266 2.78377 2.78376 h 2.78375 v 2.78266 2.78376 h 2.78375 v 2.78266 2.78377 2.78376 h 2.78266 v 2.78266 2.78377 h 2.78381 v 2.78266 2.78376 2.78376 h 2.78266 v 2.78267 2.78376 h 2.78375 v 2.78376 2.78266 2.78376 h 2.78376 v 2.78267 2.78376 h 2.78266 v 2.78376 h -2.78266 -2.78376 v 2.78267 h -2.78375 -2.78266 -2.78381 -2.78266 v 2.78376 h -2.78375 -2.78375 -2.78267 -2.78375 -2.78266 -2.78376 v 2.78266 h -2.7838 -2.78266 -2.78376 -2.78266 -2.78375 -2.78375 v 2.78377 h -2.78267 -2.78375 -2.78267 -2.78375 -2.7838 -2.78266 v 2.78375 h -2.78376 -2.78375 -2.78266 -2.78376 -2.78266 v 2.78267 h -2.78375 -2.7838 -2.78267 -2.78375 -2.78266 -2.78376 v -2.78267 h 2.78376 v -2.78375 -2.78377 h 2.78266 v -2.78266 -2.78376 h 2.78375 v -2.78267 h 2.78267 v -2.78376 -2.78376 h 2.7838 v -2.78267 -2.78376 h 2.78375 v -2.78266 -2.78376 h 2.78266 v -2.78376 h 2.78376 v -2.78267 -2.78376 h 2.78266 v -2.78376 -2.78266 h 2.78375 v -2.78377 -2.78266 h 2.78376 v -2.78376 h 2.78266 v -2.78377 -2.78266 h 2.7838 v -2.78376 -2.78266 h 2.78375 v -2.78376 -2.78377 h 2.78267 v -2.78266 h 2.78375 v -2.78376 -2.78267 h 2.78267 v -2.78376 -2.78376 h 2.78375 v -2.78267 h 2.78375 v -2.78376 -2.78266 h 2.78266 v -2.78376 -2.78376 h 2.78376 z M 252.39165,237.75029 h 2.78381 v 2.78267 h 2.78266 2.78375 2.78267 2.78375 2.78375 2.78266 v 2.78376 h 2.78376 2.78266 2.78375 2.78381 2.78266 2.78375 v 2.78266 h 2.78267 2.78375 2.78375 2.78267 2.78375 2.78266 v 2.78377 h 2.7838 2.78376 2.78266 2.78375 2.78267 v 2.78376 h 2.78375 2.78375 2.78267 v 2.78266 h 2.78375 v 2.78377 2.78266 2.78376 2.78376 2.78266 2.78377 2.78376 2.78266 2.78376 2.78267 2.78376 h -2.78375 -2.78267 v -2.78376 h -2.78375 -2.78375 v -2.78267 h -2.78267 v -2.78376 h -2.78375 -2.78266 v -2.78266 h -2.78376 -2.7838 v -2.78376 h -2.78266 -2.78375 v -2.78377 h -2.78267 v -2.78266 h -2.78375 -2.78375 v -2.78376 h -2.78267 -2.78375 V 260.016 h -2.78266 -2.78381 v -2.78266 h -2.78375 v -2.78377 h -2.78266 -2.78376 v -2.78266 h -2.78266 -2.78375 v -2.78376 h -2.78375 v -2.78377 h -2.78267 -2.78375 v -2.78266 h -2.78266 -2.78381 v -2.78376 z m 158.6503,0 h 2.78266 v 2.78267 2.78376 h -2.78266 v 2.78266 h -2.78376 -2.7838 v 2.78377 h -2.78266 -2.78376 v 2.78376 h -2.78266 v 2.78266 h -2.78375 -2.78375 v 2.78377 h -2.78267 -2.78375 v 2.78266 h -2.78267 v 2.78376 h -2.78375 -2.7838 v 2.78376 h -2.78266 -2.78376 v 2.78266 h -2.78375 -2.78266 v 2.78377 h -2.78376 v 2.78376 h -2.78266 -2.78375 v 2.78266 h -2.7838 -2.78267 v 2.78376 h -2.78375 -2.78266 v 2.78267 h -2.78376 v 2.78376 h -2.78375 v -2.78376 h -2.78266 v -2.78267 -2.78376 -2.78266 -2.78376 -2.78377 -2.78266 -2.78376 -2.78376 -2.78266 -2.78377 -2.78266 h 2.78266 2.78375 2.78376 v -2.78376 h 2.78266 2.78375 2.78267 2.7838 2.78375 2.78266 v -2.78377 h 2.78376 2.78266 2.78375 2.78376 2.78266 2.7838 v -2.78266 h 2.78375 2.78267 2.78375 2.78267 2.78375 2.78375 v -2.78376 h 2.78266 2.78376 2.78266 2.7838 2.78376 z"
       inkscape:label="edges" />
  </g>
</svg>
