<?xml version="1.0" encoding="UTF-8" standalone="no"?>
<svg
   version="1.1"
   viewBox="0 0 512 512"
   x="0px"
   y="0px"
   id="svg2"
   sodipodi:docname="d4.svg"
   width="512"
   height="512"
   inkscape:version="1.4 (86a8ad7, 2024-10-11)"
   xmlns:inkscape="http://www.inkscape.org/namespaces/inkscape"
   xmlns:sodipodi="http://sodipodi.sourceforge.net/DTD/sodipodi-0.dtd"
   xmlns="http://www.w3.org/2000/svg"
   xmlns:svg="http://www.w3.org/2000/svg">
  <defs
     id="defs2" />
  <sodipodi:namedview
     id="namedview2"
     pagecolor="#505050"
     bordercolor="#ffffff"
     borderopacity="1"
     inkscape:showpageshadow="0"
     inkscape:pageopacity="0"
     inkscape:pagecheckerboard="1"
     inkscape:deskcolor="#505050"
     inkscape:zoom="1.2675781"
     inkscape:cx="256.00001"
     inkscape:cy="188.15409"
     inkscape:window-width="1920"
     inkscape:window-height="1009"
     inkscape:window-x="-8"
     inkscape:window-y="-8"
     inkscape:window-maximized="1"
     inkscape:current-layer="g9023" />
  <g
     transform="matrix(1.6730093,0,0,1.6730093,-303.35043,-579.63576)"
     id="g1">
    <path
       style="display:inline;opacity:1;fill:#2b2b45;fill-opacity:1;stroke-width:1.06634;stroke-linecap:round;stroke-linejoin:round;stroke-miterlimit:5"
       d="M 335.04523,363.43873 202.06839,536.0257 334.10214,637.8803 468.02208,535.0826 Z"
       id="path9025"
       inkscape:label="background" />
    <g
       id="g9023"
       inkscape:label="shading">
      <path
         id="path8885"
         style="opacity:0.5;fill:#000000;fill-opacity:1;stroke-width:5.00001"
         d="m 334.63594,360.80837 v 2.9891 2.98791 h -2.9879 v 2.9891 h -2.98911 v 2.98791 h -2.9879 v 2.9891 2.98906 h -2.98911 v 2.98795 h -2.98905 v 2.98906 h -2.98796 v 2.9891 2.98791 h -2.98905 v 2.9891 h -2.98796 v 2.98791 h -2.98905 v 2.9891 2.98911 h -2.98911 v 2.9879 h -2.9879 v 2.9891 h -2.98911 v 2.98791 2.9891 h -2.9891 v 2.98911 h -2.9879 v 2.9879 h -2.98911 v 2.98911 2.9879 h -2.9879 v 2.98911 h -2.98911 v 2.98905 h -2.9891 v 2.98791 2.9891 h -2.98791 v 2.98791 h -2.9891 v 2.9891 h -2.98791 v 2.98911 2.9879 h -2.9891 v 2.9891 h -2.98906 v 2.98911 h -2.9879 v 2.9879 h -2.98911 v 2.98911 2.9879 h -2.9879 v 2.98911 h -2.98911 v 2.98905 h -2.9891 v 2.98796 2.98905 h -2.9879 v 2.98796 h -2.98911 v 2.98905 h -2.9891 v 2.98911 2.9879 h -2.98791 v 2.98911 h -2.9891 v 2.9879 h -2.98791 v 2.9891 2.98911 h -2.9891 v 2.9879 h -2.98906 v 2.98911 h -2.98795 v 2.9879 2.98911 h -2.98906 v 2.9891 h -2.98795 v 2.98791 h -2.98906 v 2.9891 2.98791 h -2.9891 v 2.9891 h -2.98791 v 2.98906 h -2.9891 v 2.9879 2.98911 h -2.9879 v 2.9891 h -2.98911 v 2.9879 h 2.98911 v 2.98911 h 2.9879 v 2.9879 h 2.9891 2.98791 v 2.98911 h 2.9891 v 2.9891 h 2.98906 v 2.98791 h 2.98795 2.98906 v 2.9891 h 2.98795 v 2.98791 h 2.98906 v 2.9891 h 2.9891 v 2.98906 h 2.98791 2.9891 v 2.98795 h 2.98791 v 2.98906 h 2.9891 v 2.98795 h 2.98911 2.9879 v 2.98906 h 2.9891 v 2.9891 h 2.98911 v 2.9879 h 2.9879 v 2.98911 h 2.98911 2.9879 v 2.9879 h 2.98906 v 2.98911 h 2.9891 v 2.9891 h 2.98791 2.9891 v 2.98791 h 2.98791 v 2.9891 h 2.9891 v 2.98911 h 2.98911 2.9879 v 2.9879 h 2.98911 v 2.98911 h 2.9879 v 2.9879 h 2.9891 v 2.98911 h 2.98911 2.9879 v 2.98905 h 2.98911 v 2.98791 h 2.98905 v 2.9891 h 2.98796 2.98905 v 2.9879 h 2.98796 v 2.98911 h 2.98905 v 2.9891 h 2.98911 v 2.98791 h 2.9879 2.98911 v 2.9891 h 2.9879 v 2.98791 h 2.98911 2.9891 2.9879 v -2.98791 h 2.98911 2.9879 v -2.9891 h 2.98911 v -2.98791 h 2.9891 v -2.9891 h 2.98791 2.9891 v -2.98911 h 2.98791 v -2.9879 h 2.98905 v -2.9891 h 2.98911 2.9879 v -2.98791 h 2.98911 v -2.98905 h 2.9879 v -2.98911 h 2.98911 v -2.9879 h 2.9891 2.9879 v -2.98911 h 2.98911 v -2.9879 h 2.9891 v -2.98911 h 2.98791 2.9891 v -2.9891 h 2.98791 v -2.98791 h 2.9891 v -2.9891 h 2.98906 v -2.98911 h 2.98795 2.98906 v -2.9879 h 2.98795 v -2.98911 h 2.98906 v -2.9879 h 2.9891 2.98791 v -2.9891 h 2.9891 v -2.98906 h 2.9879 v -2.98795 h 2.98911 V 573.001 h 2.9891 2.98791 v -2.98795 h 2.9891 v -2.98906 h 2.98791 v -2.9891 h 2.9891 2.98911 v -2.98791 h 2.9879 v -2.9891 h 2.98906 v -2.98791 h 2.9891 v -2.9891 h 2.98791 2.9891 v -2.98911 h 2.98791 v -2.9879 h 2.9891 v -2.98911 h 2.9891 v -2.9879 -2.9891 h -2.9891 v -2.98911 h -2.9891 v -2.9879 h -2.98791 v -2.98906 -2.9891 h -2.9891 v -2.98791 h -2.98791 v -2.9891 h -2.9891 v -2.98791 -2.9891 h -2.98906 v -2.98911 h -2.9879 v -2.9879 h -2.98911 v -2.98911 -2.9879 h -2.9891 v -2.98911 h -2.98791 v -2.9891 h -2.9891 v -2.9879 -2.98911 h -2.98791 v -2.9879 h -2.9891 v -2.98911 h -2.98911 v -2.98905 -2.98796 h -2.9879 v -2.98905 h -2.9891 v -2.98796 h -2.98791 v -2.98905 -2.98911 h -2.9891 v -2.9879 h -2.98906 v -2.98911 h -2.98795 v -2.9879 -2.98911 h -2.98906 v -2.9891 h -2.98795 v -2.9879 H 406.3636 V 444.49 h -2.9891 v -2.9891 -2.98791 h -2.98791 v -2.9891 h -2.9891 v -2.98791 h -2.98791 v -2.98905 -2.98911 h -2.9891 v -2.9879 h -2.98911 v -2.98911 h -2.9879 v -2.9879 -2.98911 h -2.9891 v -2.9891 h -2.98911 v -2.98791 h -2.9879 v -2.9891 -2.9879 h -2.98911 v -2.98911 h -2.9879 v -2.9891 h -2.98911 v -2.98791 -2.9891 h -2.98905 v -2.98791 h -2.98791 v -2.9891 h -2.9891 v -2.98906 -2.98795 h -2.98791 v -2.98906 h -2.9891 v -2.9891 h -2.98911 v -2.98791 h -2.9879 v -2.9891 -2.98791 h -2.98911 v -2.9891 h -2.9879 -2.9891 z m 8.96611,17.93218 h 2.98911 v 2.98795 2.98906 h 2.9879 v 2.9891 h 2.98911 v 2.98791 h 2.9891 v 2.9891 2.98791 h 2.98791 v 2.9891 h 2.9891 v 2.98911 h 2.98791 v 2.9879 2.9891 h 2.98905 v 2.98791 h 2.98911 v 2.9891 h 2.9879 v 2.98911 2.9879 h 2.98911 v 2.98911 h 2.9879 v 2.9879 h 2.98911 v 2.98911 2.98905 h 2.9891 v 2.98791 h 2.9879 v 2.9891 h 2.98911 v 2.98791 2.9891 h 2.9891 v 2.98911 h 2.98791 v 2.9879 h 2.9891 v 2.9891 2.98911 h 2.98791 v 2.9879 h 2.9891 v 2.98911 h 2.98906 v 2.9879 2.98911 h 2.98795 v 2.98905 h 2.98906 v 2.98796 h 2.98795 v 2.98905 h 2.98906 v 2.98796 2.98905 h 2.9891 v 2.98911 h 2.98791 v 2.9879 h 2.9891 v 2.98911 2.9879 h 2.9879 v 2.9891 h 2.98911 v 2.98911 h 2.9891 v 2.9879 2.98911 h 2.98791 v 2.9879 h 2.9891 v 2.98911 h 2.98791 v 2.9891 2.98791 h 2.9891 v 2.9891 h 2.98911 v 2.98791 h 2.9879 v 2.9891 2.98906 h 2.98906 v 2.9879 h 2.9891 v 2.98911 h 2.98791 v 2.9891 h -2.98791 v 2.9879 h -2.9891 v 2.98911 h -2.98906 v 2.9879 h -2.9879 -2.98911 v 2.98911 h -2.9891 v 2.9891 h -2.98791 v 2.98791 h -2.9891 v 2.9891 h -2.98791 -2.9891 v 2.98791 h -2.98911 v 2.9891 h -2.9879 v 2.98906 h -2.9891 -2.98791 v 2.98795 h -2.9891 v 2.98906 h -2.98906 v 2.98795 h -2.98795 v 2.98906 h -2.98906 -2.98795 v 2.9891 h -2.98906 v 2.9879 h -2.9891 v 2.98911 h -2.98791 -2.9891 v 2.9879 h -2.98791 v 2.98911 h -2.9891 v 2.9891 h -2.98911 v 2.98791 h -2.9879 -2.9891 v 2.9891 h -2.98911 v 2.98911 h -2.9879 v 2.9879 h -2.98911 -2.9879 v 2.98911 h -2.98911 v 2.9879 h -2.98905 v 2.98911 h -2.98791 v 2.98905 h -2.9891 -2.98791 v 2.98791 h -2.9891 v 2.9891 h -2.98911 v 2.9879 h -2.9879 -2.98911 v -2.9879 -2.9891 -2.98791 -2.98905 -2.98911 -2.9879 -2.98911 -2.9879 -2.98911 -2.9891 -2.98791 -2.9891 -2.98911 -2.9879 -2.98911 -2.9879 -2.9891 -2.98906 -2.98795 -2.98906 -2.98795 -2.98906 -2.9891 -2.98791 -2.9891 -2.98791 -2.9891 -2.98911 -2.9879 -2.98911 -2.9879 -2.9891 -2.98911 -2.9879 -2.98906 -2.9891 -2.98791 -2.9891 -2.98791 -2.9891 -2.98911 -2.9879 -2.98911 -2.9879 -2.98911 -2.9891 -2.9879 -2.98911 -2.9879 -2.98911 -2.98905 -2.98796 -2.98905 -2.98796 -2.98905 -2.98911 -2.9879 -2.98911 -2.9879 -2.98911 -2.9891 -2.9879 -2.98911 -2.9891 -2.98791 -2.9891 -2.98791 -2.98905 -2.98911 -2.9879 -2.98911 -2.9879 -2.98911 -2.9891 -2.98791 -2.9891 -2.9879 -2.98911 -2.9891 -2.98791 -2.9891 -2.98791 -2.9891 -2.98906 z m -11.95401,2.98795 h 2.9879 v 2.98906 2.9891 2.98791 2.9891 2.98791 2.9891 2.98911 2.9879 2.9891 2.98791 2.9891 2.98911 2.9879 2.98911 2.9879 2.98911 2.98905 2.98791 2.9891 2.98791 2.9891 2.98911 2.9879 2.9891 2.98911 2.9879 2.98911 2.9879 2.98911 2.98905 2.98796 2.98905 2.98796 2.98905 2.98911 2.9879 2.98911 2.9879 2.9891 2.98911 2.9879 2.98911 2.9879 2.98911 2.9891 2.98791 2.9891 2.98791 2.9891 2.98906 2.9879 2.98911 2.9891 2.9879 2.98911 2.9879 2.98911 2.9891 2.98791 2.9891 2.98791 2.9891 2.98906 2.98795 2.98906 2.98795 2.98906 2.9891 2.9879 2.98911 2.9879 2.98911 2.9891 2.98791 2.9891 2.98911 2.9879 2.98911 2.9879 2.98911 2.98905 2.98791 2.9891 2.9879 h -2.9879 v -2.9879 h -2.98911 -2.9879 v -2.9891 h -2.98911 v -2.98791 h -2.98905 v -2.98905 h -2.98796 v -2.98911 h -2.98905 -2.98796 v -2.9879 h -2.98905 v -2.98911 h -2.98911 v -2.9879 h -2.9879 -2.98911 v -2.98911 h -2.9891 v -2.9891 h -2.9879 v -2.98791 h -2.98911 v -2.9891 h -2.9879 -2.98911 v -2.98911 h -2.9891 v -2.9879 h -2.98791 v -2.98911 h -2.9891 -2.98791 v -2.9879 h -2.9891 v -2.9891 h -2.98906 v -2.98906 h -2.9879 v -2.98795 h -2.98911 -2.9879 V 573.001 h -2.98911 v -2.98795 h -2.9891 v -2.98906 h -2.9879 -2.98911 v -2.9891 h -2.9891 v -2.98791 h -2.98791 v -2.9891 h -2.9891 v -2.98791 h -2.98791 -2.9891 v -2.9891 h -2.98906 v -2.98911 h -2.98795 v -2.9879 h -2.98906 v -2.98911 h -2.98795 -2.98906 v -2.9879 -2.9891 h 2.98906 v -2.98911 -2.9879 h 2.98795 v -2.98906 h 2.98906 v -2.9891 h 2.98795 v -2.98791 -2.9891 h 2.98906 v -2.98791 h 2.9891 v -2.9891 h 2.98791 v -2.98911 -2.9879 h 2.9891 v -2.98911 h 2.98791 v -2.9879 h 2.9891 v -2.98911 -2.9891 h 2.98911 v -2.9879 h 2.9879 v -2.98911 h 2.9891 v -2.9879 -2.98911 h 2.98911 v -2.98905 h 2.9879 v -2.98796 h 2.98911 v -2.98905 -2.98796 h 2.9879 v -2.98905 h 2.98906 v -2.98911 h 2.9891 v -2.9879 -2.98911 h 2.98791 v -2.9879 h 2.9891 v -2.98911 h 2.98791 v -2.9891 h 2.9891 v -2.9879 -2.98911 h 2.98911 v -2.9891 h 2.9879 v -2.98791 h 2.98911 v -2.9891 -2.98791 h 2.9879 v -2.98905 h 2.9891 v -2.98911 h 2.98911 v -2.9879 -2.98911 h 2.9879 v -2.9879 h 2.98911 v -2.98911 h 2.98905 v -2.9891 -2.98791 h 2.98796 v -2.9891 h 2.98905 v -2.9879 h 2.98796 v -2.98911 -2.9891 h 2.98905 v -2.98791 h 2.98911 v -2.9891 h 2.9879 v -2.98791 -2.9891 h 2.98911 z"
         inkscape:label="dropshadow" />
      <path
         style="opacity:0.33;fill:#000000;stroke-width:1.06634;stroke-linecap:round;stroke-linejoin:round;stroke-miterlimit:5"
         d="m 201.12529,536.96879 132.03375,-173.53006 1.88619,272.08383 z"
         id="path9023"
         inkscape:label="shade33" />
      <path
         style="opacity:0.66;fill:#000000;stroke-width:1.06634;stroke-linecap:round;stroke-linejoin:round;stroke-miterlimit:5"
         d="M 335.04523,363.91028 V 638.35185 L 468.49363,535.0826 Z"
         id="path9024"
         inkscape:label="shade66" />
    </g>
    <path
       id="path1"
       style="fill:#000000;fill-opacity:1;stroke-width:5.00001"
       d="m 329.85425,356.02657 v 2.9891 2.98791 h -2.9879 v 2.9891 h -2.98911 v 2.98791 h -2.9879 v 2.9891 2.98906 h -2.98911 v 2.98795 h -2.98905 v 2.98906 h -2.98796 v 2.9891 2.98791 h -2.98905 v 2.9891 h -2.98796 v 2.98791 h -2.98905 v 2.9891 2.98911 h -2.98911 v 2.9879 h -2.9879 v 2.9891 h -2.98911 v 2.98791 2.9891 h -2.9891 v 2.98911 h -2.9879 v 2.9879 h -2.98911 v 2.98911 2.9879 h -2.9879 v 2.98911 h -2.98911 v 2.98905 h -2.9891 v 2.98791 2.9891 h -2.98791 v 2.98791 h -2.9891 v 2.9891 h -2.98791 v 2.98911 2.9879 h -2.9891 v 2.9891 h -2.98906 v 2.98911 h -2.9879 v 2.9879 h -2.98911 v 2.98911 2.9879 h -2.9879 v 2.98911 h -2.98911 v 2.98905 h -2.9891 v 2.98796 2.98905 h -2.9879 v 2.98796 h -2.98911 v 2.98905 h -2.9891 v 2.98911 2.9879 h -2.98791 v 2.98911 h -2.9891 v 2.9879 h -2.98791 v 2.9891 2.98911 h -2.9891 v 2.9879 h -2.98906 v 2.98911 h -2.98795 v 2.9879 2.98911 h -2.98906 v 2.9891 h -2.98795 v 2.98791 h -2.98906 v 2.9891 2.98791 h -2.9891 v 2.9891 h -2.98791 v 2.98906 h -2.9891 v 2.9879 2.98911 h -2.9879 v 2.9891 h -2.98911 v 2.9879 h 2.98911 v 2.98911 h 2.9879 v 2.9879 h 2.9891 2.98791 v 2.98911 h 2.9891 v 2.9891 h 2.98906 v 2.98791 h 2.98795 2.98906 v 2.9891 h 2.98795 v 2.98791 h 2.98906 v 2.9891 h 2.9891 v 2.98906 h 2.98791 2.9891 v 2.98795 h 2.98791 v 2.98906 h 2.9891 v 2.98795 h 2.98911 2.9879 v 2.98906 h 2.9891 v 2.9891 h 2.98911 v 2.9879 h 2.9879 v 2.98911 h 2.98911 2.9879 v 2.9879 h 2.98906 v 2.98911 h 2.9891 v 2.9891 h 2.98791 2.9891 v 2.98791 h 2.98791 v 2.9891 h 2.9891 v 2.98911 h 2.98911 2.9879 v 2.9879 h 2.98911 v 2.98911 h 2.9879 v 2.9879 h 2.9891 v 2.98911 h 2.98911 2.9879 v 2.98905 h 2.98911 v 2.98791 h 2.98905 v 2.9891 h 2.98796 2.98905 v 2.9879 h 2.98796 v 2.98911 h 2.98905 v 2.9891 h 2.98911 v 2.98791 h 2.9879 2.98911 v 2.9891 h 2.9879 v 2.98791 h 2.98911 2.9891 2.9879 v -2.98791 h 2.98911 2.9879 v -2.9891 h 2.98911 v -2.98791 h 2.9891 v -2.9891 h 2.98791 2.9891 v -2.98911 h 2.98791 v -2.9879 h 2.98905 v -2.9891 h 2.98911 2.9879 v -2.98791 h 2.98911 v -2.98905 h 2.9879 v -2.98911 h 2.98911 v -2.9879 h 2.9891 2.9879 v -2.98911 h 2.98911 v -2.9879 h 2.9891 v -2.98911 h 2.98791 2.9891 v -2.9891 h 2.98791 v -2.98791 h 2.9891 v -2.9891 h 2.98906 v -2.98911 h 2.98795 2.98906 v -2.9879 h 2.98795 v -2.98911 h 2.98906 v -2.9879 h 2.9891 2.98791 v -2.9891 h 2.9891 v -2.98906 h 2.9879 v -2.98795 h 2.98911 v -2.98906 h 2.9891 2.98791 v -2.98795 h 2.9891 v -2.98906 h 2.98791 v -2.9891 h 2.9891 2.98911 v -2.98791 h 2.9879 v -2.9891 h 2.98906 v -2.98791 h 2.9891 v -2.9891 h 2.98791 2.9891 v -2.98911 h 2.98791 v -2.9879 h 2.9891 v -2.98911 h 2.9891 v -2.9879 -2.9891 h -2.9891 v -2.98911 h -2.9891 v -2.9879 h -2.98791 v -2.98906 -2.9891 h -2.9891 v -2.98791 h -2.98791 v -2.9891 h -2.9891 v -2.98791 -2.9891 h -2.98906 v -2.98911 h -2.9879 v -2.9879 h -2.98911 v -2.98911 -2.9879 h -2.9891 v -2.98911 h -2.98791 v -2.9891 h -2.9891 v -2.9879 -2.98911 h -2.98791 v -2.9879 h -2.9891 v -2.98911 H 428.479 v -2.98905 -2.98796 h -2.9879 v -2.98905 h -2.9891 v -2.98796 h -2.98791 v -2.98905 -2.98911 h -2.9891 v -2.9879 h -2.98906 v -2.98911 h -2.98795 v -2.9879 -2.98911 h -2.98906 v -2.9891 h -2.98795 v -2.9879 h -2.98906 v -2.98911 h -2.9891 v -2.9891 -2.98791 h -2.98791 v -2.9891 h -2.9891 v -2.98791 h -2.98791 v -2.98905 -2.98911 h -2.9891 v -2.9879 h -2.98911 v -2.98911 h -2.9879 v -2.9879 -2.98911 h -2.9891 v -2.9891 h -2.98911 v -2.98791 h -2.9879 v -2.9891 -2.9879 h -2.98911 v -2.98911 h -2.9879 v -2.9891 h -2.98911 v -2.98791 -2.9891 h -2.98905 v -2.98791 h -2.98791 v -2.9891 h -2.9891 v -2.98906 -2.98795 h -2.98791 v -2.98906 h -2.9891 v -2.9891 h -2.98911 v -2.98791 h -2.9879 v -2.9891 -2.98791 h -2.98911 v -2.9891 h -2.9879 -2.9891 z m 8.96611,17.93218 h 2.98911 v 2.98795 2.98906 h 2.9879 v 2.9891 h 2.98911 v 2.98791 h 2.9891 v 2.9891 2.98791 h 2.98791 v 2.9891 h 2.9891 v 2.98911 h 2.98791 v 2.9879 2.9891 h 2.98905 v 2.98791 h 2.98911 v 2.9891 h 2.9879 v 2.98911 2.9879 h 2.98911 v 2.98911 h 2.9879 v 2.9879 h 2.98911 v 2.98911 2.98905 h 2.9891 v 2.98791 h 2.9879 v 2.9891 h 2.98911 v 2.98791 2.9891 h 2.9891 v 2.98911 h 2.98791 v 2.9879 h 2.9891 v 2.9891 2.98911 h 2.98791 v 2.9879 h 2.9891 v 2.98911 h 2.98906 v 2.9879 2.98911 h 2.98795 v 2.98905 h 2.98906 v 2.98796 h 2.98795 v 2.98905 h 2.98906 v 2.98796 2.98905 h 2.9891 v 2.98911 h 2.98791 v 2.9879 h 2.9891 v 2.98911 2.9879 h 2.9879 v 2.9891 h 2.98911 v 2.98911 h 2.9891 v 2.9879 2.98911 h 2.98791 v 2.9879 h 2.9891 v 2.98911 h 2.98791 v 2.9891 2.98791 h 2.9891 v 2.9891 h 2.98911 v 2.98791 h 2.9879 v 2.9891 2.98906 h 2.98906 v 2.9879 h 2.9891 v 2.98911 h 2.98791 v 2.9891 h -2.98791 v 2.9879 h -2.9891 v 2.98911 h -2.98906 v 2.9879 h -2.9879 -2.98911 v 2.98911 h -2.9891 v 2.9891 h -2.98791 v 2.98791 h -2.9891 v 2.9891 h -2.98791 -2.9891 v 2.98791 H 428.479 v 2.9891 h -2.9879 v 2.98906 h -2.9891 -2.98791 v 2.98795 h -2.9891 v 2.98906 h -2.98906 v 2.98795 h -2.98795 v 2.98906 h -2.98906 -2.98795 v 2.9891 h -2.98906 v 2.9879 h -2.9891 v 2.98911 h -2.98791 -2.9891 v 2.9879 h -2.98791 v 2.98911 h -2.9891 v 2.9891 h -2.98911 v 2.98791 h -2.9879 -2.9891 v 2.9891 h -2.98911 v 2.98911 h -2.9879 v 2.9879 h -2.98911 -2.9879 v 2.98911 h -2.98911 v 2.9879 h -2.98905 v 2.98911 h -2.98791 v 2.98905 h -2.9891 -2.98791 v 2.98791 h -2.9891 v 2.9891 h -2.98911 v 2.9879 h -2.9879 -2.98911 v -2.9879 -2.9891 -2.98791 -2.98905 -2.98911 -2.9879 -2.98911 -2.9879 -2.98911 -2.9891 -2.98791 -2.9891 -2.98911 -2.9879 -2.98911 -2.9879 -2.9891 -2.98906 -2.98795 -2.98906 -2.98795 -2.98906 -2.9891 -2.98791 -2.9891 -2.98791 -2.9891 -2.98911 -2.9879 -2.98911 -2.9879 -2.9891 -2.98911 -2.9879 -2.98906 -2.9891 -2.98791 -2.9891 -2.98791 -2.9891 -2.98911 -2.9879 -2.98911 -2.9879 -2.98911 -2.9891 -2.9879 -2.98911 -2.9879 -2.98911 -2.98905 -2.98796 -2.98905 -2.98796 -2.98905 -2.98911 -2.9879 -2.98911 -2.9879 -2.98911 -2.9891 -2.9879 -2.98911 -2.9891 -2.98791 -2.9891 -2.98791 -2.98905 -2.98911 -2.9879 -2.98911 -2.9879 -2.98911 -2.9891 -2.98791 -2.9891 -2.9879 -2.98911 -2.9891 -2.98791 -2.9891 -2.98791 -2.9891 -2.98906 z m -11.95401,2.98795 h 2.9879 v 2.98906 2.9891 2.98791 2.9891 2.98791 2.9891 2.98911 2.9879 2.9891 2.98791 2.9891 2.98911 2.9879 2.98911 2.9879 2.98911 2.98905 2.98791 2.9891 2.98791 2.9891 2.98911 2.9879 2.9891 2.98911 2.9879 2.98911 2.9879 2.98911 2.98905 2.98796 2.98905 2.98796 2.98905 2.98911 2.9879 2.98911 2.9879 2.9891 2.98911 2.9879 2.98911 2.9879 2.98911 2.9891 2.98791 2.9891 2.98791 2.9891 2.98906 2.9879 2.98911 2.9891 2.9879 2.98911 2.9879 2.98911 2.9891 2.98791 2.9891 2.98791 2.9891 2.98906 2.98795 2.98906 2.98795 2.98906 2.9891 2.9879 2.98911 2.9879 2.98911 2.9891 2.98791 2.9891 2.98911 2.9879 2.98911 2.9879 2.98911 2.98905 2.98791 2.9891 2.9879 h -2.9879 v -2.9879 h -2.98911 -2.9879 v -2.9891 h -2.98911 v -2.98791 h -2.98905 v -2.98905 h -2.98796 v -2.98911 h -2.98905 -2.98796 v -2.9879 h -2.98905 v -2.98911 h -2.98911 v -2.9879 h -2.9879 -2.98911 v -2.98911 h -2.9891 v -2.9891 h -2.9879 v -2.98791 h -2.98911 v -2.9891 h -2.9879 -2.98911 v -2.98911 h -2.9891 v -2.9879 h -2.98791 v -2.98911 h -2.9891 -2.98791 v -2.9879 h -2.9891 v -2.9891 h -2.98906 v -2.98906 h -2.9879 v -2.98795 h -2.98911 -2.9879 v -2.98906 h -2.98911 v -2.98795 h -2.9891 v -2.98906 h -2.9879 -2.98911 v -2.9891 h -2.9891 v -2.98791 h -2.98791 v -2.9891 h -2.9891 v -2.98791 h -2.98791 -2.9891 v -2.9891 h -2.98906 v -2.98911 h -2.98795 v -2.9879 h -2.98906 v -2.98911 h -2.98795 -2.98906 v -2.9879 -2.9891 h 2.98906 v -2.98911 -2.9879 h 2.98795 v -2.98906 h 2.98906 v -2.9891 h 2.98795 v -2.98791 -2.9891 h 2.98906 v -2.98791 h 2.9891 v -2.9891 h 2.98791 v -2.98911 -2.9879 h 2.9891 v -2.98911 h 2.98791 v -2.9879 h 2.9891 v -2.98911 -2.9891 h 2.98911 v -2.9879 h 2.9879 v -2.98911 h 2.9891 v -2.9879 -2.98911 h 2.98911 v -2.98905 h 2.9879 v -2.98796 h 2.98911 v -2.98905 -2.98796 h 2.9879 v -2.98905 h 2.98906 v -2.98911 h 2.9891 v -2.9879 -2.98911 h 2.98791 v -2.9879 h 2.9891 v -2.98911 h 2.98791 v -2.9891 h 2.9891 v -2.9879 -2.98911 h 2.98911 v -2.9891 h 2.9879 v -2.98791 h 2.98911 v -2.9891 -2.98791 h 2.9879 v -2.98905 h 2.9891 v -2.98911 h 2.98911 v -2.9879 -2.98911 h 2.9879 v -2.9879 h 2.98911 V 409.822 h 2.98905 v -2.9891 -2.98791 h 2.98796 v -2.9891 h 2.98905 v -2.9879 h 2.98796 v -2.98911 -2.9891 h 2.98905 v -2.98791 h 2.98911 v -2.9891 h 2.9879 v -2.98791 -2.9891 h 2.98911 z"
       inkscape:label="edges" />
  </g>
</svg>
