<?xml version="1.0" encoding="UTF-8" standalone="no"?>
<svg
   version="1.1"
   viewBox="0 0 512 512"
   x="0px"
   y="0px"
   id="svg2"
   sodipodi:docname="d6.svg"
   width="512"
   height="512"
   inkscape:version="1.4 (86a8ad7, 2024-10-11)"
   xmlns:inkscape="http://www.inkscape.org/namespaces/inkscape"
   xmlns:sodipodi="http://sodipodi.sourceforge.net/DTD/sodipodi-0.dtd"
   xmlns="http://www.w3.org/2000/svg"
   xmlns:svg="http://www.w3.org/2000/svg">
  <defs
     id="defs2" />
  <sodipodi:namedview
     id="namedview2"
     pagecolor="#505050"
     bordercolor="#ffffff"
     borderopacity="1"
     inkscape:showpageshadow="0"
     inkscape:pageopacity="0"
     inkscape:pagecheckerboard="1"
     inkscape:deskcolor="#505050"
     inkscape:zoom="1.2675781"
     inkscape:cx="256.39446"
     inkscape:cy="255.2111"
     inkscape:window-width="1920"
     inkscape:window-height="1009"
     inkscape:window-x="-8"
     inkscape:window-y="-8"
     inkscape:window-maximized="1"
     inkscape:current-layer="g8150" />
  <g
     transform="matrix(1.6412158,0,0,1.6412158,-822.9048,-1111.0137)"
     id="g1">
    <path
       style="display:inline;fill:#2b2b45;stroke-width:1.087;stroke-linecap:round;stroke-linejoin:round;stroke-miterlimit:5"
       d="m 657.62178,691.84673 -120.65166,72.10259 -0.48068,140.3597 119.2096,68.73779 125.4585,-69.21848 -2.8841,-140.3597 z"
       id="path1"
       inkscape:label="background" />
    <g
       id="g8150"
       inkscape:label="shading">
      <path
         id="path8110"
         style="display:inline;opacity:0.5;fill:#000000;fill-opacity:1;stroke-width:5.00001"
         d="m 656.16264,691.56884 v 3.04581 h -3.0458 -3.04701 v 3.047 h -3.04575 -3.04701 v 3.04581 h -3.047 v 3.047 h -3.04581 -3.047 v 3.04696 h -3.04701 -3.04575 v 3.0458 h -3.047 v 3.04701 h -3.04581 -3.047 v 3.0458 h -3.04701 -3.0458 v 3.04701 h -3.04701 v 3.047 h -3.04575 -3.04701 v 3.04581 h -3.047 -3.04581 v 3.04695 h -3.047 -3.04581 v 3.04581 h -3.04695 v 3.047 h -3.04701 -3.0458 v 3.04701 h -3.04701 -3.0458 v 3.0458 h -3.04701 v 3.04701 h -3.047 -3.04576 v 3.04695 h -3.047 -3.04581 v 3.04581 h -3.047 v 3.047 h -3.047 -3.04581 v 3.04581 h -3.04695 -3.04701 v 3.047 h -3.0458 v 3.047 h -3.04701 -3.0458 v 3.04581 h -3.04701 v 3.04695 3.04581 3.047 3.04701 3.0458 3.04701 3.04575 3.04701 3.047 3.04581 3.047 3.04581 3.047 3.04696 3.0458 3.04701 3.047 3.04581 3.047 3.04576 3.047 3.047 3.04581 3.047 3.04581 3.04695 3.04701 3.0458 3.04701 3.0458 3.04701 3.047 3.04576 3.047 3.04581 3.047 3.04701 3.0458 3.04696 3.047 3.04581 3.047 3.04581 3.047 3.047 3.04576 3.047 3.04581 3.047 h 3.04701 v 3.04701 h 3.0458 3.04701 v 3.0458 h 3.0458 3.04701 v 3.04696 h 3.04695 v 3.0458 h 3.04581 3.047 v 3.04701 h 3.047 3.04581 v 3.047 h 3.047 3.04576 v 3.04581 h 3.047 v 3.047 h 3.04701 3.0458 v 3.04581 h 3.04701 3.0458 v 3.04695 h 3.04701 3.04695 v 3.04701 h 3.04581 v 3.0458 h 3.047 3.04581 v 3.04701 h 3.047 3.04701 v 3.047 h 3.04575 3.04701 v 3.04581 h 3.0458 v 3.04695 h 3.04701 3.047 v 3.04581 h 3.04581 3.047 v 3.047 h 3.04575 3.04701 v 3.04701 h 3.047 v 3.0458 h 3.04581 3.047 v 3.047 h 3.04701 3.04575 v 3.04581 h 3.04701 v 3.04695 h 3.0458 3.04701 3.047 3.04581 3.047 V 980.988 h 3.04576 3.047 v -3.04581 h 3.04701 3.0458 v -3.047 h 3.04701 v -3.0458 h 3.0458 3.04696 v -3.04701 h 3.047 3.04581 v -3.047 h 3.047 3.0458 v -3.04581 h 3.04701 v -3.04695 h 3.047 3.04576 v -3.04581 h 3.047 3.04581 v -3.047 h 3.047 3.04701 v -3.04701 h 3.0458 v -3.0458 h 3.04696 3.047 v -3.04701 h 3.04581 3.047 v -3.04695 h 3.04581 3.047 v -3.04581 h 3.04701 v -3.047 h 3.04575 3.04701 v -3.04581 h 3.0458 3.04701 v -3.047 h 3.047 3.04581 v -3.04701 h 3.04695 v -3.0458 h 3.0458 3.04701 v -3.04696 h 3.047 3.04581 v -3.0458 h 3.047 v -3.04701 h 3.04576 3.047 v -3.047 -3.04581 -3.047 -3.04576 -3.047 -3.047 -3.04581 -3.047 -3.04581 -3.047 -3.04696 -3.0458 -3.04701 -3.047 -3.04581 -3.047 -3.04576 -3.047 -3.04701 -3.0458 -3.04701 -3.0458 -3.04701 -3.04695 -3.04581 -3.047 -3.04581 -3.047 -3.047 -3.04576 -3.047 -3.04581 -3.047 -3.04701 -3.0458 -3.04696 -3.047 -3.04581 -3.047 -3.04581 -3.047 -3.04701 -3.04575 -3.04701 -3.0458 -3.04701 -3.047 -3.04581 -3.04695 h -3.047 V 761.639 h -3.04576 -3.047 v -3.047 h -3.04581 -3.047 v -3.047 h -3.04701 v -3.04581 h -3.0458 -3.04695 v -3.047 h -3.04581 -3.047 v -3.04581 h -3.04701 v -3.04695 h -3.0458 -3.04701 v -3.04701 h -3.04575 -3.04701 v -3.0458 h -3.047 v -3.04701 h -3.04581 -3.047 v -3.047 h -3.04581 -3.047 v -3.04581 h -3.04696 v -3.04695 h -3.0458 -3.04701 v -3.04581 h -3.047 -3.04581 v -3.047 h -3.047 v -3.04701 h -3.04576 -3.047 v -3.0458 h -3.04701 -3.0458 v -3.04701 h -3.047 v -3.0458 h -3.04581 -3.047 v -3.04696 h -3.04696 -3.0458 v -3.047 h -3.04701 -3.0458 v -3.04581 h -3.04701 v -3.047 h -3.047 -3.04576 v -3.04581 h -3.047 -3.04581 -3.047 z m 3.04701,12.18562 h 3.047 3.04581 v 3.04696 h 3.047 3.04576 v 3.0458 h 3.047 v 3.04701 h 3.04701 3.0458 v 3.0458 h 3.04701 3.0458 v 3.04701 h 3.04696 3.047 v 3.047 h 3.04581 v 3.04581 h 3.047 3.0458 v 3.04695 h 3.04701 3.047 v 3.04581 h 3.04576 v 3.047 h 3.047 3.04581 v 3.04701 h 3.047 3.04701 v 3.0458 h 3.0458 v 3.04701 h 3.04696 3.047 v 3.04695 h 3.04581 3.047 v 3.04581 h 3.04581 v 3.047 h 3.047 3.04701 v 3.04581 h 3.04575 3.04701 v 3.047 h 3.0458 v 3.047 h 3.04701 3.047 v 3.04581 h 3.04581 3.04695 v 3.04695 h 3.0458 v 3.04581 h -3.0458 v 3.047 h -3.04695 -3.04581 v 3.04701 h -3.047 -3.04701 v 3.0458 h -3.0458 -3.04701 v 3.04701 h -3.04575 v 3.04575 h -3.04701 -3.047 v 3.04701 h -3.04581 -3.047 v 3.047 h -3.04581 -3.047 v 3.04581 h -3.04696 v 3.047 h -3.0458 -3.04701 v 3.04581 h -3.047 -3.04581 v 3.047 h -3.047 -3.04576 v 3.04696 h -3.047 v 3.0458 h -3.04701 -3.0458 v 3.04701 h -3.047 -3.04581 v 3.047 h -3.047 v 3.04581 h -3.04696 -3.0458 v 3.047 h -3.04701 -3.0458 v 3.04576 h -3.04701 -3.047 v 3.047 h -3.04576 -3.047 v 3.047 h -3.04581 -3.047 -3.04701 v -3.047 h -3.0458 -3.04701 v -3.047 h -3.04575 v -3.04576 h -3.04701 -3.047 v -3.047 h -3.04581 -3.047 v -3.04581 h -3.04701 -3.04575 v -3.047 h -3.047 v -3.04701 h -3.04581 -3.047 v -3.0458 h -3.04701 -3.0458 v -3.04696 h -3.04701 v -3.047 h -3.04575 -3.04701 v -3.04581 h -3.047 -3.04581 v -3.047 h -3.047 -3.04581 v -3.04581 h -3.04695 v -3.047 h -3.04701 -3.0458 v -3.04701 h -3.04701 -3.0458 v -3.04575 h -3.04701 -3.047 v -3.04701 h -3.04576 v -3.0458 h -3.047 -3.04581 v -3.04701 h -3.047 -3.047 v -3.047 h -3.04581 -3.04695 v -3.04581 h 3.04695 3.04581 v -3.04695 h 3.047 3.047 V 761.639 h 3.04581 v -3.047 h 3.047 3.04576 v -3.047 h 3.047 3.04701 v -3.04581 h 3.0458 v -3.047 h 3.04701 3.0458 v -3.04581 h 3.04701 3.04695 v -3.04695 h 3.04581 v -3.04701 h 3.047 3.04581 v -3.0458 h 3.047 3.04701 v -3.04701 h 3.04575 v -3.047 h 3.04701 3.0458 v -3.04581 h 3.04701 3.047 v -3.04695 h 3.04581 3.047 v -3.04581 h 3.04575 v -3.047 h 3.04701 3.047 v -3.04701 h 3.04581 3.047 v -3.0458 h 3.04701 v -3.04701 h 3.04575 3.04701 v -3.0458 h 3.0458 3.04701 z m 115.76788,76.16292 h 3.047 v 3.04701 3.04575 3.04701 3.047 3.04581 3.047 3.04581 3.047 3.04696 3.0458 3.04701 3.047 3.04581 3.047 3.04576 3.047 h 3.04581 v 3.047 3.04581 3.047 3.04581 3.04695 3.04701 3.0458 3.04701 3.0458 3.04701 3.047 3.04576 3.047 3.04581 3.047 3.04701 3.0458 3.04696 3.047 3.04581 3.047 3.04581 3.047 3.047 3.04576 h -3.04581 v 3.047 h -3.047 -3.04701 v 3.04581 h -3.0458 v 3.047 h -3.04695 -3.04581 v 3.04701 h -3.047 -3.04701 v 3.0458 h -3.0458 -3.04701 v 3.04696 h -3.04575 v 3.0458 h -3.04701 -3.047 v 3.04701 h -3.04581 -3.047 v 3.047 h -3.04581 -3.047 v 3.04581 h -3.04696 v 3.047 h -3.0458 -3.04701 v 3.04581 h -3.047 -3.04581 v 3.04695 h -3.047 -3.04576 v 3.04701 h -3.047 v 3.0458 h -3.04701 -3.0458 v 3.04701 h -3.047 -3.04581 v 3.047 h -3.047 -3.04696 v 3.04581 h -3.0458 v 3.04695 h -3.04701 -3.0458 v 3.04581 h -3.04701 -3.047 v 3.047 h -3.04576 v -3.047 -3.04581 -3.04695 -3.04581 -3.047 -3.04701 -3.0458 -3.04701 -3.04695 -3.04581 -3.047 -3.04581 -3.047 -3.04701 -3.0458 -3.04696 -3.0458 -3.04701 -3.047 -3.04581 -3.047 -3.04576 -3.047 -3.047 -3.04581 -3.047 -3.04581 -3.047 -3.04696 -3.0458 -3.04701 -3.047 -3.04581 -3.047 -3.04576 -3.047 -3.04701 -3.0458 -3.04701 -3.0458 -3.04701 -3.04695 h 3.04576 3.047 v -3.04581 h 3.04701 3.0458 v -3.047 h 3.04701 3.0458 v -3.04581 h 3.04696 v -3.047 h 3.047 3.04581 v -3.047 h 3.047 3.0458 v -3.04576 h 3.04701 3.047 v -3.047 h 3.04576 v -3.04581 h 3.047 3.04581 v -3.047 h 3.047 3.04701 v -3.04701 h 3.0458 3.04696 v -3.0458 h 3.047 v -3.04696 h 3.04581 3.047 v -3.047 h 3.04581 3.047 v -3.04581 h 3.04701 3.04575 v -3.047 h 3.04701 v -3.04581 h 3.0458 3.04701 v -3.047 h 3.047 3.04581 v -3.04701 h 3.04695 3.0458 v -3.04575 h 3.04701 z m -228.48996,3.04701 h 3.04701 3.04695 v 3.04575 h 3.04581 3.047 v 3.04701 h 3.047 3.04581 v 3.047 h 3.047 v 3.04581 h 3.04576 3.047 v 3.047 h 3.04701 3.0458 v 3.04581 h 3.04701 3.0458 v 3.047 h 3.04701 v 3.04696 h 3.04695 3.04581 v 3.0458 h 3.047 3.04581 v 3.04701 h 3.047 3.04701 v 3.047 h 3.04575 v 3.04581 h 3.04701 3.0458 v 3.047 h 3.04701 3.047 v 3.04576 h 3.04581 3.047 v 3.047 h 3.04575 v 3.047 h 3.04701 3.047 v 3.04581 h 3.04581 3.047 v 3.047 h 3.04701 3.04575 v 3.04581 h 3.04701 v 3.04695 h 3.0458 v 3.04701 3.0458 3.04701 3.0458 3.04701 3.047 3.04576 3.047 3.04581 3.047 3.04701 3.0458 3.04696 3.047 3.04581 3.047 3.04581 3.047 3.047 3.04576 3.047 3.04581 3.047 3.04701 3.0458 3.04696 3.0458 3.04701 3.047 3.04581 3.047 3.04581 3.04695 3.04701 3.0458 3.04701 3.047 3.04581 3.04695 3.04581 3.047 h -3.0458 v -3.047 h -3.04701 -3.04575 v -3.04581 h -3.04701 -3.047 v -3.04695 h -3.04581 -3.047 v -3.04581 h -3.04701 v -3.047 h -3.04575 -3.047 v -3.04701 h -3.04581 -3.047 v -3.0458 h -3.04701 -3.0458 v -3.04701 h -3.04701 v -3.04695 h -3.04575 -3.04701 v -3.04581 h -3.047 -3.04581 v -3.047 h -3.047 -3.04581 v -3.04581 h -3.04695 v -3.047 h -3.04701 -3.0458 v -3.04701 h -3.04701 -3.0458 v -3.0458 h -3.04701 -3.047 v -3.04696 h -3.04576 v -3.0458 h -3.047 -3.04581 v -3.04701 h -3.047 -3.047 v -3.047 h -3.04581 -3.04695 v -3.04581 h -3.04701 v -3.047 h -3.0458 v -3.04576 -3.047 -3.047 -3.04581 -3.047 -3.04581 -3.047 -3.04696 -3.0458 -3.04701 -3.047 -3.04581 -3.047 -3.04576 -3.047 -3.04701 -3.0458 -3.04701 -3.0458 -3.04701 -3.04695 -3.04581 -3.047 -3.04581 -3.047 -3.047 -3.04576 -3.047 -3.04581 -3.047 -3.04701 -3.0458 -3.04696 -3.047 -3.04581 -3.047 h 3.0458 v -3.04581 -3.047 -3.04701 z"
         inkscape:label="dropshadow" />
      <path
         style="opacity:0.33;fill:#000000;fill-opacity:1;stroke-width:1.087;stroke-linecap:round;stroke-linejoin:round;stroke-miterlimit:5"
         d="m 535.04738,768.27547 -1.92273,136.03355 122.57439,68.73779 -0.48068,-140.3597 z"
         id="path8151"
         inkscape:label="shade33" />
      <path
         style="fill:#000000;fill-opacity:1;stroke-width:1.087;stroke-linecap:round;stroke-linejoin:round;stroke-miterlimit:5;opacity:0.5"
         d="M 534.5667,766.35274 654.73767,833.1678 777.31207,765.87205 659.54451,693.76947 Z"
         id="path8150"
         inkscape:label="shade50" />
      <path
         style="opacity:0.66;fill:#000000;fill-opacity:1;stroke-width:1.087;stroke-linecap:round;stroke-linejoin:round;stroke-miterlimit:5"
         d="m 778.27344,766.35274 -121.61303,67.77643 1.92274,139.39833 123.05507,-68.7378 z"
         id="path8152"
         inkscape:label="shade66" />
    </g>
    <path
       id="path2"
       style="display:inline;fill:#000000;fill-opacity:1;stroke-width:5.00001"
       d="m 651.28805,686.6944 v 3.04581 h -3.0458 -3.04701 v 3.047 h -3.04575 -3.04701 v 3.04581 h -3.047 v 3.047 h -3.04581 -3.047 v 3.04696 h -3.04701 -3.04575 v 3.0458 h -3.047 v 3.04701 h -3.04581 -3.047 v 3.0458 h -3.04701 -3.0458 v 3.04701 h -3.04701 v 3.047 h -3.04575 -3.04701 v 3.04581 h -3.047 -3.04581 v 3.04695 h -3.047 -3.04581 v 3.04581 h -3.04695 v 3.047 h -3.04701 -3.0458 v 3.04701 h -3.04701 -3.0458 v 3.0458 h -3.04701 v 3.04701 h -3.047 -3.04576 v 3.04695 h -3.047 -3.04581 v 3.04581 h -3.047 v 3.047 h -3.047 -3.04581 v 3.04581 h -3.04695 -3.04701 v 3.047 h -3.0458 v 3.047 h -3.04701 -3.0458 v 3.04581 h -3.04701 v 3.04695 3.04581 3.047 3.04701 3.0458 3.04701 3.04575 3.04701 3.047 3.04581 3.047 3.04581 3.047 3.04696 3.0458 3.04701 3.047 3.04581 3.047 3.04576 3.047 3.047 3.04581 3.047 3.04581 3.04695 3.04701 3.0458 3.04701 3.0458 3.04701 3.047 3.04576 3.047 3.04581 3.047 3.04701 3.0458 3.04696 3.047 3.04581 3.047 3.04581 3.047 3.047 3.04576 3.047 3.04581 3.047 h 3.04701 v 3.04701 h 3.0458 3.04701 v 3.0458 h 3.0458 3.04701 v 3.04696 h 3.04695 v 3.0458 h 3.04581 3.047 v 3.04701 h 3.047 3.04581 v 3.047 h 3.047 3.04576 v 3.04581 h 3.047 v 3.047 h 3.04701 3.0458 v 3.04581 h 3.04701 3.0458 v 3.04695 h 3.04701 3.04695 v 3.04701 h 3.04581 v 3.0458 h 3.047 3.04581 v 3.04701 h 3.047 3.04701 v 3.047 h 3.04575 3.04701 v 3.04581 h 3.0458 v 3.04695 h 3.04701 3.047 v 3.04581 h 3.04581 3.047 v 3.047 h 3.04575 3.04701 v 3.04701 h 3.047 v 3.0458 h 3.04581 3.047 v 3.047 h 3.04701 3.04575 v 3.04581 h 3.04701 v 3.04695 h 3.0458 3.04701 3.047 3.04581 3.047 v -3.04695 h 3.04576 3.047 v -3.04581 h 3.04701 3.0458 v -3.047 h 3.04701 v -3.0458 h 3.0458 3.04696 v -3.04701 h 3.047 3.04581 v -3.047 h 3.047 3.0458 v -3.04581 h 3.04701 v -3.04695 h 3.047 3.04576 v -3.04581 h 3.047 3.04581 v -3.047 h 3.047 3.04701 v -3.04701 h 3.0458 v -3.0458 h 3.04696 3.047 v -3.04701 h 3.04581 3.047 v -3.04695 h 3.04581 3.047 v -3.04581 h 3.04701 v -3.047 h 3.04575 3.04701 v -3.04581 h 3.0458 3.04701 v -3.047 h 3.047 3.04581 v -3.04701 h 3.04695 v -3.0458 h 3.0458 3.04701 v -3.04696 h 3.047 3.04581 v -3.0458 h 3.047 v -3.04701 h 3.04576 3.047 v -3.047 -3.04581 -3.047 -3.04576 -3.047 -3.047 -3.04581 -3.047 -3.04581 -3.047 -3.04696 -3.0458 -3.04701 -3.047 -3.04581 -3.047 -3.04576 -3.047 -3.04701 -3.0458 -3.04701 -3.0458 -3.04701 -3.04695 -3.04581 -3.047 -3.04581 -3.047 -3.047 -3.04576 -3.047 -3.04581 -3.047 -3.04701 -3.0458 -3.04696 -3.047 -3.04581 -3.047 -3.04581 -3.047 -3.04701 -3.04575 -3.04701 -3.0458 -3.04701 -3.047 -3.04581 -3.04695 h -3.047 v -3.04581 h -3.04576 -3.047 v -3.047 h -3.04581 -3.047 v -3.047 h -3.04701 v -3.04581 h -3.0458 -3.04695 v -3.047 h -3.04581 -3.047 v -3.04581 h -3.04701 v -3.04695 h -3.0458 -3.04701 v -3.04701 h -3.04575 -3.04701 v -3.0458 h -3.047 v -3.04701 h -3.04581 -3.047 v -3.047 h -3.04581 -3.047 v -3.04581 h -3.04696 v -3.04695 h -3.0458 -3.04701 v -3.04581 h -3.047 -3.04581 v -3.047 h -3.047 v -3.04701 h -3.04576 -3.047 v -3.0458 h -3.04701 -3.0458 v -3.04701 h -3.047 v -3.0458 h -3.04581 -3.047 v -3.04696 h -3.04696 -3.0458 v -3.047 h -3.04701 -3.0458 v -3.04581 h -3.04701 v -3.047 h -3.047 -3.04576 v -3.04581 h -3.047 -3.04581 -3.047 z m 3.04701,12.18562 h 3.047 3.04581 v 3.04696 h 3.047 3.04576 v 3.0458 h 3.047 v 3.04701 h 3.04701 3.0458 v 3.0458 h 3.04701 3.0458 v 3.04701 h 3.04696 3.047 v 3.047 h 3.04581 v 3.04581 h 3.047 3.0458 v 3.04695 h 3.04701 3.047 v 3.04581 h 3.04576 v 3.047 h 3.047 3.04581 v 3.04701 h 3.047 3.04701 v 3.0458 h 3.0458 v 3.04701 h 3.04696 3.047 v 3.04695 h 3.04581 3.047 v 3.04581 h 3.04581 v 3.047 h 3.047 3.04701 v 3.04581 h 3.04575 3.04701 v 3.047 h 3.0458 v 3.047 h 3.04701 3.047 v 3.04581 h 3.04581 3.04695 v 3.04695 h 3.0458 v 3.04581 h -3.0458 v 3.047 h -3.04695 -3.04581 v 3.04701 h -3.047 -3.04701 v 3.0458 h -3.0458 -3.04701 v 3.04701 h -3.04575 v 3.04575 h -3.04701 -3.047 v 3.04701 h -3.04581 -3.047 v 3.047 h -3.04581 -3.047 v 3.04581 h -3.04696 v 3.047 h -3.0458 -3.04701 v 3.04581 h -3.047 -3.04581 v 3.047 h -3.047 -3.04576 v 3.04696 h -3.047 v 3.0458 h -3.04701 -3.0458 v 3.04701 h -3.047 -3.04581 v 3.047 h -3.047 v 3.04581 h -3.04696 -3.0458 v 3.047 h -3.04701 -3.0458 v 3.04576 h -3.04701 -3.047 v 3.047 h -3.04576 -3.047 v 3.047 h -3.04581 -3.047 -3.04701 v -3.047 h -3.0458 -3.04701 v -3.047 h -3.04575 v -3.04576 h -3.04701 -3.047 v -3.047 h -3.04581 -3.047 v -3.04581 h -3.04701 -3.04575 v -3.047 h -3.047 v -3.04701 h -3.04581 -3.047 v -3.0458 h -3.04701 -3.0458 v -3.04696 h -3.04701 v -3.047 h -3.04575 -3.04701 v -3.04581 h -3.047 -3.04581 v -3.047 h -3.047 -3.04581 v -3.04581 h -3.04695 v -3.047 h -3.04701 -3.0458 v -3.04701 h -3.04701 -3.0458 v -3.04575 h -3.04701 -3.047 v -3.04701 h -3.04576 v -3.0458 h -3.047 -3.04581 v -3.04701 h -3.047 -3.047 v -3.047 h -3.04581 -3.04695 v -3.04581 h 3.04695 3.04581 v -3.04695 h 3.047 3.047 v -3.04581 h 3.04581 v -3.047 h 3.047 3.04576 v -3.047 h 3.047 3.04701 v -3.04581 h 3.0458 v -3.047 h 3.04701 3.0458 v -3.04581 h 3.04701 3.04695 v -3.04695 h 3.04581 v -3.04701 h 3.047 3.04581 v -3.0458 h 3.047 3.04701 v -3.04701 h 3.04575 v -3.047 h 3.04701 3.0458 v -3.04581 h 3.04701 3.047 v -3.04695 h 3.04581 3.047 v -3.04581 h 3.04575 v -3.047 h 3.04701 3.047 v -3.04701 h 3.04581 3.047 v -3.0458 h 3.04701 v -3.04701 h 3.04575 3.04701 v -3.0458 h 3.0458 3.04701 z m 115.76788,76.16292 h 3.047 v 3.04701 3.04575 3.04701 3.047 3.04581 3.047 3.04581 3.047 3.04696 3.0458 3.04701 3.047 3.04581 3.047 3.04576 3.047 h 3.04581 v 3.047 3.04581 3.047 3.04581 3.04695 3.04701 3.0458 3.04701 3.0458 3.04701 3.047 3.04576 3.047 3.04581 3.047 3.04701 3.0458 3.04696 3.047 3.04581 3.047 3.04581 3.047 3.047 3.04576 h -3.04581 v 3.047 h -3.047 -3.04701 v 3.04581 h -3.0458 v 3.047 h -3.04695 -3.04581 v 3.04701 h -3.047 -3.04701 v 3.0458 h -3.0458 -3.04701 v 3.04696 h -3.04575 v 3.0458 h -3.04701 -3.047 v 3.04701 h -3.04581 -3.047 v 3.047 h -3.04581 -3.047 v 3.04581 h -3.04696 v 3.047 h -3.0458 -3.04701 v 3.04581 h -3.047 -3.04581 v 3.04695 h -3.047 -3.04576 v 3.04701 h -3.047 v 3.0458 h -3.04701 -3.0458 v 3.04701 h -3.047 -3.04581 v 3.047 h -3.047 -3.04696 v 3.04581 h -3.0458 v 3.04695 h -3.04701 -3.0458 v 3.04581 h -3.04701 -3.047 v 3.047 h -3.04576 v -3.047 -3.04581 -3.04695 -3.04581 -3.047 -3.04701 -3.0458 -3.04701 -3.04695 -3.04581 -3.047 -3.04581 -3.047 -3.04701 -3.0458 -3.04696 -3.0458 -3.04701 -3.047 -3.04581 -3.047 -3.04576 -3.047 -3.047 -3.04581 -3.047 -3.04581 -3.047 -3.04696 -3.0458 -3.04701 -3.047 -3.04581 -3.047 -3.04576 -3.047 -3.04701 -3.0458 -3.04701 -3.0458 -3.04701 -3.04695 h 3.04576 3.047 v -3.04581 h 3.04701 3.0458 v -3.047 h 3.04701 3.0458 v -3.04581 h 3.04696 v -3.047 h 3.047 3.04581 v -3.047 h 3.047 3.0458 v -3.04576 h 3.04701 3.047 v -3.047 h 3.04576 v -3.04581 h 3.047 3.04581 v -3.047 h 3.047 3.04701 v -3.04701 h 3.0458 3.04696 v -3.0458 h 3.047 v -3.04696 h 3.04581 3.047 v -3.047 h 3.04581 3.047 v -3.04581 h 3.04701 3.04575 v -3.047 h 3.04701 v -3.04581 h 3.0458 3.04701 v -3.047 h 3.047 3.04581 v -3.04701 h 3.04695 3.0458 v -3.04575 h 3.04701 z m -228.48996,3.04701 h 3.04701 3.04695 v 3.04575 h 3.04581 3.047 v 3.04701 h 3.047 3.04581 v 3.047 h 3.047 v 3.04581 h 3.04576 3.047 v 3.047 h 3.04701 3.0458 v 3.04581 h 3.04701 3.0458 v 3.047 h 3.04701 v 3.04696 h 3.04695 3.04581 v 3.0458 h 3.047 3.04581 v 3.04701 h 3.047 3.04701 v 3.047 h 3.04575 v 3.04581 h 3.04701 3.0458 v 3.047 h 3.04701 3.047 v 3.04576 h 3.04581 3.047 v 3.047 h 3.04575 v 3.047 h 3.04701 3.047 v 3.04581 h 3.04581 3.047 v 3.047 h 3.04701 3.04575 v 3.04581 h 3.04701 v 3.04695 h 3.0458 v 3.04701 3.0458 3.04701 3.0458 3.04701 3.047 3.04576 3.047 3.04581 3.047 3.04701 3.0458 3.04696 3.047 3.04581 3.047 3.04581 3.047 3.047 3.04576 3.047 3.04581 3.047 3.04701 3.0458 3.04696 3.0458 3.04701 3.047 3.04581 3.047 3.04581 3.04695 3.04701 3.0458 3.04701 3.047 3.04581 3.04695 3.04581 3.047 h -3.0458 v -3.047 h -3.04701 -3.04575 v -3.04581 h -3.04701 -3.047 v -3.04695 h -3.04581 -3.047 v -3.04581 h -3.04701 v -3.047 h -3.04575 -3.047 v -3.04701 h -3.04581 -3.047 v -3.0458 h -3.04701 -3.0458 v -3.04701 h -3.04701 v -3.04695 h -3.04575 -3.04701 v -3.04581 h -3.047 -3.04581 v -3.047 h -3.047 -3.04581 v -3.04581 h -3.04695 v -3.047 h -3.04701 -3.0458 v -3.04701 h -3.04701 -3.0458 v -3.0458 h -3.04701 -3.047 v -3.04696 h -3.04576 v -3.0458 h -3.047 -3.04581 v -3.04701 h -3.047 -3.047 v -3.047 h -3.04581 -3.04695 v -3.04581 h -3.04701 v -3.047 h -3.0458 v -3.04576 -3.047 -3.047 -3.04581 -3.047 -3.04581 -3.047 -3.04696 -3.0458 -3.04701 -3.047 -3.04581 -3.047 -3.04576 -3.047 -3.04701 -3.0458 -3.04701 -3.0458 -3.04701 -3.04695 -3.04581 -3.047 -3.04581 -3.047 -3.047 -3.04576 -3.047 -3.04581 -3.047 -3.04701 -3.0458 -3.04696 -3.047 -3.04581 -3.047 h 3.0458 v -3.04581 -3.047 -3.04701 z"
       inkscape:label="edges" />
  </g>
</svg>
