<?xml version="1.0" encoding="UTF-8" standalone="no"?>
<svg
   version="1.1"
   viewBox="0 0 512 512"
   x="0px"
   y="0px"
   id="svg2"
   sodipodi:docname="d8.svg"
   width="512"
   height="512"
   inkscape:version="1.4 (86a8ad7, 2024-10-11)"
   xmlns:inkscape="http://www.inkscape.org/namespaces/inkscape"
   xmlns:sodipodi="http://sodipodi.sourceforge.net/DTD/sodipodi-0.dtd"
   xmlns="http://www.w3.org/2000/svg"
   xmlns:svg="http://www.w3.org/2000/svg">
  <defs
     id="defs2" />
  <sodipodi:namedview
     id="namedview2"
     pagecolor="#505050"
     bordercolor="#ffffff"
     borderopacity="1"
     inkscape:showpageshadow="0"
     inkscape:pageopacity="0"
     inkscape:pagecheckerboard="1"
     inkscape:deskcolor="#505050"
     inkscape:zoom="1.2675781"
     inkscape:cx="256.00001"
     inkscape:cy="255.2111"
     inkscape:window-width="1920"
     inkscape:window-height="1009"
     inkscape:window-x="-8"
     inkscape:window-y="-8"
     inkscape:window-maximized="1"
     inkscape:current-layer="g9314" />
  <g
     transform="matrix(1.6783217,0,0,1.6783217,-846.24217,-19.244759)"
     id="g1">
    <path
       id="path1"
       style="fill:#2b2b45"
       inkscape:label="background"
       d="M 657.49974 21.000002 C 656.94684 21.000002 624.32221 53.175001 585.00009 92.500001 L 513.50474 164 L 585.00009 235.5 C 624.32221 274.825 656.86523 307 657.31819 307 C 658.70989 307 800.00049 165.21158 800.00049 163.81497 C 800.00049 162.30019 659.01118 21.000002 657.49974 21.000002 z " />
    <g
       id="g9314">
      <path
         id="path9267"
         style="opacity:0.5;fill:#000000;fill-opacity:1;stroke-width:4.94845"
         d="M 657.09712,27.241356 V 30.1891 h -2.94893 v 2.948907 h -2.94888 v 2.948913 h -2.9478 v 2.947744 h -2.94888 v 2.948907 h -2.94774 v 2.94775 h -2.94894 v 2.948907 h -2.94888 v 2.948908 h -2.94774 v 2.947749 h -2.94893 v 2.948907 h -2.94775 v 2.947745 h -2.94888 v 2.948912 h -2.94893 v 2.948907 h -2.94775 v 2.94775 h -2.94888 v 2.948907 h -2.94774 v 2.948907 h -2.94894 v 2.94775 h -2.94893 v 2.948907 h -2.94774 v 2.947745 h -2.94889 v 2.948912 h -2.94893 v 2.948907 h -2.94774 v 2.947745 h -2.94889 v 2.948912 h -2.94774 v 2.947744 h -2.94893 v 2.948918 h -2.94888 v 2.9489 h -2.94775 v 2.94775 h -2.94893 v 2.94891 h -2.94775 v 2.94775 h -2.94888 v 2.9489 h -2.94893 v 2.94892 h -2.94774 v 2.94774 h -2.94894 v 2.94891 h -2.94774 v 2.94775 h -2.94888 v 2.9489 h -2.94894 v 2.94892 h -2.94774 v 2.94774 h -2.94888 v 2.94891 h -2.94775 v 2.94891 h -2.94893 v 2.94774 h -2.94888 v 2.94891 h -2.94775 v 2.94775 h -2.94893 v 2.94891 h -2.94888 v 2.94891 h -2.94779 v 2.94775 h -2.94889 v 2.9489 h -2.94774 v 2.94775 h -2.94893 v 2.94891 2.94891 h 2.94893 v 2.94775 h 2.94774 v 2.9489 h 2.94889 v 2.94775 h 2.94779 v 2.94891 h 2.94888 v 2.94891 h 2.94893 v 2.94775 h 2.94775 v 2.9489 h 2.94888 v 2.94775 h 2.94893 v 2.94891 h 2.94775 v 2.94891 h 2.94888 v 2.94774 h 2.94774 v 2.94892 h 2.94894 v 2.9489 h 2.94888 v 2.94775 h 2.94774 v 2.94891 h 2.94894 v 2.94774 h 2.94774 v 2.94892 h 2.94893 v 2.9489 h 2.94888 v 2.94775 h 2.94775 v 2.94891 h 2.94893 v 2.94774 h 2.94775 v 2.94891 h 2.94888 v 2.94891 h 2.94893 v 2.94775 h 2.94774 v 2.94891 h 2.94889 v 2.94775 h 2.94774 v 2.9489 h 2.94893 v 2.94892 h 2.94889 v 2.94774 h 2.94774 v 2.94891 h 2.94893 v 2.94775 h 2.94894 v 2.9489 h 2.94774 v 2.94891 h 2.94888 v 2.94775 h 2.94775 v 2.94891 h 2.94893 v 2.94891 h 2.94888 v 2.94774 h 2.94775 v 2.94891 h 2.94893 v 2.94775 h 2.94774 v 2.94891 h 2.94888 v 2.94891 h 2.94894 v 2.94775 h 2.94774 v 2.9489 h 2.94888 v 2.94775 h 2.9478 v 2.94891 h 2.94888 v 2.94891 h 2.94893 v 2.94774 h 2.94775 2.94888 2.94774 v -2.94774 h 2.94894 v -2.94891 h 2.94888 v -2.94891 h 2.94774 v -2.94775 h 2.94894 v -2.9489 h 2.94774 v -2.94775 h 2.94888 v -2.94891 h 2.94893 v -2.94891 h 2.94775 v -2.94775 h 2.94893 V 280.808 h 2.94888 v -2.94774 h 2.94775 v -2.94891 h 2.94893 v -2.94891 h 2.94774 v -2.94775 h 2.94889 v -2.94891 h 2.94893 v -2.9489 h 2.94774 v -2.94775 h 2.94889 v -2.94891 h 2.94774 v -2.94774 h 2.94893 v -2.94892 h 2.94889 v -2.9489 h 2.94774 v -2.94775 h 2.94893 V 242.478 h 2.94775 v -2.94775 h 2.94893 v -2.94891 h 2.94888 v -2.94891 h 2.94775 v -2.94774 h 2.94893 v -2.94891 h 2.94774 v -2.94775 h 2.94888 v -2.9489 h 2.94894 v -2.94892 h 2.94774 v -2.94774 h 2.94888 v -2.94891 h 2.94894 v -2.94775 h 2.94774 v -2.9489 h 2.94888 v -2.94892 h 2.94775 v -2.94774 h 2.94893 v -2.94891 h 2.94893 v -2.94891 h 2.94775 v -2.94775 h 2.94888 v -2.9489 h 2.94774 v -2.94775 h 2.94893 v -2.94891 h 2.94889 v -2.94891 h 2.94774 v -2.94775 -2.9489 h 2.94893 v -2.94775 h 2.94775 v -2.94891 h 2.94888 v -2.94891 h -2.94888 v -2.94775 h -2.94775 v -2.9489 h -2.94893 v -2.94775 h -2.94774 v -2.94891 h -2.94889 v -2.94891 h -2.94893 v -2.94775 h -2.94774 v -2.94891 h -2.94888 v -2.94774 h -2.94775 v -2.94891 h -2.94893 v -2.94891 h -2.94893 v -2.94774 h -2.94775 v -2.94892 h -2.94888 v -2.9489 h -2.94774 v -2.94775 h -2.94894 v -2.94891 h -2.94888 v -2.94774 H 754.396 v -2.94892 h -2.94894 v -2.9489 h -2.94888 v -2.94775 h -2.94774 v -2.94891 h -2.94893 v -2.94775 h -2.94775 v -2.9489 h -2.94888 v -2.948918 h -2.94893 v -2.947744 h -2.94775 v -2.948912 h -2.94893 v -2.947745 h -2.94774 v -2.948907 h -2.94889 v -2.948912 h -2.94893 v -2.947745 h -2.94774 V 77.36467 h -2.94889 v -2.94775 h -2.94774 v -2.948907 h -2.94893 v -2.948907 h -2.94889 v -2.94775 h -2.94774 v -2.948907 h -2.94893 v -2.948912 h -2.94775 v -2.947745 h -2.94888 v -2.948907 h -2.94893 v -2.947749 h -2.94775 v -2.948908 h -2.94893 v -2.948907 h -2.94888 v -2.94775 h -2.94774 v -2.948907 h -2.94894 V 36.08692 h -2.94774 v -2.948913 h -2.94888 V 30.1891 h -2.94894 v -2.947744 h -2.94774 -2.94888 z m -2.94893,14.742215 h 2.94893 v 2.94775 2.948907 2.948908 2.947749 2.948907 2.947745 2.948912 2.948907 2.94775 2.948907 2.948907 2.94775 2.948907 2.947745 2.948912 2.948907 2.947745 2.948912 2.947744 2.948918 2.9489 2.94775 2.94891 2.94775 2.9489 2.94892 2.94774 2.94891 2.94775 2.9489 2.94892 2.94774 2.94891 2.94891 2.94774 2.94891 2.94775 2.94891 2.94891 2.94775 2.9489 2.94775 2.94891 2.94891 2.94775 2.9489 2.94775 2.94891 2.94891 2.94775 2.9489 2.94775 2.94891 2.94891 2.94774 2.94892 2.9489 2.94775 2.94891 2.94774 2.94892 h -2.94893 v 2.9489 h -2.94888 v -2.9489 h -2.9478 -2.94888 -2.94774 v -2.94892 h -2.94894 -2.94888 v -2.94774 h -2.94774 -2.94893 v -2.94891 h -2.94775 -2.94888 v -2.94775 h -2.94893 -2.94775 v -2.9489 h -2.94888 -2.94774 v -2.94892 h -2.94894 -2.94893 v -2.94774 h -2.94774 -2.94889 -2.94893 v -2.94891 h -2.94774 -2.94889 v -2.94891 h -2.94774 -2.94893 v -2.94775 h -2.94888 -2.94775 v -2.9489 h -2.94893 -2.94775 v -2.94775 h -2.94888 -2.94893 v -2.94891 h -2.94774 -2.94894 v -2.94891 h -2.94774 -2.94888 v -2.94775 h -2.94894 -2.94774 v -2.9489 h -2.94888 -2.94775 -2.94893 v -2.94775 h -2.94888 -2.94775 v -2.94891 h -2.94893 v -2.94891 -2.94775 h 2.94893 v -2.9489 h 2.94775 v -2.94775 h 2.94888 v -2.94891 h 2.94893 v -2.94891 h 2.94775 v -2.94775 h 2.94888 v -2.94891 h 2.94774 v -2.94774 h 2.94894 v -2.94891 h 2.94888 v -2.94891 h 2.94774 v -2.94774 h 2.94894 v -2.94892 h 2.94774 v -2.9489 h 2.94893 v -2.94775 h 2.94888 v -2.94891 h 2.94775 v -2.94774 h 2.94893 v -2.94892 h 2.94775 v -2.9489 h 2.94888 v -2.94775 h 2.94893 v -2.94891 h 2.94774 v -2.94775 h 2.94889 v -2.9489 h 2.94774 v -2.948918 h 2.94893 v -2.947744 h 2.94889 v -2.948912 h 2.94774 v -2.947745 h 2.94893 v -2.948907 h 2.94894 v -2.948912 h 2.94774 v -2.947745 h 2.94888 V 77.36467 h 2.94775 v -2.94775 h 2.94893 v -2.948907 h 2.94888 v -2.948907 h 2.94775 v -2.94775 h 2.94893 v -2.948907 h 2.94774 v -2.948912 h 2.94888 v -2.947745 h 2.94894 v -2.948907 h 2.94774 v -2.947749 h 2.94888 v -2.948908 h 2.9478 v -2.948907 h 2.94888 z m 11.7933,2.94775 h 2.94894 v 2.948907 h 2.94888 v 2.948908 h 2.94774 v 2.947749 h 2.94894 v 2.948907 h 2.94774 v 2.947745 h 2.94888 v 2.948912 h 2.94893 v 2.948907 h 2.94775 v 2.94775 h 2.94893 v 2.948907 h 2.94888 v 2.948907 h 2.94775 v 2.94775 h 2.94893 v 2.948907 h 2.94774 v 2.947745 h 2.94889 v 2.948912 h 2.94893 v 2.948907 h 2.94774 v 2.947745 h 2.94889 v 2.948912 h 2.94774 v 2.947744 h 2.94893 v 2.948918 h 2.94889 v 2.9489 h 2.94774 v 2.94775 h 2.94893 v 2.94891 h 2.94775 v 2.94775 h 2.94893 v 2.9489 h 2.94888 v 2.94892 h 2.94775 v 2.94774 h 2.94893 v 2.94891 h 2.94774 v 2.94775 h 2.94888 v 2.9489 h 2.94894 v 2.94892 h 2.94774 v 2.94774 h 2.94888 v 2.94891 h 2.94894 v 2.94891 h 2.94774 v 2.94774 h 2.94888 v 2.94891 h 2.94775 v 2.94775 h 2.94893 v 2.94891 h 2.94893 v 2.94891 h 2.94775 v 2.94775 h 2.94888 v 2.9489 h 2.94774 v 2.94775 h 2.94893 v 2.94891 h -2.94893 -2.94774 v 2.94891 h -2.94888 -2.94775 v 2.94775 h -2.94893 -2.94893 v 2.9489 h -2.94775 -2.94888 v 2.94775 h -2.94774 -2.94894 v 2.94891 h -2.94888 -2.94774 v 2.94891 h -2.94894 -2.94888 -2.94774 v 2.94775 h -2.94893 -2.94775 v 2.9489 h -2.94888 -2.94893 v 2.94775 h -2.94775 -2.94893 v 2.94891 h -2.94774 -2.94889 v 2.94891 h -2.94893 -2.94774 v 2.94774 h -2.94889 -2.94774 v 2.94892 h -2.94893 -2.94889 v 2.9489 h -2.94774 -2.94893 -2.94775 v 2.94775 h -2.94888 -2.94893 v 2.94891 h -2.94775 -2.94893 v 2.94774 h -2.94888 -2.94774 v 2.94892 h -2.94894 -2.94774 v 2.9489 h -2.94888 -2.94894 v -2.9489 -2.94892 -2.94774 -2.94891 -2.94775 -2.9489 -2.94892 -2.94774 -2.94891 -2.94891 -2.94775 -2.9489 -2.94775 -2.94891 -2.94891 -2.94775 -2.9489 -2.94775 -2.94891 -2.94891 -2.94775 -2.9489 -2.94775 -2.94891 -2.94891 -2.94775 -2.94891 -2.94774 -2.94891 -2.94891 -2.94774 -2.94892 -2.9489 -2.94775 -2.94891 -2.94774 -2.94892 -2.9489 -2.94775 -2.94891 -2.94775 -2.9489 -2.948918 -2.947744 -2.948912 -2.947745 -2.948907 -2.948912 -2.947745 -2.948907 -2.94775 -2.948907 -2.948907 -2.94775 -2.948907 -2.948912 -2.947745 -2.948907 -2.947749 -2.948908 z M 553.90038,189.40578 h 2.94894 2.94888 v 2.9489 h 2.94774 2.94894 v 2.94775 h 2.94774 2.94893 v 2.94891 h 2.94888 2.94775 v 2.94891 h 2.94893 2.94775 v 2.94774 h 2.94888 2.94893 v 2.94892 h 2.94774 2.94889 2.94774 v 2.9489 h 2.94893 2.94889 v 2.94775 h 2.94774 2.94893 v 2.94891 h 2.94894 2.94774 v 2.94774 h 2.94888 2.94775 v 2.94892 h 2.94893 2.94888 v 2.9489 h 2.94775 2.94893 v 2.94775 h 2.94774 2.94888 v 2.94891 h 2.94894 2.94774 2.94888 v 2.94774 h 2.9478 2.94888 v 2.94891 h 2.94893 v 2.94891 2.94775 2.94891 2.94775 2.9489 2.94892 2.94774 2.94891 2.94775 2.9489 2.94891 2.94775 2.94891 2.94891 2.94774 2.94891 2.94775 2.94891 2.94891 h -2.94893 -2.94888 v -2.94891 h -2.9478 v -2.94891 h -2.94888 v -2.94775 h -2.94774 V 280.808 h -2.94894 v -2.94774 h -2.94888 v -2.94891 h -2.94774 v -2.94891 h -2.94893 v -2.94775 h -2.94775 v -2.94891 h -2.94888 v -2.9489 h -2.94893 v -2.94775 h -2.94775 v -2.94891 h -2.94888 v -2.94774 h -2.94774 v -2.94892 h -2.94894 v -2.9489 h -2.94893 v -2.94775 h -2.94774 V 242.478 h -2.94889 v -2.94775 h -2.94893 v -2.94891 h -2.94774 v -2.94891 h -2.94889 v -2.94774 h -2.94774 v -2.94891 h -2.94893 v -2.94775 h -2.94888 v -2.9489 h -2.94775 v -2.94892 h -2.94893 v -2.94774 h -2.94775 v -2.94891 h -2.94888 v -2.94775 h -2.94893 v -2.9489 h -2.94774 v -2.94892 h -2.94894 v -2.94774 h -2.94774 v -2.94891 h -2.94888 v -2.94891 h -2.94894 v -2.94775 z m 209.34118,0 h 2.94774 2.94888 v 2.9489 h -2.94888 v 2.94775 h -2.94774 v 2.94891 h -2.94894 v 2.94891 h -2.94888 v 2.94774 H 754.396 v 2.94892 h -2.94894 v 2.9489 h -2.94888 v 2.94775 h -2.94774 v 2.94891 h -2.94893 v 2.94774 h -2.94775 v 2.94892 h -2.94888 v 2.9489 h -2.94893 v 2.94775 h -2.94775 v 2.94891 h -2.94893 v 2.94774 h -2.94774 v 2.94891 h -2.94889 v 2.94891 h -2.94893 v 2.94775 h -2.94774 v 2.94891 h -2.94889 v 2.94775 h -2.94774 v 2.9489 h -2.94893 v 2.94892 h -2.94889 v 2.94774 h -2.94774 v 2.94891 h -2.94893 v 2.94775 h -2.94775 v 2.9489 h -2.94888 v 2.94891 h -2.94893 v 2.94775 h -2.94775 v 2.94891 h -2.94893 v 2.94891 h -2.94888 v 2.94774 h -2.94774 v 2.94891 h -2.94894 v 2.94775 h -2.94774 v 2.94891 h -2.94888 v 2.94891 h -2.94894 v -2.94891 -2.94891 -2.94775 -2.94891 -2.94774 -2.94891 -2.94891 -2.94775 -2.94891 -2.9489 -2.94775 -2.94891 -2.94774 -2.94892 -2.9489 -2.94775 -2.94891 -2.94775 -2.94891 h 2.94894 v -2.94891 h 2.94888 2.94774 v -2.94774 h 2.94894 2.94774 v -2.94891 h 2.94888 2.94893 v -2.94775 h 2.94775 2.94893 v -2.9489 h 2.94888 2.94775 v -2.94892 h 2.94893 2.94774 2.94889 v -2.94774 h 2.94893 2.94774 v -2.94891 h 2.94889 2.94774 v -2.94775 h 2.94893 2.94889 v -2.9489 h 2.94774 2.94893 v -2.94892 h 2.94775 2.94893 v -2.94774 h 2.94888 2.94775 v -2.94891 h 2.94893 2.94774 v -2.94891 h 2.94888 2.94894 2.94774 v -2.94775 h 2.94888 2.94894 z"
         inkscape:label="dropshadow" />
      <path
         style="display:inline;opacity:0.33;fill:#000000;stroke-width:1.06297;stroke-linecap:round;stroke-linejoin:round;stroke-miterlimit:5"
         d="M 518.79104,165.17515 655.57748,227.69266 791.89387,163.29492 657.45771,302.43165 Z"
         id="path9316"
         inkscape:label="shade33" />
      <path
         style="opacity:0.33;fill:#000000;stroke-width:1.06297;stroke-linecap:round;stroke-linejoin:round;stroke-miterlimit:5"
         d="M 656.5176,29.798873 517.38087,163.76498 656.5176,302.43165 Z"
         id="path9314"
         inkscape:label="shade33" />
      <path
         style="opacity:0.66;fill:#000000;stroke-width:1.06297;stroke-linecap:round;stroke-linejoin:round;stroke-miterlimit:5"
         d="M 657.92777,29.798873 656.98765,299.6113 792.83398,162.82486 Z"
         id="path9315"
         inkscape:label="shade66" />
    </g>
    <path
       id="path9317"
       style="fill:#000000;fill-opacity:10117647"
       d="M 546.52355 25.766717 L 546.52355 26.362407 L 545.92762 26.362407 L 545.92762 26.958332 L 545.3317 26.958332 L 545.3317 27.554258 L 544.736 27.554258 L 544.736 28.149948 L 544.14008 28.149948 L 544.14008 28.745873 L 543.54439 28.745873 L 543.54439 29.341564 L 542.94846 29.341564 L 542.94846 29.937489 L 542.35254 29.937489 L 542.35254 30.533414 L 541.75685 30.533414 L 541.75685 31.129105 L 541.16092 31.129105 L 541.16092 31.72503 L 540.56523 31.72503 L 540.56523 32.32072 L 539.96931 32.32072 L 539.96931 32.916646 L 539.37338 32.916646 L 539.37338 33.512571 L 538.77769 33.512571 L 538.77769 34.108262 L 538.18177 34.108262 L 538.18177 34.704187 L 537.58608 34.704187 L 537.58608 35.300112 L 536.99015 35.300112 L 536.99015 35.895803 L 536.39422 35.895803 L 536.39422 36.491728 L 535.79853 36.491728 L 535.79853 37.087418 L 535.20261 37.087418 L 535.20261 37.683344 L 534.60668 37.683344 L 534.60668 38.279269 L 534.01099 38.279269 L 534.01099 38.874959 L 533.41507 38.874959 L 533.41507 39.470885 L 532.81938 39.470885 L 532.81938 40.066575 L 532.22345 40.066575 L 532.22345 40.662501 L 531.62753 40.662501 L 531.62753 41.258426 L 531.03184 41.258426 L 531.03184 41.854116 L 530.43591 41.854116 L 530.43591 42.450042 L 529.84022 42.450042 L 529.84022 43.045732 L 529.2443 43.045732 L 529.2443 43.641657 L 528.64837 43.641657 L 528.64837 44.237583 L 528.05268 44.237583 L 528.05268 44.833273 L 527.45675 44.833273 L 527.45675 45.429199 L 526.86106 45.429199 L 526.86106 46.024889 L 526.26514 46.024889 L 526.26514 46.620814 L 525.66921 46.620814 L 525.66921 47.21674 L 525.07352 47.21674 L 525.07352 47.81243 L 524.4776 47.81243 L 524.4776 48.408355 L 523.88191 48.408355 L 523.88191 49.004281 L 523.28598 49.004281 L 523.28598 49.599971 L 522.69006 49.599971 L 522.69006 50.195896 L 522.09437 50.195896 L 522.09437 50.791587 L 521.49844 50.791587 L 521.49844 51.387512 L 520.90252 51.387512 L 520.90252 51.983438 L 520.30682 51.983438 L 520.30682 52.579128 L 519.7109 52.579128 L 519.7109 53.175053 L 519.11521 53.175053 L 519.11521 53.770744 L 518.51928 53.770744 L 518.51928 54.366669 L 518.51928 54.962594 L 519.11521 54.962594 L 519.11521 55.558285 L 519.7109 55.558285 L 519.7109 56.15421 L 520.30682 56.15421 L 520.30682 56.7499 L 520.90252 56.7499 L 520.90252 57.345826 L 521.49844 57.345826 L 521.49844 57.941751 L 522.09437 57.941751 L 522.09437 58.537442 L 522.69006 58.537442 L 522.69006 59.133367 L 523.28598 59.133367 L 523.28598 59.729057 L 523.88191 59.729057 L 523.88191 60.324983 L 524.4776 60.324983 L 524.4776 60.920908 L 525.07352 60.920908 L 525.07352 61.516598 L 525.66921 61.516598 L 525.66921 62.112524 L 526.26514 62.112524 L 526.26514 62.708449 L 526.86106 62.708449 L 526.86106 63.304139 L 527.45675 63.304139 L 527.45675 63.900065 L 528.05268 63.900065 L 528.05268 64.495755 L 528.64837 64.495755 L 528.64837 65.091681 L 529.2443 65.091681 L 529.2443 65.687606 L 529.84022 65.687606 L 529.84022 66.283296 L 530.43591 66.283296 L 530.43591 66.879222 L 531.03184 66.879222 L 531.03184 67.474912 L 531.62753 67.474912 L 531.62753 68.070837 L 532.22345 68.070837 L 532.22345 68.666763 L 532.81938 68.666763 L 532.81938 69.262453 L 533.41507 69.262453 L 533.41507 69.858379 L 534.01099 69.858379 L 534.01099 70.454069 L 534.60668 70.454069 L 534.60668 71.049994 L 535.20261 71.049994 L 535.20261 71.64592 L 535.79853 71.64592 L 535.79853 72.24161 L 536.39422 72.24161 L 536.39422 72.837535 L 536.99015 72.837535 L 536.99015 73.433226 L 537.58608 73.433226 L 537.58608 74.029151 L 538.18177 74.029151 L 538.18177 74.625076 L 538.77769 74.625076 L 538.77769 75.220767 L 539.37338 75.220767 L 539.37338 75.816692 L 539.96931 75.816692 L 539.96931 76.412618 L 540.56523 76.412618 L 540.56523 77.008308 L 541.16092 77.008308 L 541.16092 77.604233 L 541.75685 77.604233 L 541.75685 78.199924 L 542.35254 78.199924 L 542.35254 78.795849 L 542.94846 78.795849 L 542.94846 79.391774 L 543.54439 79.391774 L 543.54439 79.987465 L 544.14008 79.987465 L 544.14008 80.58339 L 544.736 80.58339 L 544.736 81.17908 L 545.3317 81.17908 L 545.3317 81.775006 L 545.92762 81.775006 L 545.92762 82.370931 L 546.52355 82.370931 L 546.52355 82.966621 L 547.11924 82.966621 L 547.71516 82.966621 L 548.31085 82.966621 L 548.31085 82.370931 L 548.90678 82.370931 L 548.90678 81.775006 L 549.5027 81.775006 L 549.5027 81.17908 L 550.09839 81.17908 L 550.09839 80.58339 L 550.69432 80.58339 L 550.69432 79.987465 L 551.29001 79.987465 L 551.29001 79.391774 L 551.88593 79.391774 L 551.88593 78.795849 L 552.48186 78.795849 L 552.48186 78.199924 L 553.07755 78.199924 L 553.07755 77.604233 L 553.67348 77.604233 L 553.67348 77.008308 L 554.2694 77.008308 L 554.2694 76.412618 L 554.86509 76.412618 L 554.86509 75.816692 L 555.46102 75.816692 L 555.46102 75.220767 L 556.05671 75.220767 L 556.05671 74.625076 L 556.65263 74.625076 L 556.65263 74.029151 L 557.24856 74.029151 L 557.24856 73.433226 L 557.84425 73.433226 L 557.84425 72.837535 L 558.44017 72.837535 L 558.44017 72.24161 L 559.03586 72.24161 L 559.03586 71.64592 L 559.63179 71.64592 L 559.63179 71.049994 L 560.22771 71.049994 L 560.22771 70.454069 L 560.8234 70.454069 L 560.8234 69.858379 L 561.41933 69.858379 L 561.41933 69.262453 L 562.01502 69.262453 L 562.01502 68.666763 L 562.61095 68.666763 L 562.61095 68.070837 L 563.20687 68.070837 L 563.20687 67.474912 L 563.80256 67.474912 L 563.80256 66.879222 L 564.39849 66.879222 L 564.39849 66.283296 L 564.99418 66.283296 L 564.99418 65.687606 L 565.5901 65.687606 L 565.5901 65.091681 L 566.18603 65.091681 L 566.18603 64.495755 L 566.78172 64.495755 L 566.78172 63.900065 L 567.37764 63.900065 L 567.37764 63.304139 L 567.97357 63.304139 L 567.97357 62.708449 L 568.56926 62.708449 L 568.56926 62.112524 L 569.16518 62.112524 L 569.16518 61.516598 L 569.76087 61.516598 L 569.76087 60.920908 L 570.3568 60.920908 L 570.3568 60.324983 L 570.95273 60.324983 L 570.95273 59.729057 L 571.54842 59.729057 L 571.54842 59.133367 L 572.14434 59.133367 L 572.14434 58.537442 L 572.74003 58.537442 L 572.74003 57.941751 L 573.33596 57.941751 L 573.33596 57.345826 L 573.93188 57.345826 L 573.93188 56.7499 L 574.52757 56.7499 L 574.52757 56.15421 L 574.52757 55.558285 L 575.1235 55.558285 L 575.1235 54.962594 L 575.71919 54.962594 L 575.71919 54.366669 L 576.31511 54.366669 L 576.31511 53.770744 L 575.71919 53.770744 L 575.71919 53.175053 L 575.1235 53.175053 L 575.1235 52.579128 L 574.52757 52.579128 L 574.52757 51.983438 L 573.93188 51.983438 L 573.93188 51.387512 L 573.33596 51.387512 L 573.33596 50.791587 L 572.74003 50.791587 L 572.74003 50.195896 L 572.14434 50.195896 L 572.14434 49.599971 L 571.54842 49.599971 L 571.54842 49.004281 L 570.95273 49.004281 L 570.95273 48.408355 L 570.3568 48.408355 L 570.3568 47.81243 L 569.76087 47.81243 L 569.76087 47.21674 L 569.16518 47.21674 L 569.16518 46.620814 L 568.56926 46.620814 L 568.56926 46.024889 L 567.97357 46.024889 L 567.97357 45.429199 L 567.37764 45.429199 L 567.37764 44.833273 L 566.78172 44.833273 L 566.78172 44.237583 L 566.18603 44.237583 L 566.18603 43.641657 L 565.5901 43.641657 L 565.5901 43.045732 L 564.99418 43.045732 L 564.99418 42.450042 L 564.39849 42.450042 L 564.39849 41.854116 L 563.80256 41.854116 L 563.80256 41.258426 L 563.20687 41.258426 L 563.20687 40.662501 L 562.61095 40.662501 L 562.61095 40.066575 L 562.01502 40.066575 L 562.01502 39.470885 L 561.41933 39.470885 L 561.41933 38.874959 L 560.8234 38.874959 L 560.8234 38.279269 L 560.22771 38.279269 L 560.22771 37.683344 L 559.63179 37.683344 L 559.63179 37.087418 L 559.03586 37.087418 L 559.03586 36.491728 L 558.44017 36.491728 L 558.44017 35.895803 L 557.84425 35.895803 L 557.84425 35.300112 L 557.24856 35.300112 L 557.24856 34.704187 L 556.65263 34.704187 L 556.65263 34.108262 L 556.05671 34.108262 L 556.05671 33.512571 L 555.46102 33.512571 L 555.46102 32.916646 L 554.86509 32.916646 L 554.86509 32.32072 L 554.2694 32.32072 L 554.2694 31.72503 L 553.67348 31.72503 L 553.67348 31.129105 L 553.07755 31.129105 L 553.07755 30.533414 L 552.48186 30.533414 L 552.48186 29.937489 L 551.88593 29.937489 L 551.88593 29.341564 L 551.29001 29.341564 L 551.29001 28.745873 L 550.69432 28.745873 L 550.69432 28.149948 L 550.09839 28.149948 L 550.09839 27.554258 L 549.5027 27.554258 L 549.5027 26.958332 L 548.90678 26.958332 L 548.90678 26.362407 L 548.31085 26.362407 L 548.31085 25.766717 L 547.71516 25.766717 L 547.11924 25.766717 L 546.52355 25.766717 z M 545.92762 28.745873 L 546.52355 28.745873 L 546.52355 29.341564 L 546.52355 29.937489 L 546.52355 30.533414 L 546.52355 31.129105 L 546.52355 31.72503 L 546.52355 32.32072 L 546.52355 32.916646 L 546.52355 33.512571 L 546.52355 34.108262 L 546.52355 34.704187 L 546.52355 35.300112 L 546.52355 35.895803 L 546.52355 36.491728 L 546.52355 37.087418 L 546.52355 37.683344 L 546.52355 38.279269 L 546.52355 38.874959 L 546.52355 39.470885 L 546.52355 40.066575 L 546.52355 40.662501 L 546.52355 41.258426 L 546.52355 41.854116 L 546.52355 42.450042 L 546.52355 43.045732 L 546.52355 43.641657 L 546.52355 44.237583 L 546.52355 44.833273 L 546.52355 45.429199 L 546.52355 46.024889 L 546.52355 46.620814 L 546.52355 47.21674 L 546.52355 47.81243 L 546.52355 48.408355 L 546.52355 49.004281 L 546.52355 49.599971 L 546.52355 50.195896 L 546.52355 50.791587 L 546.52355 51.387512 L 546.52355 51.983438 L 546.52355 52.579128 L 546.52355 53.175053 L 546.52355 53.770744 L 546.52355 54.366669 L 546.52355 54.962594 L 546.52355 55.558285 L 546.52355 56.15421 L 546.52355 56.7499 L 546.52355 57.345826 L 546.52355 57.941751 L 546.52355 58.537442 L 546.52355 59.133367 L 546.52355 59.729057 L 546.52355 60.324983 L 546.52355 60.920908 L 546.52355 61.516598 L 546.52355 62.112524 L 546.52355 62.708449 L 546.52355 63.304139 L 546.52355 63.900065 L 546.52355 64.495755 L 546.52355 65.091681 L 545.92762 65.091681 L 545.92762 65.687606 L 545.3317 65.687606 L 545.3317 65.091681 L 544.736 65.091681 L 544.14008 65.091681 L 543.54439 65.091681 L 543.54439 64.495755 L 542.94846 64.495755 L 542.35254 64.495755 L 542.35254 63.900065 L 541.75685 63.900065 L 541.16092 63.900065 L 541.16092 63.304139 L 540.56523 63.304139 L 539.96931 63.304139 L 539.96931 62.708449 L 539.37338 62.708449 L 538.77769 62.708449 L 538.77769 62.112524 L 538.18177 62.112524 L 537.58608 62.112524 L 537.58608 61.516598 L 536.99015 61.516598 L 536.39422 61.516598 L 536.39422 60.920908 L 535.79853 60.920908 L 535.20261 60.920908 L 534.60668 60.920908 L 534.60668 60.324983 L 534.01099 60.324983 L 533.41507 60.324983 L 533.41507 59.729057 L 532.81938 59.729057 L 532.22345 59.729057 L 532.22345 59.133367 L 531.62753 59.133367 L 531.03184 59.133367 L 531.03184 58.537442 L 530.43591 58.537442 L 529.84022 58.537442 L 529.84022 57.941751 L 529.2443 57.941751 L 528.64837 57.941751 L 528.64837 57.345826 L 528.05268 57.345826 L 527.45675 57.345826 L 527.45675 56.7499 L 526.86106 56.7499 L 526.26514 56.7499 L 526.26514 56.15421 L 525.66921 56.15421 L 525.07352 56.15421 L 525.07352 55.558285 L 524.4776 55.558285 L 523.88191 55.558285 L 523.28598 55.558285 L 523.28598 54.962594 L 522.69006 54.962594 L 522.09437 54.962594 L 522.09437 54.366669 L 521.49844 54.366669 L 521.49844 53.770744 L 521.49844 53.175053 L 522.09437 53.175053 L 522.09437 52.579128 L 522.69006 52.579128 L 522.69006 51.983438 L 523.28598 51.983438 L 523.28598 51.387512 L 523.88191 51.387512 L 523.88191 50.791587 L 524.4776 50.791587 L 524.4776 50.195896 L 525.07352 50.195896 L 525.07352 49.599971 L 525.66921 49.599971 L 525.66921 49.004281 L 526.26514 49.004281 L 526.26514 48.408355 L 526.86106 48.408355 L 526.86106 47.81243 L 527.45675 47.81243 L 527.45675 47.21674 L 528.05268 47.21674 L 528.05268 46.620814 L 528.64837 46.620814 L 528.64837 46.024889 L 529.2443 46.024889 L 529.2443 45.429199 L 529.84022 45.429199 L 529.84022 44.833273 L 530.43591 44.833273 L 530.43591 44.237583 L 531.03184 44.237583 L 531.03184 43.641657 L 531.62753 43.641657 L 531.62753 43.045732 L 532.22345 43.045732 L 532.22345 42.450042 L 532.81938 42.450042 L 532.81938 41.854116 L 533.41507 41.854116 L 533.41507 41.258426 L 534.01099 41.258426 L 534.01099 40.662501 L 534.60668 40.662501 L 534.60668 40.066575 L 535.20261 40.066575 L 535.20261 39.470885 L 535.79853 39.470885 L 535.79853 38.874959 L 536.39422 38.874959 L 536.39422 38.279269 L 536.99015 38.279269 L 536.99015 37.683344 L 537.58608 37.683344 L 537.58608 37.087418 L 538.18177 37.087418 L 538.18177 36.491728 L 538.77769 36.491728 L 538.77769 35.895803 L 539.37338 35.895803 L 539.37338 35.300112 L 539.96931 35.300112 L 539.96931 34.704187 L 540.56523 34.704187 L 540.56523 34.108262 L 541.16092 34.108262 L 541.16092 33.512571 L 541.75685 33.512571 L 541.75685 32.916646 L 542.35254 32.916646 L 542.35254 32.32072 L 542.94846 32.32072 L 542.94846 31.72503 L 543.54439 31.72503 L 543.54439 31.129105 L 544.14008 31.129105 L 544.14008 30.533414 L 544.736 30.533414 L 544.736 29.937489 L 545.3317 29.937489 L 545.3317 29.341564 L 545.92762 29.341564 L 545.92762 28.745873 z M 548.31085 29.341564 L 548.90678 29.341564 L 548.90678 29.937489 L 549.5027 29.937489 L 549.5027 30.533414 L 550.09839 30.533414 L 550.09839 31.129105 L 550.69432 31.129105 L 550.69432 31.72503 L 551.29001 31.72503 L 551.29001 32.32072 L 551.88593 32.32072 L 551.88593 32.916646 L 552.48186 32.916646 L 552.48186 33.512571 L 553.07755 33.512571 L 553.07755 34.108262 L 553.67348 34.108262 L 553.67348 34.704187 L 554.2694 34.704187 L 554.2694 35.300112 L 554.86509 35.300112 L 554.86509 35.895803 L 555.46102 35.895803 L 555.46102 36.491728 L 556.05671 36.491728 L 556.05671 37.087418 L 556.65263 37.087418 L 556.65263 37.683344 L 557.24856 37.683344 L 557.24856 38.279269 L 557.84425 38.279269 L 557.84425 38.874959 L 558.44017 38.874959 L 558.44017 39.470885 L 559.03586 39.470885 L 559.03586 40.066575 L 559.63179 40.066575 L 559.63179 40.662501 L 560.22771 40.662501 L 560.22771 41.258426 L 560.8234 41.258426 L 560.8234 41.854116 L 561.41933 41.854116 L 561.41933 42.450042 L 562.01502 42.450042 L 562.01502 43.045732 L 562.61095 43.045732 L 562.61095 43.641657 L 563.20687 43.641657 L 563.20687 44.237583 L 563.80256 44.237583 L 563.80256 44.833273 L 564.39849 44.833273 L 564.39849 45.429199 L 564.99418 45.429199 L 564.99418 46.024889 L 565.5901 46.024889 L 565.5901 46.620814 L 566.18603 46.620814 L 566.18603 47.21674 L 566.78172 47.21674 L 566.78172 47.81243 L 567.37764 47.81243 L 567.37764 48.408355 L 567.97357 48.408355 L 567.97357 49.004281 L 568.56926 49.004281 L 568.56926 49.599971 L 569.16518 49.599971 L 569.16518 50.195896 L 569.76087 50.195896 L 569.76087 50.791587 L 570.3568 50.791587 L 570.3568 51.387512 L 570.95273 51.387512 L 570.95273 51.983438 L 571.54842 51.983438 L 571.54842 52.579128 L 572.14434 52.579128 L 572.14434 53.175053 L 572.74003 53.175053 L 572.74003 53.770744 L 573.33596 53.770744 L 573.33596 54.366669 L 572.74003 54.366669 L 572.14434 54.366669 L 572.14434 54.962594 L 571.54842 54.962594 L 570.95273 54.962594 L 570.95273 55.558285 L 570.3568 55.558285 L 569.76087 55.558285 L 569.76087 56.15421 L 569.16518 56.15421 L 568.56926 56.15421 L 568.56926 56.7499 L 567.97357 56.7499 L 567.37764 56.7499 L 567.37764 57.345826 L 566.78172 57.345826 L 566.18603 57.345826 L 566.18603 57.941751 L 565.5901 57.941751 L 564.99418 57.941751 L 564.39849 57.941751 L 564.39849 58.537442 L 563.80256 58.537442 L 563.20687 58.537442 L 563.20687 59.133367 L 562.61095 59.133367 L 562.01502 59.133367 L 562.01502 59.729057 L 561.41933 59.729057 L 560.8234 59.729057 L 560.8234 60.324983 L 560.22771 60.324983 L 559.63179 60.324983 L 559.63179 60.920908 L 559.03586 60.920908 L 558.44017 60.920908 L 558.44017 61.516598 L 557.84425 61.516598 L 557.24856 61.516598 L 557.24856 62.112524 L 556.65263 62.112524 L 556.05671 62.112524 L 556.05671 62.708449 L 555.46102 62.708449 L 554.86509 62.708449 L 554.2694 62.708449 L 554.2694 63.304139 L 553.67348 63.304139 L 553.07755 63.304139 L 553.07755 63.900065 L 552.48186 63.900065 L 551.88593 63.900065 L 551.88593 64.495755 L 551.29001 64.495755 L 550.69432 64.495755 L 550.69432 65.091681 L 550.09839 65.091681 L 549.5027 65.091681 L 549.5027 65.687606 L 548.90678 65.687606 L 548.31085 65.687606 L 548.31085 65.091681 L 548.31085 64.495755 L 548.31085 63.900065 L 548.31085 63.304139 L 548.31085 62.708449 L 548.31085 62.112524 L 548.31085 61.516598 L 548.31085 60.920908 L 548.31085 60.324983 L 548.31085 59.729057 L 548.31085 59.133367 L 548.31085 58.537442 L 548.31085 57.941751 L 548.31085 57.345826 L 548.31085 56.7499 L 548.31085 56.15421 L 548.31085 55.558285 L 548.31085 54.962594 L 548.31085 54.366669 L 548.31085 53.770744 L 548.31085 53.175053 L 548.31085 52.579128 L 548.31085 51.983438 L 548.31085 51.387512 L 548.31085 50.791587 L 548.31085 50.195896 L 548.31085 49.599971 L 548.31085 49.004281 L 548.31085 48.408355 L 548.31085 47.81243 L 548.31085 47.21674 L 548.31085 46.620814 L 548.31085 46.024889 L 548.31085 45.429199 L 548.31085 44.833273 L 548.31085 44.237583 L 548.31085 43.641657 L 548.31085 43.045732 L 548.31085 42.450042 L 548.31085 41.854116 L 548.31085 41.258426 L 548.31085 40.662501 L 548.31085 40.066575 L 548.31085 39.470885 L 548.31085 38.874959 L 548.31085 38.279269 L 548.31085 37.683344 L 548.31085 37.087418 L 548.31085 36.491728 L 548.31085 35.895803 L 548.31085 35.300112 L 548.31085 34.704187 L 548.31085 34.108262 L 548.31085 33.512571 L 548.31085 32.916646 L 548.31085 32.32072 L 548.31085 31.72503 L 548.31085 31.129105 L 548.31085 30.533414 L 548.31085 29.937489 L 548.31085 29.341564 z M 525.66921 58.537442 L 526.26514 58.537442 L 526.86106 58.537442 L 526.86106 59.133367 L 527.45675 59.133367 L 528.05268 59.133367 L 528.05268 59.729057 L 528.64837 59.729057 L 529.2443 59.729057 L 529.2443 60.324983 L 529.84022 60.324983 L 530.43591 60.324983 L 530.43591 60.920908 L 531.03184 60.920908 L 531.62753 60.920908 L 531.62753 61.516598 L 532.22345 61.516598 L 532.81938 61.516598 L 532.81938 62.112524 L 533.41507 62.112524 L 534.01099 62.112524 L 534.60668 62.112524 L 534.60668 62.708449 L 535.20261 62.708449 L 535.79853 62.708449 L 535.79853 63.304139 L 536.39422 63.304139 L 536.99015 63.304139 L 536.99015 63.900065 L 537.58608 63.900065 L 538.18177 63.900065 L 538.18177 64.495755 L 538.77769 64.495755 L 539.37338 64.495755 L 539.37338 65.091681 L 539.96931 65.091681 L 540.56523 65.091681 L 540.56523 65.687606 L 541.16092 65.687606 L 541.75685 65.687606 L 541.75685 66.283296 L 542.35254 66.283296 L 542.94846 66.283296 L 542.94846 66.879222 L 543.54439 66.879222 L 544.14008 66.879222 L 544.736 66.879222 L 544.736 67.474912 L 545.3317 67.474912 L 545.92762 67.474912 L 545.92762 68.070837 L 546.52355 68.070837 L 546.52355 68.666763 L 546.52355 69.262453 L 546.52355 69.858379 L 546.52355 70.454069 L 546.52355 71.049994 L 546.52355 71.64592 L 546.52355 72.24161 L 546.52355 72.837535 L 546.52355 73.433226 L 546.52355 74.029151 L 546.52355 74.625076 L 546.52355 75.220767 L 546.52355 75.816692 L 546.52355 76.412618 L 546.52355 77.008308 L 546.52355 77.604233 L 546.52355 78.199924 L 546.52355 78.795849 L 546.52355 79.391774 L 545.92762 79.391774 L 545.3317 79.391774 L 545.3317 78.795849 L 544.736 78.795849 L 544.736 78.199924 L 544.14008 78.199924 L 544.14008 77.604233 L 543.54439 77.604233 L 543.54439 77.008308 L 542.94846 77.008308 L 542.94846 76.412618 L 542.35254 76.412618 L 542.35254 75.816692 L 541.75685 75.816692 L 541.75685 75.220767 L 541.16092 75.220767 L 541.16092 74.625076 L 540.56523 74.625076 L 540.56523 74.029151 L 539.96931 74.029151 L 539.96931 73.433226 L 539.37338 73.433226 L 539.37338 72.837535 L 538.77769 72.837535 L 538.77769 72.24161 L 538.18177 72.24161 L 538.18177 71.64592 L 537.58608 71.64592 L 537.58608 71.049994 L 536.99015 71.049994 L 536.99015 70.454069 L 536.39422 70.454069 L 536.39422 69.858379 L 535.79853 69.858379 L 535.79853 69.262453 L 535.20261 69.262453 L 535.20261 68.666763 L 534.60668 68.666763 L 534.60668 68.070837 L 534.01099 68.070837 L 534.01099 67.474912 L 533.41507 67.474912 L 533.41507 66.879222 L 532.81938 66.879222 L 532.81938 66.283296 L 532.22345 66.283296 L 532.22345 65.687606 L 531.62753 65.687606 L 531.62753 65.091681 L 531.03184 65.091681 L 531.03184 64.495755 L 530.43591 64.495755 L 530.43591 63.900065 L 529.84022 63.900065 L 529.84022 63.304139 L 529.2443 63.304139 L 529.2443 62.708449 L 528.64837 62.708449 L 528.64837 62.112524 L 528.05268 62.112524 L 528.05268 61.516598 L 527.45675 61.516598 L 527.45675 60.920908 L 526.86106 60.920908 L 526.86106 60.324983 L 526.26514 60.324983 L 526.26514 59.729057 L 525.66921 59.729057 L 525.66921 59.133367 L 525.66921 58.537442 z M 567.97357 58.537442 L 568.56926 58.537442 L 569.16518 58.537442 L 569.16518 59.133367 L 568.56926 59.133367 L 568.56926 59.729057 L 567.97357 59.729057 L 567.97357 60.324983 L 567.37764 60.324983 L 567.37764 60.920908 L 566.78172 60.920908 L 566.78172 61.516598 L 566.18603 61.516598 L 566.18603 62.112524 L 565.5901 62.112524 L 565.5901 62.708449 L 564.99418 62.708449 L 564.99418 63.304139 L 564.39849 63.304139 L 564.39849 63.900065 L 563.80256 63.900065 L 563.80256 64.495755 L 563.20687 64.495755 L 563.20687 65.091681 L 562.61095 65.091681 L 562.61095 65.687606 L 562.01502 65.687606 L 562.01502 66.283296 L 561.41933 66.283296 L 561.41933 66.879222 L 560.8234 66.879222 L 560.8234 67.474912 L 560.22771 67.474912 L 560.22771 68.070837 L 559.63179 68.070837 L 559.63179 68.666763 L 559.03586 68.666763 L 559.03586 69.262453 L 558.44017 69.262453 L 558.44017 69.858379 L 557.84425 69.858379 L 557.84425 70.454069 L 557.24856 70.454069 L 557.24856 71.049994 L 556.65263 71.049994 L 556.65263 71.64592 L 556.05671 71.64592 L 556.05671 72.24161 L 555.46102 72.24161 L 555.46102 72.837535 L 554.86509 72.837535 L 554.86509 73.433226 L 554.2694 73.433226 L 554.2694 74.029151 L 553.67348 74.029151 L 553.67348 74.625076 L 553.07755 74.625076 L 553.07755 75.220767 L 552.48186 75.220767 L 552.48186 75.816692 L 551.88593 75.816692 L 551.88593 76.412618 L 551.29001 76.412618 L 551.29001 77.008308 L 550.69432 77.008308 L 550.69432 77.604233 L 550.09839 77.604233 L 550.09839 78.199924 L 549.5027 78.199924 L 549.5027 78.795849 L 548.90678 78.795849 L 548.90678 79.391774 L 548.31085 79.391774 L 548.31085 78.795849 L 548.31085 78.199924 L 548.31085 77.604233 L 548.31085 77.008308 L 548.31085 76.412618 L 548.31085 75.816692 L 548.31085 75.220767 L 548.31085 74.625076 L 548.31085 74.029151 L 548.31085 73.433226 L 548.31085 72.837535 L 548.31085 72.24161 L 548.31085 71.64592 L 548.31085 71.049994 L 548.31085 70.454069 L 548.31085 69.858379 L 548.31085 69.262453 L 548.31085 68.666763 L 548.31085 68.070837 L 548.90678 68.070837 L 548.90678 67.474912 L 549.5027 67.474912 L 550.09839 67.474912 L 550.09839 66.879222 L 550.69432 66.879222 L 551.29001 66.879222 L 551.29001 66.283296 L 551.88593 66.283296 L 552.48186 66.283296 L 552.48186 65.687606 L 553.07755 65.687606 L 553.67348 65.687606 L 553.67348 65.091681 L 554.2694 65.091681 L 554.86509 65.091681 L 554.86509 64.495755 L 555.46102 64.495755 L 556.05671 64.495755 L 556.65263 64.495755 L 556.65263 63.900065 L 557.24856 63.900065 L 557.84425 63.900065 L 557.84425 63.304139 L 558.44017 63.304139 L 559.03586 63.304139 L 559.03586 62.708449 L 559.63179 62.708449 L 560.22771 62.708449 L 560.22771 62.112524 L 560.8234 62.112524 L 561.41933 62.112524 L 561.41933 61.516598 L 562.01502 61.516598 L 562.61095 61.516598 L 562.61095 60.920908 L 563.20687 60.920908 L 563.80256 60.920908 L 563.80256 60.324983 L 564.39849 60.324983 L 564.99418 60.324983 L 564.99418 59.729057 L 565.5901 59.729057 L 566.18603 59.729057 L 566.78172 59.729057 L 566.78172 59.133367 L 567.37764 59.133367 L 567.97357 59.133367 L 567.97357 58.537442 z "
       transform="matrix(4.9484538,0,0,4.9484538,-2052.1161,-105.03095)"
       inkscape:label="edges" />
  </g>
</svg>
